Source-HROTn_VROTx.ufo
<glyph name="numbersign" format="2">
  <advance width="480"/>
  <unicode hex="0023"/>
  <outline>
    <contour>
      <point x="55" y="133" type="line" smooth="yes"/>
      <point x="52" y="133"/>
      <point x="50" y="134"/>
      <point x="48" y="136" type="curve" smooth="yes"/>
      <point x="-14" y="224" type="line" smooth="yes"/>
      <point x="-17" y="230"/>
      <point x="-13" y="237"/>
      <point x="-7" y="237" type="curve" smooth="yes"/>
      <point x="66" y="237" type="line"/>
      <point x="59" y="225" type="line"/>
      <point x="7" y="309" type="line"/>
      <point x="14" y="305" type="line"/>
      <point x="-66" y="305" type="line" smooth="yes"/>
      <point x="-69" y="305"/>
      <point x="-71" y="306"/>
      <point x="-73" y="308" type="curve" smooth="yes"/>
      <point x="-136" y="396" type="line" smooth="yes"/>
      <point x="-139" y="402"/>
      <point x="-136" y="409"/>
      <point x="-129" y="409" type="curve" smooth="yes"/>
      <point x="-42" y="409" type="line"/>
      <point x="-49" y="397" type="line"/>
      <point x="-118" y="508" type="line" smooth="yes"/>
      <point x="-121" y="513"/>
      <point x="-117" y="520"/>
      <point x="-111" y="520" type="curve" smooth="yes"/>
      <point x="-23" y="520" type="line" smooth="yes"/>
      <point x="-20" y="520"/>
      <point x="-18" y="519"/>
      <point x="-16" y="516" type="curve" smooth="yes"/>
      <point x="54" y="405" type="line"/>
      <point x="47" y="409" type="line"/>
      <point x="120" y="409" type="line"/>
      <point x="113" y="397" type="line"/>
      <point x="44" y="508" type="line" smooth="yes"/>
      <point x="41" y="513"/>
      <point x="45" y="520"/>
      <point x="51" y="520" type="curve" smooth="yes"/>
      <point x="139" y="520" type="line" smooth="yes"/>
      <point x="142" y="520"/>
      <point x="144" y="519"/>
      <point x="146" y="516" type="curve" smooth="yes"/>
      <point x="216" y="405" type="line"/>
      <point x="209" y="409" type="line"/>
      <point x="275" y="409" type="line" smooth="yes"/>
      <point x="278" y="409"/>
      <point x="280" y="408"/>
      <point x="282" y="406" type="curve" smooth="yes"/>
      <point x="344" y="318" type="line" smooth="yes"/>
      <point x="347" y="312"/>
      <point x="343" y="305"/>
      <point x="337" y="305" type="curve" smooth="yes"/>
      <point x="264" y="305" type="line"/>
      <point x="271" y="317" type="line"/>
      <point x="323" y="233" type="line"/>
      <point x="316" y="237" type="line"/>
      <point x="396" y="237" type="line" smooth="yes"/>
      <point x="399" y="237"/>
      <point x="401" y="236"/>
      <point x="403" y="234" type="curve" smooth="yes"/>
      <point x="466" y="146" type="line" smooth="yes"/>
      <point x="469" y="140"/>
      <point x="466" y="133"/>
      <point x="459" y="133" type="curve" smooth="yes"/>
      <point x="372" y="133" type="line"/>
      <point x="379" y="145" type="line"/>
      <point x="448" y="35" type="line" smooth="yes"/>
      <point x="451" y="30"/>
      <point x="447" y="23"/>
      <point x="441" y="23" type="curve" smooth="yes"/>
      <point x="353" y="23" type="line" smooth="yes"/>
      <point x="350" y="23"/>
      <point x="348" y="24"/>
      <point x="346" y="27" type="curve" smooth="yes"/>
      <point x="276" y="137" type="line"/>
      <point x="283" y="133" type="line"/>
      <point x="210" y="133" type="line"/>
      <point x="217" y="145" type="line"/>
      <point x="286" y="35" type="line" smooth="yes"/>
      <point x="289" y="30"/>
      <point x="285" y="23"/>
      <point x="279" y="23" type="curve" smooth="yes"/>
      <point x="191" y="23" type="line" smooth="yes"/>
      <point x="188" y="23"/>
      <point x="186" y="24"/>
      <point x="184" y="27" type="curve" smooth="yes"/>
      <point x="114" y="137" type="line"/>
      <point x="121" y="133" type="line"/>
    </contour>
    <contour>
      <point x="161" y="233" type="line"/>
      <point x="154" y="237" type="line"/>
      <point x="228" y="237" type="line"/>
      <point x="221" y="225" type="line"/>
      <point x="169" y="309" type="line"/>
      <point x="176" y="305" type="line"/>
      <point x="102" y="305" type="line"/>
      <point x="109" y="317" type="line"/>
    </contour>
    <contour>
      <point x="55" y="149" type="line"/>
      <point x="121" y="149" type="line" smooth="yes"/>
      <point x="124" y="149"/>
      <point x="126" y="148"/>
      <point x="128" y="145" type="curve" smooth="yes"/>
      <point x="198" y="35" type="line"/>
      <point x="191" y="39" type="line"/>
      <point x="279" y="39" type="line"/>
      <point x="272" y="27" type="line"/>
      <point x="203" y="137" type="line" smooth="yes"/>
      <point x="200" y="142"/>
      <point x="204" y="149"/>
      <point x="210" y="149" type="curve" smooth="yes"/>
      <point x="283" y="149" type="line" smooth="yes"/>
      <point x="286" y="149"/>
      <point x="288" y="148"/>
      <point x="290" y="145" type="curve" smooth="yes"/>
      <point x="360" y="35" type="line"/>
      <point x="353" y="39" type="line"/>
      <point x="441" y="39" type="line"/>
      <point x="434" y="27" type="line"/>
      <point x="365" y="137" type="line" smooth="yes"/>
      <point x="362" y="142"/>
      <point x="366" y="149"/>
      <point x="372" y="149" type="curve" smooth="yes"/>
      <point x="459" y="149" type="line"/>
      <point x="452" y="136" type="line"/>
      <point x="389" y="224" type="line"/>
      <point x="396" y="221" type="line"/>
      <point x="316" y="221" type="line" smooth="yes"/>
      <point x="313" y="221"/>
      <point x="311" y="222"/>
      <point x="309" y="225" type="curve" smooth="yes"/>
      <point x="257" y="309" type="line" smooth="yes"/>
      <point x="254" y="314"/>
      <point x="258" y="321"/>
      <point x="264" y="321" type="curve" smooth="yes"/>
      <point x="337" y="321" type="line"/>
      <point x="330" y="308" type="line"/>
      <point x="268" y="396" type="line"/>
      <point x="275" y="393" type="line"/>
      <point x="209" y="393" type="line" smooth="yes"/>
      <point x="206" y="393"/>
      <point x="204" y="394"/>
      <point x="202" y="397" type="curve" smooth="yes"/>
      <point x="132" y="508" type="line"/>
      <point x="139" y="504" type="line"/>
      <point x="51" y="504" type="line"/>
      <point x="58" y="516" type="line"/>
      <point x="127" y="405" type="line" smooth="yes"/>
      <point x="130" y="400"/>
      <point x="126" y="393"/>
      <point x="120" y="393" type="curve" smooth="yes"/>
      <point x="47" y="393" type="line" smooth="yes"/>
      <point x="44" y="393"/>
      <point x="42" y="394"/>
      <point x="40" y="397" type="curve" smooth="yes"/>
      <point x="-30" y="508" type="line"/>
      <point x="-23" y="504" type="line"/>
      <point x="-111" y="504" type="line"/>
      <point x="-104" y="516" type="line"/>
      <point x="-35" y="405" type="line" smooth="yes"/>
      <point x="-32" y="400"/>
      <point x="-36" y="393"/>
      <point x="-42" y="393" type="curve" smooth="yes"/>
      <point x="-129" y="393" type="line"/>
      <point x="-122" y="406" type="line"/>
      <point x="-59" y="318" type="line"/>
      <point x="-66" y="321" type="line"/>
      <point x="14" y="321" type="line" smooth="yes"/>
      <point x="17" y="321"/>
      <point x="19" y="320"/>
      <point x="21" y="317" type="curve" smooth="yes"/>
      <point x="73" y="233" type="line" smooth="yes"/>
      <point x="76" y="228"/>
      <point x="72" y="221"/>
      <point x="66" y="221" type="curve" smooth="yes"/>
      <point x="-7" y="221" type="line"/>
      <point x="0" y="234" type="line"/>
      <point x="62" y="146" type="line"/>
    </contour>
    <contour>
      <point x="147" y="225" type="curve" smooth="yes"/>
      <point x="95" y="309" type="line" smooth="yes"/>
      <point x="92" y="314"/>
      <point x="96" y="321"/>
      <point x="102" y="321" type="curve" smooth="yes"/>
      <point x="176" y="321" type="line" smooth="yes"/>
      <point x="179" y="321"/>
      <point x="181" y="320"/>
      <point x="183" y="317" type="curve" smooth="yes"/>
      <point x="235" y="233" type="line" smooth="yes"/>
      <point x="238" y="228"/>
      <point x="234" y="221"/>
      <point x="228" y="221" type="curve" smooth="yes"/>
      <point x="154" y="221" type="line" smooth="yes"/>
      <point x="151" y="221"/>
      <point x="149" y="222"/>
    </contour>
  </outline>
</glyph>
<glyph name="dollar" format="2">
  <advance width="382"/>
  <unicode hex="0024"/>
  <outline>
    <contour>
      <point x="269" y="-48" type="line" smooth="yes"/>
      <point x="266" y="-48"/>
      <point x="264" y="-47"/>
      <point x="262" y="-44" type="curve" smooth="yes"/>
      <point x="209" y="41" type="line"/>
      <point x="215" y="37" type="line"/>
      <point x="183" y="40"/>
      <point x="148" y="46"/>
      <point x="109" y="55" type="curve" smooth="yes"/>
      <point x="107" y="56"/>
      <point x="106" y="57"/>
      <point x="104" y="58" type="curve" smooth="yes"/>
      <point x="21" y="175" type="line" smooth="yes"/>
      <point x="17" y="182"/>
      <point x="24" y="191"/>
      <point x="32" y="187" type="curve" smooth="yes"/>
      <point x="94" y="155"/>
      <point x="160" y="140"/>
      <point x="205" y="140" type="curve" smooth="yes"/>
      <point x="242" y="140"/>
      <point x="255" y="147"/>
      <point x="242" y="164" type="curve" smooth="yes"/>
      <point x="225" y="189"/>
      <point x="174" y="202"/>
      <point x="120" y="219" type="curve" smooth="yes"/>
      <point x="41" y="244"/>
      <point x="-53" y="277"/>
      <point x="-113" y="360" type="curve" smooth="yes"/>
      <point x="-165" y="436"/>
      <point x="-145" y="486"/>
      <point x="-74" y="501" type="curve"/>
      <point x="-79" y="489" type="line"/>
      <point x="-133" y="571" type="line" smooth="yes"/>
      <point x="-136" y="576"/>
      <point x="-132" y="583"/>
      <point x="-126" y="583" type="curve" smooth="yes"/>
      <point x="-35" y="583" type="line" smooth="yes"/>
      <point x="-32" y="583"/>
      <point x="-30" y="582"/>
      <point x="-28" y="579" type="curve" smooth="yes"/>
      <point x="22" y="500" type="line"/>
      <point x="16" y="504" type="line"/>
      <point x="46" y="501"/>
      <point x="79" y="496"/>
      <point x="117" y="487" type="curve" smooth="yes"/>
      <point x="119" y="486"/>
      <point x="120" y="485"/>
      <point x="122" y="484" type="curve" smooth="yes"/>
      <point x="204" y="368" type="line" smooth="yes"/>
      <point x="208" y="361"/>
      <point x="201" y="352"/>
      <point x="193" y="356" type="curve" smooth="yes"/>
      <point x="134" y="386"/>
      <point x="74" y="402"/>
      <point x="34" y="402" type="curve" smooth="yes"/>
      <point x="1" y="402"/>
      <point x="-11" y="396"/>
      <point x="0" y="381" type="curve" smooth="yes"/>
      <point x="17" y="356"/>
      <point x="69" y="341"/>
      <point x="122" y="324" type="curve" smooth="yes"/>
      <point x="202" y="299"/>
      <point x="295" y="266"/>
      <point x="354" y="184" type="curve" smooth="yes"/>
      <point x="412" y="101"/>
      <point x="386" y="50"/>
      <point x="305" y="38" type="curve"/>
      <point x="311" y="50" type="line"/>
      <point x="367" y="-36" type="line" smooth="yes"/>
      <point x="370" y="-41"/>
      <point x="366" y="-48"/>
      <point x="360" y="-48" type="curve" smooth="yes"/>
    </contour>
    <contour>
      <point x="269" y="-32" type="line"/>
      <point x="360" y="-32" type="line"/>
      <point x="353" y="-44" type="line"/>
      <point x="297" y="42" type="line" smooth="yes"/>
      <point x="294" y="47"/>
      <point x="297" y="53"/>
      <point x="303" y="54" type="curve" smooth="yes"/>
      <point x="372" y="64"/>
      <point x="392" y="103"/>
      <point x="340" y="174" type="curve" smooth="yes"/>
      <point x="285" y="254"/>
      <point x="194" y="285"/>
      <point x="118" y="308" type="curve" smooth="yes"/>
      <point x="55" y="329"/>
      <point x="7" y="342"/>
      <point x="-14" y="371" type="curve" smooth="yes"/>
      <point x="-31" y="396"/>
      <point x="-19" y="418"/>
      <point x="34" y="418" type="curve" smooth="yes"/>
      <point x="76" y="418"/>
      <point x="138" y="402"/>
      <point x="201" y="370" type="curve"/>
      <point x="190" y="358" type="line"/>
      <point x="108" y="474" type="line"/>
      <point x="113" y="471" type="line"/>
      <point x="77" y="480"/>
      <point x="44" y="485"/>
      <point x="14" y="488" type="curve" smooth="yes"/>
      <point x="12" y="488"/>
      <point x="10" y="490"/>
      <point x="8" y="492" type="curve" smooth="yes"/>
      <point x="-42" y="571" type="line"/>
      <point x="-35" y="567" type="line"/>
      <point x="-126" y="567" type="line"/>
      <point x="-119" y="579" type="line"/>
      <point x="-65" y="497" type="line" smooth="yes"/>
      <point x="-62" y="493"/>
      <point x="-65" y="486"/>
      <point x="-70" y="485" type="curve" smooth="yes"/>
      <point x="-131" y="472"/>
      <point x="-145" y="434"/>
      <point x="-99" y="370" type="curve" smooth="yes"/>
      <point x="-43" y="289"/>
      <point x="49" y="258"/>
      <point x="124" y="235" type="curve" smooth="yes"/>
      <point x="188" y="214"/>
      <point x="235" y="203"/>
      <point x="256" y="174" type="curve" smooth="yes"/>
      <point x="275" y="147"/>
      <point x="262" y="124"/>
      <point x="205" y="124" type="curve" smooth="yes"/>
      <point x="158" y="124"/>
      <point x="90" y="139"/>
      <point x="24" y="173" type="curve"/>
      <point x="35" y="185" type="line"/>
      <point x="118" y="68" type="line"/>
      <point x="113" y="71" type="line"/>
      <point x="150" y="62"/>
      <point x="185" y="56"/>
      <point x="217" y="53" type="curve" smooth="yes"/>
      <point x="219" y="53"/>
      <point x="221" y="51"/>
      <point x="223" y="49" type="curve" smooth="yes"/>
      <point x="276" y="-36" type="line"/>
    </contour>
  </outline>
</glyph>
<glyph name="percent" format="2">
  <advance width="723"/>
  <unicode hex="0025"/>
  <outline>
    <contour>
      <point x="602" y="89" type="curve" smooth="yes"/>
      <point x="569" y="89"/>
      <point x="528" y="120"/>
      <point x="491" y="170" type="curve" smooth="yes"/>
      <point x="452" y="226"/>
      <point x="456" y="260"/>
      <point x="493" y="260" type="curve" smooth="yes"/>
      <point x="526" y="260"/>
      <point x="568" y="230"/>
      <point x="603" y="180" type="curve" smooth="yes"/>
      <point x="644" y="124"/>
      <point x="639" y="89"/>
    </contour>
    <contour>
      <point x="656" y="29" type="curve" smooth="yes"/>
      <point x="732" y="29"/>
      <point x="735" y="89"/>
      <point x="677" y="170" type="curve" smooth="yes"/>
      <point x="618" y="255"/>
      <point x="519" y="320"/>
      <point x="439" y="320" type="curve" smooth="yes"/>
      <point x="364" y="320"/>
      <point x="360" y="260"/>
      <point x="417" y="180" type="curve" smooth="yes"/>
      <point x="477" y="94"/>
      <point x="577" y="29"/>
    </contour>
    <contour>
      <point x="80" y="283" type="curve" smooth="yes"/>
      <point x="47" y="283"/>
      <point x="6" y="313"/>
      <point x="-31" y="364" type="curve" smooth="yes"/>
      <point x="-70" y="421"/>
      <point x="-67" y="454"/>
      <point x="-30" y="454" type="curve" smooth="yes"/>
      <point x="3" y="454"/>
      <point x="46" y="424"/>
      <point x="82" y="374" type="curve" smooth="yes"/>
      <point x="122" y="317"/>
      <point x="117" y="283"/>
    </contour>
    <contour>
      <point x="134" y="223" type="curve" smooth="yes"/>
      <point x="209" y="223"/>
      <point x="213" y="283"/>
      <point x="155" y="364" type="curve" smooth="yes"/>
      <point x="95" y="449"/>
      <point x="-4" y="514"/>
      <point x="-83" y="514" type="curve" smooth="yes"/>
      <point x="-159" y="514"/>
      <point x="-163" y="454"/>
      <point x="-105" y="374" type="curve" smooth="yes"/>
      <point x="-45" y="288"/>
      <point x="54" y="223"/>
    </contour>
    <contour>
      <point x="264" y="23" type="line" smooth="yes"/>
      <point x="260" y="23"/>
      <point x="256" y="26"/>
      <point x="256" y="30" type="curve" smooth="yes"/>
      <point x="210" y="511" type="line" smooth="yes"/>
      <point x="210" y="516"/>
      <point x="213" y="520"/>
      <point x="218" y="520" type="curve" smooth="yes"/>
      <point x="308" y="520" type="line" smooth="yes"/>
      <point x="312" y="520"/>
      <point x="316" y="517"/>
      <point x="316" y="513" type="curve" smooth="yes"/>
      <point x="362" y="32" type="line" smooth="yes"/>
      <point x="362" y="27"/>
      <point x="359" y="23"/>
      <point x="354" y="23" type="curve" smooth="yes"/>
    </contour>
    <contour>
      <point x="602" y="105" type="curve" smooth="yes"/>
      <point x="626" y="105"/>
      <point x="617" y="134"/>
      <point x="591" y="170" type="curve" smooth="yes"/>
      <point x="560" y="214"/>
      <point x="522" y="244"/>
      <point x="493" y="244" type="curve" smooth="yes"/>
      <point x="469" y="244"/>
      <point x="479" y="216"/>
      <point x="505" y="180" type="curve" smooth="yes"/>
      <point x="536" y="136"/>
      <point x="573" y="105"/>
    </contour>
    <contour>
      <point x="656" y="13" type="curve" smooth="yes"/>
      <point x="573" y="13"/>
      <point x="467" y="80"/>
      <point x="403" y="170" type="curve" smooth="yes"/>
      <point x="338" y="264"/>
      <point x="352" y="336"/>
      <point x="439" y="336" type="curve" smooth="yes"/>
      <point x="523" y="336"/>
      <point x="628" y="269"/>
      <point x="691" y="180" type="curve" smooth="yes"/>
      <point x="757" y="85"/>
      <point x="744" y="13"/>
    </contour>
    <contour>
      <point x="80" y="299" type="curve" smooth="yes"/>
      <point x="104" y="299"/>
      <point x="95" y="327"/>
      <point x="68" y="364" type="curve" smooth="yes"/>
      <point x="38" y="408"/>
      <point x="-1" y="438"/>
      <point x="-30" y="438" type="curve" smooth="yes"/>
      <point x="-54" y="438"/>
      <point x="-43" y="410"/>
      <point x="-17" y="374" type="curve" smooth="yes"/>
      <point x="14" y="329"/>
      <point x="51" y="299"/>
    </contour>
    <contour>
      <point x="134" y="207" type="curve" smooth="yes"/>
      <point x="50" y="207"/>
      <point x="-55" y="274"/>
      <point x="-119" y="364" type="curve" smooth="yes"/>
      <point x="-185" y="458"/>
      <point x="-171" y="530"/>
      <point x="-83" y="530" type="curve" smooth="yes"/>
      <point x="0" y="530"/>
      <point x="105" y="463"/>
      <point x="169" y="374" type="curve" smooth="yes"/>
      <point x="235" y="279"/>
      <point x="221" y="207"/>
    </contour>
    <contour>
      <point x="264" y="39" type="line"/>
      <point x="354" y="39" type="line"/>
      <point x="346" y="30" type="line"/>
      <point x="300" y="511" type="line"/>
      <point x="308" y="504" type="line"/>
      <point x="218" y="504" type="line"/>
      <point x="226" y="513" type="line"/>
      <point x="272" y="32" type="line"/>
    </contour>
  </outline>
</glyph>
<glyph name="quotesingle" format="2">
  <advance width="211"/>
  <unicode hex="0027"/>
  <outline>
    <contour>
      <point x="-28" y="317" type="line"/>
      <point x="-34" y="320" type="line"/>
      <point x="37" y="320" type="line"/>
      <point x="30" y="308" type="line"/>
      <point x="-87" y="508" type="line"/>
      <point x="-80" y="504" type="line"/>
      <point x="-199" y="504" type="line"/>
      <point x="-193" y="517" type="line"/>
    </contour>
    <contour>
      <point x="-40" y="307" type="curve" smooth="yes"/>
      <point x="-205" y="507" type="line" smooth="yes"/>
      <point x="-209" y="512"/>
      <point x="-206" y="520"/>
      <point x="-199" y="520" type="curve" smooth="yes"/>
      <point x="-80" y="520" type="line" smooth="yes"/>
      <point x="-77" y="520"/>
      <point x="-75" y="518"/>
      <point x="-73" y="516" type="curve" smooth="yes"/>
      <point x="44" y="316" type="line" smooth="yes"/>
      <point x="47" y="311"/>
      <point x="43" y="304"/>
      <point x="37" y="304" type="curve" smooth="yes"/>
      <point x="-34" y="304" type="line" smooth="yes"/>
      <point x="-36" y="304"/>
      <point x="-39" y="305"/>
    </contour>
  </outline>
</glyph>
<glyph name="parenright" format="2">
  <advance width="341"/>
  <unicode hex="0029"/>
  <outline>
    <contour>
      <point x="209" y="-85" type="curve" smooth="yes"/>
      <point x="206" y="-86"/>
      <point x="202" y="-84"/>
      <point x="200" y="-82" type="curve" smooth="yes"/>
      <point x="122" y="28" type="line" smooth="yes"/>
      <point x="119" y="34"/>
      <point x="123" y="41"/>
      <point x="129" y="41" type="curve" smooth="yes"/>
      <point x="232" y="41"/>
      <point x="227" y="114"/>
      <point x="118" y="267" type="curve" smooth="yes"/>
      <point x="6" y="427"/>
      <point x="-102" y="503"/>
      <point x="-209" y="503" type="curve" smooth="yes"/>
      <point x="-212" y="503"/>
      <point x="-214" y="504"/>
      <point x="-216" y="506" type="curve" smooth="yes"/>
      <point x="-293" y="616" type="line" smooth="yes"/>
      <point x="-297" y="622"/>
      <point x="-292" y="630"/>
      <point x="-285" y="629" type="curve" smooth="yes"/>
      <point x="-138" y="604"/>
      <point x="93" y="489"/>
      <point x="244" y="277" type="curve" smooth="yes"/>
      <point x="396" y="60"/>
      <point x="322" y="-59"/>
    </contour>
    <contour>
      <point x="205" y="-69" type="line"/>
      <point x="312" y="-45"/>
      <point x="374" y="64"/>
      <point x="230" y="267" type="curve" smooth="yes"/>
      <point x="83" y="475"/>
      <point x="-144" y="588"/>
      <point x="-287" y="613" type="curve"/>
      <point x="-279" y="626" type="line"/>
      <point x="-202" y="516" type="line"/>
      <point x="-209" y="519" type="line"/>
      <point x="-98" y="519"/>
      <point x="16" y="441"/>
      <point x="132" y="277" type="curve" smooth="yes"/>
      <point x="253" y="106"/>
      <point x="244" y="25"/>
      <point x="129" y="25" type="curve"/>
      <point x="136" y="38" type="line"/>
      <point x="214" y="-72" type="line"/>
    </contour>
  </outline>
</glyph>
<glyph name="asterisk" format="2">
  <advance width="434"/>
  <unicode hex="002A"/>
  <outline>
    <contour>
      <point x="-145" y="473" type="line" smooth="yes"/>
      <point x="-149" y="476"/>
      <point x="-149" y="481"/>
      <point x="-146" y="485" type="curve" smooth="yes"/>
      <point x="-98" y="532" type="line" smooth="yes"/>
      <point x="-95" y="535"/>
      <point x="-90" y="535"/>
      <point x="-87" y="532" type="curve" smooth="yes"/>
      <point x="21" y="444" type="line"/>
      <point x="8" y="436" type="line"/>
      <point x="-9" y="524" type="line" smooth="yes"/>
      <point x="-10" y="531"/>
      <point x="-4" y="536"/>
      <point x="2" y="533" type="curve" smooth="yes"/>
      <point x="116" y="486" type="line" smooth="yes"/>
      <point x="119" y="485"/>
      <point x="121" y="483"/>
      <point x="121" y="480" type="curve" smooth="yes"/>
      <point x="127" y="395" type="line"/>
      <point x="119" y="402" type="line"/>
      <point x="217" y="406" type="line" smooth="yes"/>
      <point x="219" y="406"/>
      <point x="222" y="405"/>
      <point x="224" y="403" type="curve" smooth="yes"/>
      <point x="290" y="310" type="line" smooth="yes"/>
      <point x="293" y="304"/>
      <point x="289" y="297"/>
      <point x="283" y="297" type="curve" smooth="yes"/>
      <point x="181" y="301" type="line"/>
      <point x="186" y="315" type="line"/>
      <point x="300" y="231" type="line" smooth="yes"/>
      <point x="304" y="229"/>
      <point x="304" y="223"/>
      <point x="301" y="219" type="curve" smooth="yes"/>
      <point x="253" y="172" type="line" smooth="yes"/>
      <point x="250" y="169"/>
      <point x="245" y="169"/>
      <point x="242" y="172" type="curve" smooth="yes"/>
      <point x="131" y="262" type="line"/>
      <point x="144" y="269" type="line"/>
      <point x="160" y="179" type="line" smooth="yes"/>
      <point x="161" y="173"/>
      <point x="155" y="168"/>
      <point x="149" y="171" type="curve" smooth="yes"/>
      <point x="36" y="218" type="line" smooth="yes"/>
      <point x="33" y="219"/>
      <point x="31" y="221"/>
      <point x="31" y="224" type="curve" smooth="yes"/>
      <point x="24" y="308" type="line"/>
      <point x="32" y="301" type="line"/>
      <point x="-64" y="297" type="line" smooth="yes"/>
      <point x="-66" y="297"/>
      <point x="-69" y="298"/>
      <point x="-71" y="300" type="curve" smooth="yes"/>
      <point x="-137" y="393" type="line" smooth="yes"/>
      <point x="-140" y="399"/>
      <point x="-136" y="406"/>
      <point x="-130" y="406" type="curve" smooth="yes"/>
      <point x="-26" y="402" type="line"/>
      <point x="-31" y="388" type="line"/>
    </contour>
    <contour>
      <point x="-135" y="485" type="line"/>
      <point x="-21" y="400" type="line" smooth="yes"/>
      <point x="-15" y="396"/>
      <point x="-18" y="386"/>
      <point x="-26" y="386" type="curve" smooth="yes"/>
      <point x="-130" y="390" type="line"/>
      <point x="-123" y="403" type="line"/>
      <point x="-57" y="310" type="line"/>
      <point x="-64" y="313" type="line"/>
      <point x="32" y="317" type="line" smooth="yes"/>
      <point x="36" y="317"/>
      <point x="40" y="314"/>
      <point x="40" y="310" type="curve" smooth="yes"/>
      <point x="47" y="226" type="line"/>
      <point x="42" y="232" type="line"/>
      <point x="155" y="185" type="line"/>
      <point x="144" y="177" type="line"/>
      <point x="128" y="267" type="line" smooth="yes"/>
      <point x="127" y="274"/>
      <point x="135" y="279"/>
      <point x="141" y="274" type="curve" smooth="yes"/>
      <point x="252" y="184" type="line"/>
      <point x="241" y="184" type="line"/>
      <point x="289" y="231" type="line"/>
      <point x="290" y="219" type="line"/>
      <point x="176" y="303" type="line" smooth="yes"/>
      <point x="170" y="307"/>
      <point x="173" y="317"/>
      <point x="181" y="317" type="curve" smooth="yes"/>
      <point x="283" y="313" type="line"/>
      <point x="276" y="300" type="line"/>
      <point x="210" y="393" type="line"/>
      <point x="217" y="390" type="line"/>
      <point x="119" y="386" type="line" smooth="yes"/>
      <point x="115" y="386"/>
      <point x="111" y="389"/>
      <point x="111" y="393" type="curve" smooth="yes"/>
      <point x="105" y="478" type="line"/>
      <point x="110" y="472" type="line"/>
      <point x="-4" y="519" type="line"/>
      <point x="7" y="528" type="line"/>
      <point x="24" y="440" type="line" smooth="yes"/>
      <point x="25" y="432"/>
      <point x="17" y="427"/>
      <point x="11" y="432" type="curve" smooth="yes"/>
      <point x="-97" y="520" type="line"/>
      <point x="-86" y="520" type="line"/>
      <point x="-134" y="473" type="line"/>
    </contour>
  </outline>
</glyph>
<glyph name="period" format="2">
  <advance width="191"/>
  <unicode hex="002E"/>
  <outline>
    <contour>
      <point x="134" y="23" type="line" smooth="yes"/>
      <point x="131" y="23"/>
      <point x="129" y="24"/>
      <point x="127" y="26" type="curve" smooth="yes"/>
      <point x="46" y="140" type="line" smooth="yes"/>
      <point x="43" y="146"/>
      <point x="47" y="153"/>
      <point x="53" y="153" type="curve" smooth="yes"/>
      <point x="167" y="153" type="line" smooth="yes"/>
      <point x="170" y="153"/>
      <point x="172" y="152"/>
      <point x="174" y="150" type="curve" smooth="yes"/>
      <point x="254" y="36" type="line" smooth="yes"/>
      <point x="257" y="30"/>
      <point x="253" y="23"/>
      <point x="247" y="23" type="curve" smooth="yes"/>
    </contour>
    <contour>
      <point x="134" y="39" type="line"/>
      <point x="247" y="39" type="line"/>
      <point x="240" y="26" type="line"/>
      <point x="160" y="140" type="line"/>
      <point x="167" y="137" type="line"/>
      <point x="53" y="137" type="line"/>
      <point x="60" y="150" type="line"/>
      <point x="141" y="36" type="line"/>
    </contour>
  </outline>
</glyph>
<glyph name="slash" format="2">
  <advance width="346"/>
  <unicode hex="002F"/>
  <outline>
    <contour>
      <point x="150" y="-30" type="line" smooth="yes"/>
      <point x="147" y="-30"/>
      <point x="144" y="-28"/>
      <point x="142" y="-25" type="curve" smooth="yes"/>
      <point x="-58" y="558" type="line" smooth="yes"/>
      <point x="-59" y="564"/>
      <point x="-55" y="569"/>
      <point x="-50" y="569" type="curve" smooth="yes"/>
      <point x="49" y="569" type="line" smooth="yes"/>
      <point x="52" y="569"/>
      <point x="55" y="567"/>
      <point x="57" y="564" type="curve" smooth="yes"/>
      <point x="258" y="-19" type="line" smooth="yes"/>
      <point x="259" y="-25"/>
      <point x="255" y="-30"/>
      <point x="250" y="-30" type="curve" smooth="yes"/>
    </contour>
    <contour>
      <point x="150" y="-14" type="line"/>
      <point x="250" y="-14" type="line"/>
      <point x="242" y="-25" type="line"/>
      <point x="41" y="558" type="line"/>
      <point x="49" y="553" type="line"/>
      <point x="-50" y="553" type="line"/>
      <point x="-42" y="564" type="line"/>
      <point x="158" y="-19" type="line"/>
    </contour>
  </outline>
</glyph>
<glyph name="one" format="2">
  <advance width="278"/>
  <unicode hex="0031"/>
  <outline>
    <contour>
      <point x="184" y="23" type="line" smooth="yes"/>
      <point x="180" y="23"/>
      <point x="176" y="26"/>
      <point x="176" y="31" type="curve" smooth="yes"/>
      <point x="175" y="59"/>
      <point x="150" y="101"/>
      <point x="28" y="273" type="curve" smooth="yes"/>
      <point x="-11" y="329"/>
      <point x="-40" y="370"/>
      <point x="-64" y="402" type="curve"/>
      <point x="-56" y="399" type="line"/>
      <point x="-88" y="389"/>
      <point x="-102" y="377"/>
      <point x="-112" y="358" type="curve" smooth="yes"/>
      <point x="-115" y="353"/>
      <point x="-122" y="353"/>
      <point x="-126" y="357" type="curve" smooth="yes"/>
      <point x="-207" y="471" type="line" smooth="yes"/>
      <point x="-210" y="476"/>
      <point x="-207" y="482"/>
      <point x="-202" y="484" type="curve" smooth="yes"/>
      <point x="-25" y="529" type="line" smooth="yes"/>
      <point x="-21" y="530"/>
      <point x="-18" y="528"/>
      <point x="-16" y="525" type="curve" smooth="yes"/>
      <point x="4" y="485"/>
      <point x="25" y="449"/>
      <point x="144" y="283" type="curve" smooth="yes"/>
      <point x="270" y="104"/>
      <point x="301" y="65"/>
      <point x="335" y="37" type="curve" smooth="yes"/>
      <point x="341" y="32"/>
      <point x="338" y="23"/>
      <point x="330" y="23" type="curve" smooth="yes"/>
    </contour>
    <contour>
      <point x="184" y="39" type="line"/>
      <point x="330" y="39" type="line"/>
      <point x="325" y="25" type="line"/>
      <point x="291" y="53"/>
      <point x="258" y="92"/>
      <point x="130" y="273" type="curve" smooth="yes"/>
      <point x="11" y="441"/>
      <point x="-10" y="477"/>
      <point x="-30" y="517" type="curve"/>
      <point x="-21" y="513" type="line"/>
      <point x="-198" y="468" type="line"/>
      <point x="-193" y="481" type="line"/>
      <point x="-112" y="367" type="line"/>
      <point x="-126" y="366" type="line"/>
      <point x="-114" y="387"/>
      <point x="-98" y="403"/>
      <point x="-60" y="415" type="curve" smooth="yes"/>
      <point x="-57" y="416"/>
      <point x="-54" y="415"/>
      <point x="-52" y="412" type="curve" smooth="yes"/>
      <point x="-28" y="380"/>
      <point x="1" y="339"/>
      <point x="42" y="283" type="curve" smooth="yes"/>
      <point x="174" y="95"/>
      <point x="191" y="62"/>
      <point x="192" y="31" type="curve"/>
    </contour>
  </outline>
</glyph>
<glyph name="two" format="2">
  <advance width="367"/>
  <unicode hex="0032"/>
  <outline>
    <contour>
      <point x="114" y="23" type="line" smooth="yes"/>
      <point x="111" y="23"/>
      <point x="108" y="25"/>
      <point x="107" y="27" type="curve" smooth="yes"/>
      <point x="48" y="137"/>
      <point x="64" y="203"/>
      <point x="77" y="256" type="curve" smooth="yes"/>
      <point x="88" y="297"/>
      <point x="99" y="329"/>
      <point x="68" y="371" type="curve" smooth="yes"/>
      <point x="47" y="402"/>
      <point x="13" y="424"/>
      <point x="-32" y="424" type="curve" smooth="yes"/>
      <point x="-68" y="424"/>
      <point x="-97" y="407"/>
      <point x="-113" y="380" type="curve" smooth="yes"/>
      <point x="-116" y="375"/>
      <point x="-123" y="375"/>
      <point x="-127" y="379" type="curve" smooth="yes"/>
      <point x="-209" y="495" type="line" smooth="yes"/>
      <point x="-212" y="500"/>
      <point x="-210" y="506"/>
      <point x="-205" y="507" type="curve" smooth="yes"/>
      <point x="-170" y="521"/>
      <point x="-132" y="527"/>
      <point x="-89" y="527" type="curve" smooth="yes"/>
      <point x="16" y="527"/>
      <point x="122" y="477"/>
      <point x="185" y="389" type="curve" smooth="yes"/>
      <point x="229" y="324"/>
      <point x="226" y="280"/>
      <point x="214" y="238" type="curve" smooth="yes"/>
      <point x="203" y="203"/>
      <point x="188" y="167"/>
      <point x="192" y="120" type="curve"/>
      <point x="184" y="127" type="line"/>
      <point x="295" y="125"/>
      <point x="333" y="134"/>
      <point x="344" y="152" type="curve" smooth="yes"/>
      <point x="347" y="157"/>
      <point x="355" y="157"/>
      <point x="358" y="152" type="curve" smooth="yes"/>
      <point x="427" y="35" type="line" smooth="yes"/>
      <point x="430" y="30"/>
      <point x="426" y="23"/>
      <point x="420" y="23" type="curve" smooth="yes"/>
    </contour>
    <contour>
      <point x="114" y="39" type="line"/>
      <point x="420" y="39" type="line"/>
      <point x="413" y="27" type="line"/>
      <point x="344" y="144" type="line"/>
      <point x="358" y="144" type="line"/>
      <point x="345" y="122"/>
      <point x="315" y="109"/>
      <point x="184" y="111" type="curve" smooth="yes"/>
      <point x="180" y="111"/>
      <point x="176" y="114"/>
      <point x="176" y="118" type="curve" smooth="yes"/>
      <point x="172" y="169"/>
      <point x="187" y="205"/>
      <point x="198" y="242" type="curve" smooth="yes"/>
      <point x="210" y="282"/>
      <point x="213" y="320"/>
      <point x="171" y="379" type="curve" smooth="yes"/>
      <point x="112" y="463"/>
      <point x="10" y="511"/>
      <point x="-89" y="511" type="curve" smooth="yes"/>
      <point x="-130" y="511"/>
      <point x="-166" y="505"/>
      <point x="-199" y="493" type="curve"/>
      <point x="-195" y="505" type="line"/>
      <point x="-113" y="389" type="line"/>
      <point x="-127" y="388" type="line"/>
      <point x="-109" y="419"/>
      <point x="-74" y="440"/>
      <point x="-32" y="440" type="curve" smooth="yes"/>
      <point x="19" y="440"/>
      <point x="57" y="416"/>
      <point x="82" y="381" type="curve" smooth="yes"/>
      <point x="115" y="333"/>
      <point x="104" y="297"/>
      <point x="93" y="252" type="curve" smooth="yes"/>
      <point x="80" y="201"/>
      <point x="64" y="139"/>
      <point x="121" y="35" type="curve"/>
    </contour>
  </outline>
</glyph>
<glyph name="three" format="2">
  <advance width="369"/>
  <unicode hex="0033"/>
  <outline>
    <contour>
      <point x="200" y="117" type="curve" smooth="yes"/>
      <point x="246" y="117"/>
      <point x="254" y="134"/>
      <point x="229" y="167" type="curve" smooth="yes"/>
      <point x="195" y="217"/>
      <point x="131" y="246"/>
      <point x="5" y="243" type="curve" smooth="yes"/>
      <point x="1" y="243"/>
      <point x="-3" y="246"/>
      <point x="-3" y="251" type="curve" smooth="yes"/>
      <point x="-4" y="422" type="line"/>
      <point x="4" y="414" type="line"/>
      <point x="-74" y="412"/>
      <point x="-102" y="406"/>
      <point x="-115" y="395" type="curve" smooth="yes"/>
      <point x="-118" y="392"/>
      <point x="-124" y="393"/>
      <point x="-127" y="396" type="curve" smooth="yes"/>
      <point x="-205" y="507" type="line" smooth="yes"/>
      <point x="-208" y="513"/>
      <point x="-204" y="520"/>
      <point x="-198" y="520" type="curve" smooth="yes"/>
      <point x="107" y="520" type="line" smooth="yes"/>
      <point x="111" y="520"/>
      <point x="115" y="516"/>
      <point x="115" y="512" type="curve" smooth="yes"/>
      <point x="117" y="324" type="line"/>
      <point x="111" y="332" type="line"/>
      <point x="204" y="313"/>
      <point x="293" y="257"/>
      <point x="347" y="183" type="curve" smooth="yes"/>
      <point x="442" y="46"/>
      <point x="327" y="-24"/>
      <point x="127" y="33" type="curve" smooth="yes"/>
      <point x="125" y="34"/>
      <point x="124" y="35"/>
      <point x="122" y="36" type="curve" smooth="yes"/>
      <point x="40" y="151" type="line" smooth="yes"/>
      <point x="36" y="158"/>
      <point x="43" y="167"/>
      <point x="50" y="163" type="curve" smooth="yes"/>
      <point x="109" y="135"/>
      <point x="160" y="117"/>
    </contour>
    <contour>
      <point x="200" y="101" type="curve" smooth="yes"/>
      <point x="158" y="101"/>
      <point x="105" y="119"/>
      <point x="44" y="149" type="curve"/>
      <point x="54" y="161" type="line"/>
      <point x="136" y="46" type="line"/>
      <point x="131" y="49" type="line"/>
      <point x="313" y="-4"/>
      <point x="420" y="50"/>
      <point x="333" y="173" type="curve" smooth="yes"/>
      <point x="283" y="245"/>
      <point x="196" y="299"/>
      <point x="107" y="316" type="curve" smooth="yes"/>
      <point x="104" y="317"/>
      <point x="101" y="320"/>
      <point x="101" y="324" type="curve" smooth="yes"/>
      <point x="99" y="512" type="line"/>
      <point x="107" y="504" type="line"/>
      <point x="-198" y="504" type="line"/>
      <point x="-191" y="517" type="line"/>
      <point x="-113" y="406" type="line"/>
      <point x="-125" y="407" type="line"/>
      <point x="-110" y="420"/>
      <point x="-85" y="428"/>
      <point x="4" y="430" type="curve" smooth="yes"/>
      <point x="8" y="430"/>
      <point x="12" y="427"/>
      <point x="12" y="422" type="curve" smooth="yes"/>
      <point x="13" y="251" type="line"/>
      <point x="5" y="259" type="line"/>
      <point x="139" y="262"/>
      <point x="206" y="229"/>
      <point x="243" y="177" type="curve" smooth="yes"/>
      <point x="274" y="132"/>
      <point x="260" y="101"/>
    </contour>
  </outline>
</glyph>
<glyph name="four" format="2">
  <advance width="409"/>
  <unicode hex="0034"/>
  <outline>
    <contour>
      <point x="301" y="23" type="line" smooth="yes"/>
      <point x="297" y="23"/>
      <point x="294" y="26"/>
      <point x="293" y="29" type="curve" smooth="yes"/>
      <point x="289" y="48"/>
      <point x="278" y="71"/>
      <point x="234" y="136" type="curve"/>
      <point x="241" y="132" type="line"/>
      <point x="14" y="132" type="line" smooth="yes"/>
      <point x="10" y="132"/>
      <point x="7" y="135"/>
      <point x="6" y="139" type="curve" smooth="yes"/>
      <point x="-60" y="511" type="line" smooth="yes"/>
      <point x="-61" y="516"/>
      <point x="-57" y="520"/>
      <point x="-52" y="520" type="curve" smooth="yes"/>
      <point x="98" y="520" type="line" smooth="yes"/>
      <point x="102" y="520"/>
      <point x="105" y="517"/>
      <point x="106" y="514" type="curve" smooth="yes"/>
      <point x="113" y="483"/>
      <point x="150" y="425"/>
      <point x="291" y="227" type="curve"/>
      <point x="284" y="230" type="line"/>
      <point x="316" y="232"/>
      <point x="327" y="235"/>
      <point x="336" y="243" type="curve" smooth="yes"/>
      <point x="339" y="246"/>
      <point x="345" y="246"/>
      <point x="348" y="242" type="curve" smooth="yes"/>
      <point x="427" y="131" type="line" smooth="yes"/>
      <point x="431" y="124"/>
      <point x="425" y="116"/>
      <point x="418" y="118" type="curve" smooth="yes"/>
      <point x="396" y="125"/>
      <point x="381" y="130"/>
      <point x="345" y="131" type="curve"/>
      <point x="351" y="144" type="line"/>
      <point x="400" y="78"/>
      <point x="421" y="56"/>
      <point x="443" y="37" type="curve" smooth="yes"/>
      <point x="449" y="32"/>
      <point x="445" y="23"/>
      <point x="438" y="23" type="curve" smooth="yes"/>
    </contour>
    <contour>
      <point x="106" y="223" type="line"/>
      <point x="98" y="229" type="line"/>
      <point x="186" y="229" type="line"/>
      <point x="179" y="216" type="line"/>
      <point x="140" y="272"/>
      <point x="89" y="344"/>
      <point x="58" y="386" type="curve"/>
      <point x="72" y="393" type="line"/>
    </contour>
    <contour>
      <point x="301" y="39" type="line"/>
      <point x="438" y="39" type="line"/>
      <point x="433" y="25" type="line"/>
      <point x="411" y="44"/>
      <point x="388" y="68"/>
      <point x="339" y="134" type="curve" smooth="yes"/>
      <point x="335" y="140"/>
      <point x="339" y="147"/>
      <point x="345" y="147" type="curve" smooth="yes"/>
      <point x="383" y="146"/>
      <point x="400" y="141"/>
      <point x="422" y="134" type="curve"/>
      <point x="413" y="121" type="line"/>
      <point x="334" y="232" type="line"/>
      <point x="346" y="231" type="line"/>
      <point x="335" y="221"/>
      <point x="324" y="216"/>
      <point x="284" y="214" type="curve" smooth="yes"/>
      <point x="282" y="214"/>
      <point x="279" y="215"/>
      <point x="277" y="217" type="curve" smooth="yes"/>
      <point x="132" y="421"/>
      <point x="97" y="479"/>
      <point x="90" y="510" type="curve"/>
      <point x="98" y="504" type="line"/>
      <point x="-52" y="504" type="line"/>
      <point x="-44" y="513" type="line"/>
      <point x="22" y="141" type="line"/>
      <point x="14" y="148" type="line"/>
      <point x="241" y="148" type="line" smooth="yes"/>
      <point x="244" y="148"/>
      <point x="246" y="147"/>
      <point x="248" y="144" type="curve" smooth="yes"/>
      <point x="294" y="75"/>
      <point x="305" y="52"/>
      <point x="309" y="33" type="curve"/>
    </contour>
    <contour>
      <point x="90" y="219" type="curve" smooth="yes"/>
      <point x="56" y="389" type="line" smooth="yes"/>
      <point x="54" y="398"/>
      <point x="65" y="403"/>
      <point x="70" y="396" type="curve" smooth="yes"/>
      <point x="101" y="354"/>
      <point x="152" y="282"/>
      <point x="193" y="226" type="curve" smooth="yes"/>
      <point x="196" y="220"/>
      <point x="193" y="213"/>
      <point x="186" y="213" type="curve" smooth="yes"/>
      <point x="98" y="213" type="line" smooth="yes"/>
      <point x="94" y="213"/>
      <point x="91" y="216"/>
    </contour>
  </outline>
</glyph>
<glyph name="five" format="2">
  <advance width="373"/>
  <unicode hex="0035"/>
  <outline>
    <contour>
      <point x="-5" y="228" type="curve" smooth="yes"/>
      <point x="-8" y="227"/>
      <point x="-12" y="229"/>
      <point x="-14" y="232" type="curve" smooth="yes"/>
      <point x="-184" y="508" type="line" smooth="yes"/>
      <point x="-187" y="513"/>
      <point x="-183" y="520"/>
      <point x="-177" y="520" type="curve" smooth="yes"/>
      <point x="73" y="520" type="line" smooth="yes"/>
      <point x="76" y="520"/>
      <point x="78" y="519"/>
      <point x="80" y="517" type="curve" smooth="yes"/>
      <point x="158" y="406" type="line" smooth="yes"/>
      <point x="162" y="399"/>
      <point x="156" y="391"/>
      <point x="148" y="394" type="curve" smooth="yes"/>
      <point x="117" y="405"/>
      <point x="75" y="412"/>
      <point x="-29" y="413" type="curve"/>
      <point x="-22" y="425" type="line"/>
      <point x="32" y="337" type="line"/>
      <point x="25" y="341" type="line"/>
      <point x="153" y="346"/>
      <point x="268" y="287"/>
      <point x="340" y="187" type="curve" smooth="yes"/>
      <point x="440" y="44"/>
      <point x="325" y="-24"/>
      <point x="122" y="33" type="curve" smooth="yes"/>
      <point x="120" y="34"/>
      <point x="119" y="35"/>
      <point x="117" y="36" type="curve" smooth="yes"/>
      <point x="35" y="151" type="line" smooth="yes"/>
      <point x="31" y="158"/>
      <point x="38" y="167"/>
      <point x="45" y="163" type="curve" smooth="yes"/>
      <point x="104" y="135"/>
      <point x="156" y="117"/>
      <point x="197" y="117" type="curve" smooth="yes"/>
      <point x="242" y="117"/>
      <point x="246" y="137"/>
      <point x="217" y="177" type="curve" smooth="yes"/>
      <point x="183" y="228"/>
      <point x="112" y="259"/>
    </contour>
    <contour>
      <point x="-9" y="244" type="line"/>
      <point x="116" y="277"/>
      <point x="193" y="240"/>
      <point x="231" y="187" type="curve" smooth="yes"/>
      <point x="268" y="135"/>
      <point x="256" y="101"/>
      <point x="197" y="101" type="curve" smooth="yes"/>
      <point x="154" y="101"/>
      <point x="100" y="119"/>
      <point x="39" y="149" type="curve"/>
      <point x="49" y="161" type="line"/>
      <point x="131" y="46" type="line"/>
      <point x="126" y="49" type="line"/>
      <point x="311" y="-4"/>
      <point x="418" y="48"/>
      <point x="326" y="177" type="curve" smooth="yes"/>
      <point x="258" y="273"/>
      <point x="149" y="330"/>
      <point x="25" y="325" type="curve" smooth="yes"/>
      <point x="22" y="325"/>
      <point x="20" y="326"/>
      <point x="18" y="329" type="curve" smooth="yes"/>
      <point x="-36" y="417" type="line" smooth="yes"/>
      <point x="-39" y="422"/>
      <point x="-35" y="429"/>
      <point x="-29" y="429" type="curve" smooth="yes"/>
      <point x="77" y="428"/>
      <point x="121" y="421"/>
      <point x="154" y="408" type="curve"/>
      <point x="144" y="396" type="line"/>
      <point x="66" y="507" type="line"/>
      <point x="73" y="504" type="line"/>
      <point x="-177" y="504" type="line"/>
      <point x="-170" y="516" type="line"/>
      <point x="0" y="240" type="line"/>
    </contour>
  </outline>
</glyph>
<glyph name="six" format="2">
  <advance width="404"/>
  <unicode hex="0036"/>
  <outline>
    <contour>
      <point x="203" y="390" type="line" smooth="yes"/>
      <point x="207" y="383"/>
      <point x="200" y="374"/>
      <point x="193" y="378" type="curve" smooth="yes"/>
      <point x="133" y="406"/>
      <point x="81" y="422"/>
      <point x="45" y="422" type="curve" smooth="yes"/>
      <point x="-5" y="422"/>
      <point x="-18" y="397"/>
      <point x="38" y="311" type="curve"/>
      <point x="24" y="310" type="line"/>
      <point x="36" y="336"/>
      <point x="65" y="350"/>
      <point x="104" y="350" type="curve" smooth="yes"/>
      <point x="183" y="350"/>
      <point x="298" y="298"/>
      <point x="375" y="191" type="curve" smooth="yes"/>
      <point x="445" y="91"/>
      <point x="425" y="10"/>
      <point x="311" y="10" type="curve" smooth="yes"/>
      <point x="201" y="10"/>
      <point x="69" y="90"/>
      <point x="-45" y="250" type="curve" smooth="yes"/>
      <point x="-207" y="480"/>
      <point x="-124" y="571"/>
      <point x="116" y="508" type="curve" smooth="yes"/>
      <point x="118" y="507"/>
      <point x="119" y="506"/>
      <point x="121" y="505" type="curve" smooth="yes"/>
    </contour>
    <contour>
      <point x="249" y="114" type="curve" smooth="yes"/>
      <point x="284" y="114"/>
      <point x="285" y="140"/>
      <point x="258" y="177" type="curve" smooth="yes"/>
      <point x="228" y="220"/>
      <point x="181" y="250"/>
      <point x="142" y="250" type="curve" smooth="yes"/>
      <point x="107" y="250"/>
      <point x="106" y="226"/>
      <point x="133" y="189" type="curve" smooth="yes"/>
      <point x="163" y="145"/>
      <point x="210" y="114"/>
    </contour>
    <contour>
      <point x="189" y="380" type="line"/>
      <point x="107" y="495" type="line"/>
      <point x="112" y="492" type="line"/>
      <point x="-114" y="551"/>
      <point x="-185" y="476"/>
      <point x="-31" y="260" type="curve" smooth="yes"/>
      <point x="79" y="104"/>
      <point x="205" y="26"/>
      <point x="311" y="26" type="curve" smooth="yes"/>
      <point x="411" y="26"/>
      <point x="423" y="93"/>
      <point x="361" y="181" type="curve" smooth="yes"/>
      <point x="288" y="284"/>
      <point x="179" y="334"/>
      <point x="104" y="334" type="curve" smooth="yes"/>
      <point x="73" y="334"/>
      <point x="48" y="324"/>
      <point x="38" y="304" type="curve" smooth="yes"/>
      <point x="36" y="298"/>
      <point x="28" y="297"/>
      <point x="24" y="303" type="curve" smooth="yes"/>
      <point x="-42" y="405"/>
      <point x="-15" y="438"/>
      <point x="45" y="438" type="curve" smooth="yes"/>
      <point x="83" y="438"/>
      <point x="137" y="422"/>
      <point x="199" y="392" type="curve"/>
    </contour>
    <contour>
      <point x="249" y="98" type="curve" smooth="yes"/>
      <point x="206" y="98"/>
      <point x="153" y="131"/>
      <point x="119" y="179" type="curve" smooth="yes"/>
      <point x="84" y="230"/>
      <point x="95" y="266"/>
      <point x="142" y="266" type="curve" smooth="yes"/>
      <point x="185" y="266"/>
      <point x="238" y="234"/>
      <point x="272" y="187" type="curve" smooth="yes"/>
      <point x="307" y="136"/>
      <point x="296" y="98"/>
    </contour>
  </outline>
</glyph>
<glyph name="seven" format="2">
  <advance width="355"/>
  <unicode hex="0037"/>
  <outline>
    <contour>
      <point x="145" y="23" type="line" smooth="yes"/>
      <point x="140" y="23"/>
      <point x="137" y="27"/>
      <point x="137" y="32" type="curve" smooth="yes"/>
      <point x="140" y="62"/>
      <point x="132" y="104"/>
      <point x="76" y="276" type="curve" smooth="yes"/>
      <point x="61" y="323"/>
      <point x="44" y="372"/>
      <point x="29" y="421" type="curve"/>
      <point x="37" y="415" type="line"/>
      <point x="-90" y="415"/>
      <point x="-123" y="407"/>
      <point x="-138" y="395" type="curve" smooth="yes"/>
      <point x="-142" y="392"/>
      <point x="-147" y="393"/>
      <point x="-150" y="396" type="curve" smooth="yes"/>
      <point x="-228" y="507" type="line" smooth="yes"/>
      <point x="-231" y="513"/>
      <point x="-227" y="520"/>
      <point x="-221" y="520" type="curve" smooth="yes"/>
      <point x="110" y="520" type="line" smooth="yes"/>
      <point x="113" y="520"/>
      <point x="117" y="518"/>
      <point x="118" y="514" type="curve" smooth="yes"/>
      <point x="143" y="436"/>
      <point x="171" y="344"/>
      <point x="191" y="280" type="curve" smooth="yes"/>
      <point x="245" y="107"/>
      <point x="266" y="70"/>
      <point x="301" y="37" type="curve" smooth="yes"/>
      <point x="307" y="32"/>
      <point x="303" y="23"/>
      <point x="296" y="23" type="curve" smooth="yes"/>
    </contour>
    <contour>
      <point x="145" y="39" type="line"/>
      <point x="296" y="39" type="line"/>
      <point x="291" y="25" type="line"/>
      <point x="254" y="60"/>
      <point x="231" y="97"/>
      <point x="175" y="276" type="curve" smooth="yes"/>
      <point x="156" y="337"/>
      <point x="129" y="428"/>
      <point x="102" y="510" type="curve"/>
      <point x="110" y="504" type="line"/>
      <point x="-221" y="504" type="line"/>
      <point x="-214" y="517" type="line"/>
      <point x="-136" y="406" type="line"/>
      <point x="-148" y="407" type="line"/>
      <point x="-131" y="421"/>
      <point x="-103" y="431"/>
      <point x="37" y="431" type="curve" smooth="yes"/>
      <point x="41" y="431"/>
      <point x="44" y="429"/>
      <point x="45" y="425" type="curve" smooth="yes"/>
      <point x="60" y="375"/>
      <point x="77" y="327"/>
      <point x="92" y="280" type="curve" smooth="yes"/>
      <point x="150" y="104"/>
      <point x="156" y="62"/>
      <point x="153" y="30" type="curve"/>
    </contour>
  </outline>
</glyph>
<glyph name="eight" format="2">
  <advance width="402"/>
  <unicode hex="0038"/>
  <outline>
    <contour>
      <point x="306" y="10" type="curve" smooth="yes"/>
      <point x="199" y="10"/>
      <point x="82" y="72"/>
      <point x="19" y="159" type="curve" smooth="yes"/>
      <point x="-23" y="220"/>
      <point x="-24" y="264"/>
      <point x="2" y="290" type="curve"/>
      <point x="5" y="277" type="line"/>
      <point x="-46" y="299"/>
      <point x="-91" y="335"/>
      <point x="-124" y="381" type="curve" smooth="yes"/>
      <point x="-183" y="466"/>
      <point x="-152" y="532"/>
      <point x="-52" y="532" type="curve" smooth="yes"/>
      <point x="43" y="532"/>
      <point x="156" y="472"/>
      <point x="212" y="391" type="curve" smooth="yes"/>
      <point x="249" y="341"/>
      <point x="252" y="303"/>
      <point x="233" y="279" type="curve"/>
      <point x="230" y="291" type="line"/>
      <point x="288" y="267"/>
      <point x="344" y="226"/>
      <point x="384" y="169" type="curve" smooth="yes"/>
      <point x="447" y="78"/>
      <point x="415" y="10"/>
    </contour>
    <contour>
      <point x="91" y="330" type="curve" smooth="yes"/>
      <point x="118" y="330"/>
      <point x="120" y="347"/>
      <point x="100" y="374" type="curve" smooth="yes"/>
      <point x="78" y="406"/>
      <point x="41" y="429"/>
      <point x="10" y="429" type="curve" smooth="yes"/>
      <point x="-18" y="429"/>
      <point x="-21" y="411"/>
      <point x="-1" y="384" type="curve" smooth="yes"/>
      <point x="21" y="352"/>
      <point x="59" y="330"/>
    </contour>
    <contour>
      <point x="244" y="114" type="curve" smooth="yes"/>
      <point x="276" y="114"/>
      <point x="281" y="136"/>
      <point x="256" y="170" type="curve" smooth="yes"/>
      <point x="229" y="210"/>
      <point x="183" y="235"/>
      <point x="147" y="235" type="curve" smooth="yes"/>
      <point x="114" y="235"/>
      <point x="106" y="215"/>
      <point x="132" y="180" type="curve" smooth="yes"/>
      <point x="159" y="141"/>
      <point x="207" y="114"/>
    </contour>
    <contour>
      <point x="306" y="26" type="curve" smooth="yes"/>
      <point x="401" y="26"/>
      <point x="427" y="80"/>
      <point x="370" y="159" type="curve" smooth="yes"/>
      <point x="332" y="214"/>
      <point x="280" y="253"/>
      <point x="224" y="277" type="curve" smooth="yes"/>
      <point x="219" y="279"/>
      <point x="217" y="285"/>
      <point x="221" y="289" type="curve" smooth="yes"/>
      <point x="236" y="309"/>
      <point x="229" y="341"/>
      <point x="200" y="381" type="curve" smooth="yes"/>
      <point x="146" y="458"/>
      <point x="37" y="516"/>
      <point x="-52" y="516" type="curve" smooth="yes"/>
      <point x="-139" y="516"/>
      <point x="-163" y="464"/>
      <point x="-110" y="391" type="curve" smooth="yes"/>
      <point x="-79" y="347"/>
      <point x="-36" y="313"/>
      <point x="11" y="291" type="curve" smooth="yes"/>
      <point x="16" y="289"/>
      <point x="18" y="282"/>
      <point x="14" y="278" type="curve" smooth="yes"/>
      <point x="-8" y="257"/>
      <point x="-3" y="219"/>
      <point x="33" y="169" type="curve" smooth="yes"/>
      <point x="92" y="86"/>
      <point x="205" y="26"/>
    </contour>
    <contour>
      <point x="91" y="314" type="curve" smooth="yes"/>
      <point x="55" y="314"/>
      <point x="11" y="338"/>
      <point x="-15" y="374" type="curve" smooth="yes"/>
      <point x="-43" y="414"/>
      <point x="-30" y="445"/>
      <point x="10" y="445" type="curve" smooth="yes"/>
      <point x="45" y="445"/>
      <point x="88" y="420"/>
      <point x="114" y="384" type="curve" smooth="yes"/>
      <point x="142" y="343"/>
      <point x="130" y="314"/>
    </contour>
    <contour>
      <point x="244" y="98" type="curve" smooth="yes"/>
      <point x="203" y="98"/>
      <point x="149" y="127"/>
      <point x="118" y="170" type="curve" smooth="yes"/>
      <point x="84" y="219"/>
      <point x="102" y="251"/>
      <point x="147" y="251" type="curve" smooth="yes"/>
      <point x="187" y="251"/>
      <point x="239" y="224"/>
      <point x="270" y="180" type="curve" smooth="yes"/>
      <point x="303" y="132"/>
      <point x="288" y="98"/>
    </contour>
  </outline>
</glyph>
<glyph name="colon" format="2">
  <advance width="191"/>
  <unicode hex="003A"/>
  <outline>
    <contour>
      <point x="134" y="23" type="line" smooth="yes"/>
      <point x="131" y="23"/>
      <point x="129" y="24"/>
      <point x="127" y="26" type="curve" smooth="yes"/>
      <point x="46" y="140" type="line" smooth="yes"/>
      <point x="43" y="146"/>
      <point x="47" y="153"/>
      <point x="53" y="153" type="curve" smooth="yes"/>
      <point x="167" y="153" type="line" smooth="yes"/>
      <point x="170" y="153"/>
      <point x="172" y="152"/>
      <point x="174" y="150" type="curve" smooth="yes"/>
      <point x="254" y="36" type="line" smooth="yes"/>
      <point x="257" y="30"/>
      <point x="253" y="23"/>
      <point x="247" y="23" type="curve" smooth="yes"/>
    </contour>
    <contour>
      <point x="-47" y="279" type="line" smooth="yes"/>
      <point x="-50" y="279"/>
      <point x="-52" y="280"/>
      <point x="-54" y="282" type="curve" smooth="yes"/>
      <point x="-135" y="396" type="line" smooth="yes"/>
      <point x="-138" y="402"/>
      <point x="-134" y="409"/>
      <point x="-128" y="409" type="curve" smooth="yes"/>
      <point x="-14" y="409" type="line" smooth="yes"/>
      <point x="-11" y="409"/>
      <point x="-9" y="408"/>
      <point x="-7" y="406" type="curve" smooth="yes"/>
      <point x="73" y="292" type="line" smooth="yes"/>
      <point x="76" y="286"/>
      <point x="72" y="279"/>
      <point x="66" y="279" type="curve" smooth="yes"/>
    </contour>
    <contour>
      <point x="134" y="39" type="line"/>
      <point x="247" y="39" type="line"/>
      <point x="240" y="26" type="line"/>
      <point x="160" y="140" type="line"/>
      <point x="167" y="137" type="line"/>
      <point x="53" y="137" type="line"/>
      <point x="60" y="150" type="line"/>
      <point x="141" y="36" type="line"/>
    </contour>
    <contour>
      <point x="-47" y="295" type="line"/>
      <point x="66" y="295" type="line"/>
      <point x="59" y="282" type="line"/>
      <point x="-21" y="396" type="line"/>
      <point x="-14" y="393" type="line"/>
      <point x="-128" y="393" type="line"/>
      <point x="-121" y="406" type="line"/>
      <point x="-40" y="292" type="line"/>
    </contour>
  </outline>
</glyph>
<glyph name="greater" format="2">
  <advance width="317"/>
  <unicode hex="003E"/>
  <outline>
    <contour>
      <point x="253" y="256" type="line" smooth="yes"/>
      <point x="258" y="254"/>
      <point x="260" y="248"/>
      <point x="256" y="244" type="curve" smooth="yes"/>
      <point x="98" y="71" type="line" smooth="yes"/>
      <point x="94" y="67"/>
      <point x="88" y="67"/>
      <point x="85" y="71" type="curve" smooth="yes"/>
      <point x="7" y="181" type="line" smooth="yes"/>
      <point x="5" y="185"/>
      <point x="6" y="189"/>
      <point x="9" y="192" type="curve" smooth="yes"/>
      <point x="79" y="254" type="line"/>
      <point x="81" y="241" type="line"/>
      <point x="-77" y="304" type="line" smooth="yes"/>
      <point x="-78" y="304"/>
      <point x="-80" y="305"/>
      <point x="-81" y="306" type="curve" smooth="yes"/>
      <point x="-160" y="418" type="line" smooth="yes"/>
      <point x="-164" y="425"/>
      <point x="-157" y="434"/>
      <point x="-150" y="430" type="curve" smooth="yes"/>
    </contour>
    <contour>
      <point x="247" y="242" type="line"/>
      <point x="-156" y="416" type="line"/>
      <point x="-146" y="428" type="line"/>
      <point x="-67" y="316" type="line"/>
      <point x="-71" y="318" type="line"/>
      <point x="87" y="255" type="line" smooth="yes"/>
      <point x="92" y="253"/>
      <point x="94" y="246"/>
      <point x="89" y="242" type="curve" smooth="yes"/>
      <point x="19" y="180" type="line"/>
      <point x="21" y="191" type="line"/>
      <point x="99" y="81" type="line"/>
      <point x="86" y="81" type="line"/>
      <point x="244" y="254" type="line"/>
    </contour>
  </outline>
</glyph>
<glyph name="question" format="2">
  <advance width="369"/>
  <unicode hex="003F"/>
  <outline>
    <contour>
      <point x="93" y="205" type="line" smooth="yes"/>
      <point x="91" y="205"/>
      <point x="88" y="206"/>
      <point x="87" y="208" type="curve" smooth="yes"/>
      <point x="36" y="270"/>
      <point x="52" y="302"/>
      <point x="67" y="328" type="curve" smooth="yes"/>
      <point x="78" y="345"/>
      <point x="90" y="358"/>
      <point x="74" y="380" type="curve" smooth="yes"/>
      <point x="56" y="406"/>
      <point x="17" y="422"/>
      <point x="-25" y="422" type="curve" smooth="yes"/>
      <point x="-68" y="422"/>
      <point x="-97" y="404"/>
      <point x="-114" y="376" type="curve" smooth="yes"/>
      <point x="-117" y="371"/>
      <point x="-124" y="371"/>
      <point x="-128" y="375" type="curve" smooth="yes"/>
      <point x="-213" y="496" type="line" smooth="yes"/>
      <point x="-216" y="501"/>
      <point x="-214" y="507"/>
      <point x="-209" y="509" type="curve" smooth="yes"/>
      <point x="-172" y="522"/>
      <point x="-129" y="528"/>
      <point x="-88" y="528" type="curve" smooth="yes"/>
      <point x="26" y="528"/>
      <point x="130" y="483"/>
      <point x="192" y="396" type="curve" smooth="yes"/>
      <point x="239" y="329"/>
      <point x="213" y="297"/>
      <point x="190" y="273" type="curve" smooth="yes"/>
      <point x="175" y="256"/>
      <point x="157" y="242"/>
      <point x="175" y="218" type="curve" smooth="yes"/>
      <point x="178" y="212"/>
      <point x="174" y="205"/>
      <point x="168" y="205" type="curve" smooth="yes"/>
    </contour>
    <contour>
      <point x="202" y="23" type="line" smooth="yes"/>
      <point x="199" y="23"/>
      <point x="197" y="24"/>
      <point x="195" y="26" type="curve" smooth="yes"/>
      <point x="115" y="140" type="line" smooth="yes"/>
      <point x="112" y="146"/>
      <point x="116" y="153"/>
      <point x="122" y="153" type="curve" smooth="yes"/>
      <point x="235" y="153" type="line" smooth="yes"/>
      <point x="238" y="153"/>
      <point x="240" y="152"/>
      <point x="242" y="150" type="curve" smooth="yes"/>
      <point x="323" y="36" type="line" smooth="yes"/>
      <point x="326" y="30"/>
      <point x="322" y="23"/>
      <point x="316" y="23" type="curve" smooth="yes"/>
    </contour>
    <contour>
      <point x="93" y="221" type="line"/>
      <point x="168" y="221" type="line"/>
      <point x="161" y="208" type="line"/>
      <point x="139" y="241"/>
      <point x="158" y="261"/>
      <point x="178" y="283" type="curve" smooth="yes"/>
      <point x="199" y="305"/>
      <point x="219" y="329"/>
      <point x="178" y="386" type="curve" smooth="yes"/>
      <point x="120" y="469"/>
      <point x="20" y="512"/>
      <point x="-88" y="512" type="curve" smooth="yes"/>
      <point x="-127" y="512"/>
      <point x="-168" y="506"/>
      <point x="-203" y="493" type="curve"/>
      <point x="-199" y="506" type="line"/>
      <point x="-114" y="385" type="line"/>
      <point x="-128" y="384" type="line"/>
      <point x="-109" y="416"/>
      <point x="-74" y="438"/>
      <point x="-25" y="438" type="curve" smooth="yes"/>
      <point x="23" y="438"/>
      <point x="66" y="420"/>
      <point x="88" y="390" type="curve" smooth="yes"/>
      <point x="108" y="360"/>
      <point x="94" y="341"/>
      <point x="81" y="320" type="curve" smooth="yes"/>
      <point x="68" y="298"/>
      <point x="54" y="272"/>
      <point x="99" y="218" type="curve"/>
    </contour>
    <contour>
      <point x="202" y="39" type="line"/>
      <point x="316" y="39" type="line"/>
      <point x="309" y="26" type="line"/>
      <point x="228" y="140" type="line"/>
      <point x="235" y="137" type="line"/>
      <point x="122" y="137" type="line"/>
      <point x="129" y="150" type="line"/>
      <point x="209" y="36" type="line"/>
    </contour>
  </outline>
</glyph>
<glyph name="at" format="2">
  <advance width="634"/>
  <unicode hex="0040"/>
  <outline>
    <contour>
      <point x="309" y="194" type="curve" smooth="yes"/>
      <point x="332" y="194"/>
      <point x="325" y="219"/>
      <point x="300" y="252" type="curve" smooth="yes"/>
      <point x="273" y="292"/>
      <point x="236" y="320"/>
      <point x="208" y="320" type="curve" smooth="yes"/>
      <point x="186" y="320"/>
      <point x="194" y="295"/>
      <point x="218" y="262" type="curve" smooth="yes"/>
      <point x="246" y="221"/>
      <point x="282" y="194"/>
    </contour>
    <contour>
      <point x="392" y="149" type="curve"/>
      <point x="405" y="155" type="line"/>
      <point x="404" y="120"/>
      <point x="380" y="101"/>
      <point x="341" y="101" type="curve" smooth="yes"/>
      <point x="272" y="101"/>
      <point x="174" y="155"/>
      <point x="105" y="252" type="curve" smooth="yes"/>
      <point x="32" y="356"/>
      <point x="63" y="413"/>
      <point x="131" y="413" type="curve" smooth="yes"/>
      <point x="157" y="413"/>
      <point x="192" y="404"/>
      <point x="226" y="384" type="curve"/>
      <point x="215" y="373" type="line"/>
      <point x="201" y="394" type="line" smooth="yes"/>
      <point x="198" y="399"/>
      <point x="202" y="406"/>
      <point x="208" y="406" type="curve" smooth="yes"/>
      <point x="303" y="406" type="line" smooth="yes"/>
      <point x="306" y="406"/>
      <point x="308" y="405"/>
      <point x="310" y="403" type="curve" smooth="yes"/>
      <point x="441" y="216" type="line" smooth="yes"/>
      <point x="451" y="203"/>
      <point x="462" y="193"/>
      <point x="473" y="193" type="curve" smooth="yes"/>
      <point x="492" y="193"/>
      <point x="483" y="233"/>
      <point x="447" y="282" type="curve" smooth="yes"/>
      <point x="367" y="396"/>
      <point x="232" y="473"/>
      <point x="108" y="473" type="curve" smooth="yes"/>
      <point x="-15" y="473"/>
      <point x="-37" y="387"/>
      <point x="53" y="262" type="curve" smooth="yes"/>
      <point x="174" y="89"/>
      <point x="401" y="0"/>
      <point x="517" y="85" type="curve" smooth="yes"/>
      <point x="521" y="88"/>
      <point x="526" y="87"/>
      <point x="529" y="84" type="curve" smooth="yes"/>
      <point x="592" y="-5" type="line" smooth="yes"/>
      <point x="594" y="-10"/>
      <point x="593" y="-15"/>
      <point x="588" y="-17" type="curve" smooth="yes"/>
      <point x="410" y="-95"/>
      <point x="124" y="24"/>
      <point x="-37" y="250" type="curve" smooth="yes"/>
      <point x="-164" y="430"/>
      <point x="-118" y="560"/>
      <point x="60" y="560" type="curve" smooth="yes"/>
      <point x="229" y="560"/>
      <point x="423" y="454"/>
      <point x="533" y="298" type="curve" smooth="yes"/>
      <point x="619" y="176"/>
      <point x="585" y="106"/>
      <point x="505" y="106" type="curve" smooth="yes"/>
      <point x="463" y="106"/>
      <point x="423" y="125"/>
    </contour>
    <contour>
      <point x="309" y="178" type="curve" smooth="yes"/>
      <point x="278" y="178"/>
      <point x="238" y="205"/>
      <point x="204" y="252" type="curve" smooth="yes"/>
      <point x="167" y="305"/>
      <point x="173" y="336"/>
      <point x="208" y="336" type="curve" smooth="yes"/>
      <point x="240" y="336"/>
      <point x="281" y="308"/>
      <point x="314" y="262" type="curve" smooth="yes"/>
      <point x="351" y="210"/>
      <point x="345" y="178"/>
    </contour>
    <contour>
      <point x="402" y="161" type="curve" smooth="yes"/>
      <point x="431" y="139"/>
      <point x="467" y="122"/>
      <point x="505" y="122" type="curve" smooth="yes"/>
      <point x="575" y="122"/>
      <point x="595" y="182"/>
      <point x="519" y="288" type="curve" smooth="yes"/>
      <point x="413" y="440"/>
      <point x="225" y="544"/>
      <point x="60" y="544" type="curve" smooth="yes"/>
      <point x="-106" y="544"/>
      <point x="-142" y="428"/>
      <point x="-23" y="260" type="curve" smooth="yes"/>
      <point x="132" y="40"/>
      <point x="410" y="-77"/>
      <point x="582" y="-3" type="curve"/>
      <point x="578" y="-15" type="line"/>
      <point x="515" y="74" type="line"/>
      <point x="527" y="73" type="line"/>
      <point x="405" y="-18"/>
      <point x="168" y="71"/>
      <point x="39" y="252" type="curve" smooth="yes"/>
      <point x="-59" y="391"/>
      <point x="-27" y="489"/>
      <point x="108" y="489" type="curve" smooth="yes"/>
      <point x="236" y="489"/>
      <point x="377" y="410"/>
      <point x="461" y="292" type="curve" smooth="yes"/>
      <point x="515" y="214"/>
      <point x="503" y="177"/>
      <point x="473" y="177" type="curve" smooth="yes"/>
      <point x="458" y="177"/>
      <point x="443" y="187"/>
      <point x="429" y="206" type="curve" smooth="yes"/>
      <point x="296" y="393" type="line"/>
      <point x="303" y="390" type="line"/>
      <point x="208" y="390" type="line"/>
      <point x="215" y="402" type="line"/>
      <point x="229" y="381" type="line" smooth="yes"/>
      <point x="233" y="374"/>
      <point x="225" y="366"/>
      <point x="218" y="370" type="curve" smooth="yes"/>
      <point x="186" y="388"/>
      <point x="155" y="397"/>
      <point x="131" y="397" type="curve" smooth="yes"/>
      <point x="73" y="397"/>
      <point x="56" y="350"/>
      <point x="119" y="262" type="curve" smooth="yes"/>
      <point x="184" y="169"/>
      <point x="276" y="117"/>
      <point x="341" y="117" type="curve" smooth="yes"/>
      <point x="370" y="117"/>
      <point x="388" y="128"/>
      <point x="389" y="155" type="curve" smooth="yes"/>
      <point x="389" y="162"/>
      <point x="397" y="165"/>
    </contour>
  </outline>
</glyph>
<glyph name="C" format="2">
  <advance width="432"/>
  <unicode hex="0043"/>
  <outline>
    <contour>
      <point x="480" y="51" type="line" smooth="yes"/>
      <point x="482" y="47"/>
      <point x="481" y="42"/>
      <point x="477" y="39" type="curve" smooth="yes"/>
      <point x="453" y="24"/>
      <point x="414" y="14"/>
      <point x="369" y="14" type="curve" smooth="yes"/>
      <point x="217" y="14"/>
      <point x="51" y="116"/>
      <point x="-55" y="265" type="curve" smooth="yes"/>
      <point x="-163" y="418"/>
      <point x="-139" y="528"/>
      <point x="17" y="528" type="curve" smooth="yes"/>
      <point x="61" y="528"/>
      <point x="112" y="520"/>
      <point x="158" y="504" type="curve" smooth="yes"/>
      <point x="159" y="503"/>
      <point x="161" y="502"/>
      <point x="162" y="501" type="curve" smooth="yes"/>
      <point x="246" y="382" type="line" smooth="yes"/>
      <point x="250" y="375"/>
      <point x="243" y="366"/>
      <point x="235" y="370" type="curve" smooth="yes"/>
      <point x="183" y="398"/>
      <point x="121" y="422"/>
      <point x="75" y="422" type="curve" smooth="yes"/>
      <point x="5" y="422"/>
      <point x="1" y="367"/>
      <point x="66" y="276" type="curve" smooth="yes"/>
      <point x="133" y="180"/>
      <point x="226" y="122"/>
      <point x="299" y="122" type="curve" smooth="yes"/>
      <point x="342" y="122"/>
      <point x="370" y="140"/>
      <point x="382" y="168" type="curve" smooth="yes"/>
      <point x="384" y="174"/>
      <point x="392" y="175"/>
      <point x="396" y="170" type="curve" smooth="yes"/>
    </contour>
    <contour>
      <point x="466" y="41" type="line"/>
      <point x="382" y="160" type="line"/>
      <point x="396" y="162" type="line"/>
      <point x="382" y="128"/>
      <point x="350" y="106"/>
      <point x="299" y="106" type="curve" smooth="yes"/>
      <point x="222" y="106"/>
      <point x="123" y="166"/>
      <point x="52" y="266" type="curve" smooth="yes"/>
      <point x="-23" y="373"/>
      <point x="-7" y="438"/>
      <point x="75" y="438" type="curve" smooth="yes"/>
      <point x="123" y="438"/>
      <point x="187" y="414"/>
      <point x="243" y="384" type="curve"/>
      <point x="232" y="372" type="line"/>
      <point x="148" y="491" type="line"/>
      <point x="152" y="488" type="line"/>
      <point x="108" y="504"/>
      <point x="59" y="512"/>
      <point x="17" y="512" type="curve" smooth="yes"/>
      <point x="-127" y="512"/>
      <point x="-141" y="415"/>
      <point x="-41" y="275" type="curve" smooth="yes"/>
      <point x="61" y="130"/>
      <point x="221" y="30"/>
      <point x="369" y="30" type="curve" smooth="yes"/>
      <point x="410" y="30"/>
      <point x="447" y="38"/>
      <point x="469" y="53" type="curve"/>
    </contour>
  </outline>
</glyph>
<glyph name="G" format="2">
  <advance width="474"/>
  <unicode hex="0047"/>
  <outline>
    <contour>
      <point x="512" y="64" type="curve" smooth="yes"/>
      <point x="514" y="60"/>
      <point x="513" y="55"/>
      <point x="509" y="52" type="curve" smooth="yes"/>
      <point x="468" y="27"/>
      <point x="426" y="12"/>
      <point x="368" y="12" type="curve" smooth="yes"/>
      <point x="219" y="12"/>
      <point x="48" y="120"/>
      <point x="-53" y="262" type="curve" smooth="yes"/>
      <point x="-161" y="416"/>
      <point x="-132" y="528"/>
      <point x="23" y="528" type="curve" smooth="yes"/>
      <point x="72" y="528"/>
      <point x="128" y="518"/>
      <point x="190" y="500" type="curve" smooth="yes"/>
      <point x="192" y="499"/>
      <point x="193" y="498"/>
      <point x="195" y="497" type="curve" smooth="yes"/>
      <point x="279" y="378" type="line" smooth="yes"/>
      <point x="283" y="371"/>
      <point x="276" y="362"/>
      <point x="268" y="366" type="curve" smooth="yes"/>
      <point x="198" y="404"/>
      <point x="134" y="422"/>
      <point x="85" y="422" type="curve" smooth="yes"/>
      <point x="5" y="422"/>
      <point x="1" y="368"/>
      <point x="65" y="277" type="curve" smooth="yes"/>
      <point x="132" y="181"/>
      <point x="226" y="119"/>
      <point x="310" y="119" type="curve" smooth="yes"/>
      <point x="329" y="119"/>
      <point x="347" y="122"/>
      <point x="362" y="128" type="curve"/>
      <point x="359" y="116" type="line"/>
      <point x="278" y="223"/>
      <point x="254" y="250"/>
      <point x="228" y="272" type="curve" smooth="yes"/>
      <point x="222" y="277"/>
      <point x="226" y="286"/>
      <point x="233" y="286" type="curve" smooth="yes"/>
      <point x="359" y="286" type="line" smooth="yes"/>
      <point x="362" y="286"/>
      <point x="365" y="284"/>
      <point x="366" y="281" type="curve" smooth="yes"/>
      <point x="378" y="257"/>
      <point x="399" y="222"/>
    </contour>
    <contour>
      <point x="498" y="54" type="line"/>
      <point x="385" y="214"/>
      <point x="364" y="249"/>
      <point x="352" y="275" type="curve"/>
      <point x="359" y="270" type="line"/>
      <point x="233" y="270" type="line"/>
      <point x="238" y="284" type="line"/>
      <point x="264" y="262"/>
      <point x="290" y="235"/>
      <point x="371" y="126" type="curve" smooth="yes"/>
      <point x="374" y="122"/>
      <point x="373" y="116"/>
      <point x="368" y="114" type="curve" smooth="yes"/>
      <point x="351" y="106"/>
      <point x="331" y="103"/>
      <point x="310" y="103" type="curve" smooth="yes"/>
      <point x="222" y="103"/>
      <point x="122" y="167"/>
      <point x="51" y="267" type="curve" smooth="yes"/>
      <point x="-22" y="372"/>
      <point x="-7" y="438"/>
      <point x="85" y="438" type="curve" smooth="yes"/>
      <point x="136" y="438"/>
      <point x="202" y="420"/>
      <point x="276" y="380" type="curve"/>
      <point x="265" y="368" type="line"/>
      <point x="181" y="487" type="line"/>
      <point x="186" y="484" type="line"/>
      <point x="126" y="502"/>
      <point x="70" y="512"/>
      <point x="23" y="512" type="curve" smooth="yes"/>
      <point x="-120" y="512"/>
      <point x="-139" y="413"/>
      <point x="-39" y="272" type="curve" smooth="yes"/>
      <point x="58" y="134"/>
      <point x="223" y="28"/>
      <point x="368" y="28" type="curve" smooth="yes"/>
      <point x="422" y="28"/>
      <point x="462" y="43"/>
      <point x="501" y="66" type="curve"/>
    </contour>
  </outline>
</glyph>
<glyph name="J" format="2">
  <advance width="331"/>
  <unicode hex="004A"/>
  <outline>
    <contour>
      <point x="10" y="157" type="line" smooth="yes"/>
      <point x="5" y="164"/>
      <point x="14" y="173"/>
      <point x="21" y="169" type="curve" smooth="yes"/>
      <point x="76" y="136"/>
      <point x="117" y="122"/>
      <point x="145" y="122" type="curve" smooth="yes"/>
      <point x="181" y="122"/>
      <point x="182" y="144"/>
      <point x="147" y="193" type="curve" smooth="yes"/>
      <point x="91" y="273" type="line" smooth="yes"/>
      <point x="-28" y="441"/>
      <point x="-58" y="478"/>
      <point x="-92" y="506" type="curve" smooth="yes"/>
      <point x="-98" y="511"/>
      <point x="-95" y="520"/>
      <point x="-87" y="520" type="curve" smooth="yes"/>
      <point x="52" y="520" type="line" smooth="yes"/>
      <point x="56" y="520"/>
      <point x="59" y="517"/>
      <point x="60" y="514" type="curve" smooth="yes"/>
      <point x="66" y="486"/>
      <point x="88" y="449"/>
      <point x="206" y="283" type="curve" smooth="yes"/>
      <point x="265" y="199" type="line" smooth="yes"/>
      <point x="338" y="95"/>
      <point x="326" y="17"/>
      <point x="217" y="16" type="curve" smooth="yes"/>
      <point x="187" y="15"/>
      <point x="146" y="21"/>
      <point x="100" y="33" type="curve" smooth="yes"/>
      <point x="98" y="34"/>
      <point x="97" y="35"/>
      <point x="95" y="36" type="curve" smooth="yes"/>
    </contour>
    <contour>
      <point x="24" y="167" type="line"/>
      <point x="109" y="46" type="line"/>
      <point x="104" y="49" type="line"/>
      <point x="148" y="37"/>
      <point x="187" y="31"/>
      <point x="217" y="32" type="curve" smooth="yes"/>
      <point x="312" y="33"/>
      <point x="316" y="99"/>
      <point x="251" y="189" type="curve" smooth="yes"/>
      <point x="192" y="273" type="line" smooth="yes"/>
      <point x="70" y="445"/>
      <point x="50" y="482"/>
      <point x="44" y="510" type="curve"/>
      <point x="52" y="504" type="line"/>
      <point x="-87" y="504" type="line"/>
      <point x="-82" y="518" type="line"/>
      <point x="-48" y="490"/>
      <point x="-16" y="453"/>
      <point x="105" y="283" type="curve" smooth="yes"/>
      <point x="161" y="203" type="line" smooth="yes"/>
      <point x="206" y="138"/>
      <point x="193" y="106"/>
      <point x="145" y="106" type="curve" smooth="yes"/>
      <point x="115" y="106"/>
      <point x="72" y="120"/>
      <point x="13" y="155" type="curve"/>
    </contour>
  </outline>
</glyph>
<glyph name="K" format="2">
  <advance width="461"/>
  <unicode hex="004B"/>
  <outline>
    <contour>
      <point x="131" y="23" type="line" smooth="yes"/>
      <point x="127" y="23"/>
      <point x="124" y="26"/>
      <point x="123" y="29" type="curve" smooth="yes"/>
      <point x="117" y="57"/>
      <point x="93" y="96"/>
      <point x="-32" y="273" type="curve" smooth="yes"/>
      <point x="-151" y="442"/>
      <point x="-181" y="478"/>
      <point x="-214" y="506" type="curve" smooth="yes"/>
      <point x="-220" y="511"/>
      <point x="-216" y="520"/>
      <point x="-209" y="520" type="curve" smooth="yes"/>
      <point x="-70" y="520" type="line" smooth="yes"/>
      <point x="-66" y="520"/>
      <point x="-63" y="517"/>
      <point x="-62" y="514" type="curve" smooth="yes"/>
      <point x="-57" y="489"/>
      <point x="-38" y="455"/>
      <point x="49" y="331" type="curve"/>
      <point x="34" y="328" type="line"/>
      <point x="65" y="454"/>
      <point x="69" y="484"/>
      <point x="59" y="509" type="curve" smooth="yes"/>
      <point x="56" y="514"/>
      <point x="60" y="520"/>
      <point x="66" y="520" type="curve" smooth="yes"/>
      <point x="217" y="520" type="line" smooth="yes"/>
      <point x="224" y="520"/>
      <point x="227" y="512"/>
      <point x="223" y="507" type="curve" smooth="yes"/>
      <point x="203" y="480"/>
      <point x="193" y="444"/>
      <point x="153" y="275" type="curve"/>
      <point x="149" y="284" type="line"/>
      <point x="435" y="104"/>
      <point x="508" y="65"/>
      <point x="566" y="38" type="curve" smooth="yes"/>
      <point x="574" y="35"/>
      <point x="572" y="23"/>
      <point x="563" y="23" type="curve" smooth="yes"/>
      <point x="398" y="23" type="line" smooth="yes"/>
      <point x="396" y="23"/>
      <point x="394" y="24"/>
      <point x="392" y="25" type="curve" smooth="yes"/>
      <point x="367" y="50"/>
      <point x="319" y="82"/>
      <point x="116" y="208" type="curve"/>
      <point x="126" y="220" type="line"/>
      <point x="218" y="94"/>
      <point x="245" y="62"/>
      <point x="275" y="37" type="curve" smooth="yes"/>
      <point x="281" y="32"/>
      <point x="277" y="23"/>
      <point x="270" y="23" type="curve" smooth="yes"/>
    </contour>
    <contour>
      <point x="131" y="39" type="line"/>
      <point x="270" y="39" type="line"/>
      <point x="265" y="25" type="line"/>
      <point x="235" y="50"/>
      <point x="206" y="82"/>
      <point x="114" y="210" type="curve" smooth="yes"/>
      <point x="108" y="217"/>
      <point x="117" y="226"/>
      <point x="124" y="222" type="curve" smooth="yes"/>
      <point x="329" y="94"/>
      <point x="379" y="62"/>
      <point x="404" y="37" type="curve"/>
      <point x="398" y="39" type="line"/>
      <point x="563" y="39" type="line"/>
      <point x="560" y="24" type="line"/>
      <point x="502" y="51"/>
      <point x="427" y="90"/>
      <point x="141" y="270" type="curve" smooth="yes"/>
      <point x="138" y="272"/>
      <point x="136" y="276"/>
      <point x="137" y="279" type="curve" smooth="yes"/>
      <point x="179" y="454"/>
      <point x="189" y="488"/>
      <point x="211" y="517" type="curve"/>
      <point x="217" y="504" type="line"/>
      <point x="66" y="504" type="line"/>
      <point x="73" y="515" type="line"/>
      <point x="85" y="488"/>
      <point x="83" y="463"/>
      <point x="50" y="324" type="curve" smooth="yes"/>
      <point x="48" y="317"/>
      <point x="39" y="316"/>
      <point x="35" y="321" type="curve" smooth="yes"/>
      <point x="-56" y="452"/>
      <point x="-73" y="485"/>
      <point x="-78" y="510" type="curve"/>
      <point x="-70" y="504" type="line"/>
      <point x="-209" y="504" type="line"/>
      <point x="-204" y="518" type="line"/>
      <point x="-171" y="490"/>
      <point x="-139" y="453"/>
      <point x="-18" y="283" type="curve" smooth="yes"/>
      <point x="111" y="100"/>
      <point x="133" y="61"/>
      <point x="139" y="33" type="curve"/>
    </contour>
  </outline>
</glyph>
<glyph name="N" format="2">
  <advance width="495"/>
  <unicode hex="004E"/>
  <outline>
    <contour>
      <point x="548" y="36" type="curve" smooth="yes"/>
      <point x="553" y="31"/>
      <point x="549" y="23"/>
      <point x="542" y="23" type="curve" smooth="yes"/>
      <point x="446" y="23" type="line" smooth="yes"/>
      <point x="444" y="23"/>
      <point x="443" y="24"/>
      <point x="441" y="25" type="curve" smooth="yes"/>
      <point x="37" y="318" type="line"/>
      <point x="49" y="329" type="line"/>
      <point x="81" y="283" type="line" smooth="yes"/>
      <point x="207" y="104"/>
      <point x="239" y="65"/>
      <point x="273" y="37" type="curve" smooth="yes"/>
      <point x="279" y="32"/>
      <point x="276" y="23"/>
      <point x="268" y="23" type="curve" smooth="yes"/>
      <point x="136" y="23" type="line" smooth="yes"/>
      <point x="132" y="23"/>
      <point x="129" y="26"/>
      <point x="128" y="29" type="curve" smooth="yes"/>
      <point x="122" y="57"/>
      <point x="98" y="96"/>
      <point x="-27" y="273" type="curve" smooth="yes"/>
      <point x="-146" y="442"/>
      <point x="-176" y="478"/>
      <point x="-209" y="506" type="curve" smooth="yes"/>
      <point x="-215" y="511"/>
      <point x="-211" y="520"/>
      <point x="-204" y="520" type="curve" smooth="yes"/>
      <point x="-94" y="520" type="line" smooth="yes"/>
      <point x="-92" y="520"/>
      <point x="-91" y="519"/>
      <point x="-89" y="518" type="curve" smooth="yes"/>
      <point x="302" y="234" type="line"/>
      <point x="290" y="223" type="line"/>
      <point x="255" y="273" type="line" smooth="yes"/>
      <point x="136" y="441"/>
      <point x="106" y="478"/>
      <point x="72" y="506" type="curve" smooth="yes"/>
      <point x="66" y="511"/>
      <point x="69" y="520"/>
      <point x="77" y="520" type="curve" smooth="yes"/>
      <point x="209" y="520" type="line" smooth="yes"/>
      <point x="213" y="520"/>
      <point x="216" y="517"/>
      <point x="217" y="514" type="curve" smooth="yes"/>
      <point x="223" y="486"/>
      <point x="245" y="449"/>
      <point x="363" y="283" type="curve" smooth="yes"/>
      <point x="489" y="103"/>
      <point x="515" y="71"/>
    </contour>
    <contour>
      <point x="536" y="26" type="line"/>
      <point x="503" y="61"/>
      <point x="477" y="93"/>
      <point x="349" y="273" type="curve" smooth="yes"/>
      <point x="227" y="445"/>
      <point x="207" y="482"/>
      <point x="201" y="510" type="curve"/>
      <point x="209" y="504" type="line"/>
      <point x="77" y="504" type="line"/>
      <point x="82" y="518" type="line"/>
      <point x="116" y="490"/>
      <point x="148" y="453"/>
      <point x="269" y="283" type="curve" smooth="yes"/>
      <point x="304" y="233" type="line" smooth="yes"/>
      <point x="309" y="225"/>
      <point x="300" y="216"/>
      <point x="292" y="222" type="curve" smooth="yes"/>
      <point x="-99" y="506" type="line"/>
      <point x="-94" y="504" type="line"/>
      <point x="-204" y="504" type="line"/>
      <point x="-199" y="518" type="line"/>
      <point x="-166" y="490"/>
      <point x="-134" y="453"/>
      <point x="-13" y="283" type="curve" smooth="yes"/>
      <point x="116" y="100"/>
      <point x="138" y="61"/>
      <point x="144" y="33" type="curve"/>
      <point x="136" y="39" type="line"/>
      <point x="268" y="39" type="line"/>
      <point x="263" y="25" type="line"/>
      <point x="229" y="53"/>
      <point x="195" y="92"/>
      <point x="67" y="273" type="curve" smooth="yes"/>
      <point x="35" y="319" type="line" smooth="yes"/>
      <point x="30" y="327"/>
      <point x="39" y="336"/>
      <point x="47" y="330" type="curve" smooth="yes"/>
      <point x="451" y="37" type="line"/>
      <point x="446" y="39" type="line"/>
      <point x="542" y="39" type="line"/>
    </contour>
  </outline>
</glyph>
<glyph name="O" format="2">
  <advance width="524"/>
  <unicode hex="004F"/>
  <outline>
    <contour>
      <point x="300" y="120" type="curve" smooth="yes"/>
      <point x="370" y="120"/>
      <point x="372" y="176"/>
      <point x="307" y="267" type="curve" smooth="yes"/>
      <point x="240" y="363"/>
      <point x="149" y="422"/>
      <point x="75" y="422" type="curve" smooth="yes"/>
      <point x="4" y="422"/>
      <point x="1" y="368"/>
      <point x="66" y="277" type="curve" smooth="yes"/>
      <point x="134" y="180"/>
      <point x="225" y="120"/>
    </contour>
    <contour>
      <point x="363" y="30" type="curve" smooth="yes"/>
      <point x="494" y="30"/>
      <point x="514" y="128"/>
      <point x="415" y="267" type="curve" smooth="yes"/>
      <point x="314" y="410"/>
      <point x="146" y="512"/>
      <point x="11" y="512" type="curve" smooth="yes"/>
      <point x="-121" y="512"/>
      <point x="-140" y="415"/>
      <point x="-42" y="277" type="curve" smooth="yes"/>
      <point x="59" y="133"/>
      <point x="227" y="30"/>
    </contour>
    <contour>
      <point x="300" y="104" type="curve" smooth="yes"/>
      <point x="221" y="104"/>
      <point x="124" y="166"/>
      <point x="52" y="267" type="curve" smooth="yes"/>
      <point x="-23" y="374"/>
      <point x="-8" y="438"/>
      <point x="75" y="438" type="curve" smooth="yes"/>
      <point x="153" y="438"/>
      <point x="250" y="377"/>
      <point x="321" y="277" type="curve" smooth="yes"/>
      <point x="396" y="170"/>
      <point x="382" y="104"/>
    </contour>
    <contour>
      <point x="363" y="14" type="curve" smooth="yes"/>
      <point x="223" y="14"/>
      <point x="49" y="119"/>
      <point x="-56" y="267" type="curve" smooth="yes"/>
      <point x="-162" y="419"/>
      <point x="-133" y="528"/>
      <point x="11" y="528" type="curve" smooth="yes"/>
      <point x="150" y="528"/>
      <point x="324" y="424"/>
      <point x="429" y="277" type="curve" smooth="yes"/>
      <point x="536" y="124"/>
      <point x="506" y="14"/>
    </contour>
  </outline>
</glyph>
<glyph name="T" format="2">
  <advance width="389"/>
  <unicode hex="0054"/>
  <outline>
    <contour>
      <point x="220" y="23" type="line" smooth="yes"/>
      <point x="216" y="23"/>
      <point x="213" y="26"/>
      <point x="212" y="29" type="curve" smooth="yes"/>
      <point x="206" y="57"/>
      <point x="182" y="96"/>
      <point x="57" y="273" type="curve" smooth="yes"/>
      <point x="12" y="338"/>
      <point x="-21" y="384"/>
      <point x="-46" y="417" type="curve"/>
      <point x="-40" y="414" type="line"/>
      <point x="-109" y="412"/>
      <point x="-132" y="405"/>
      <point x="-144" y="395" type="curve" smooth="yes"/>
      <point x="-147" y="392"/>
      <point x="-153" y="393"/>
      <point x="-156" y="396" type="curve" smooth="yes"/>
      <point x="-234" y="507" type="line" smooth="yes"/>
      <point x="-237" y="513"/>
      <point x="-233" y="520"/>
      <point x="-227" y="520" type="curve" smooth="yes"/>
      <point x="126" y="520" type="line" smooth="yes"/>
      <point x="129" y="520"/>
      <point x="131" y="519"/>
      <point x="133" y="517" type="curve" smooth="yes"/>
      <point x="211" y="406" type="line" smooth="yes"/>
      <point x="215" y="399"/>
      <point x="208" y="391"/>
      <point x="201" y="394" type="curve" smooth="yes"/>
      <point x="174" y="404"/>
      <point x="140" y="412"/>
      <point x="66" y="414" type="curve"/>
      <point x="73" y="426" type="line"/>
      <point x="95" y="394"/>
      <point x="126" y="348"/>
      <point x="173" y="283" type="curve" smooth="yes"/>
      <point x="299" y="104"/>
      <point x="330" y="65"/>
      <point x="364" y="37" type="curve" smooth="yes"/>
      <point x="370" y="32"/>
      <point x="367" y="23"/>
      <point x="359" y="23" type="curve" smooth="yes"/>
    </contour>
    <contour>
      <point x="220" y="39" type="line"/>
      <point x="359" y="39" type="line"/>
      <point x="354" y="25" type="line"/>
      <point x="320" y="53"/>
      <point x="287" y="92"/>
      <point x="159" y="273" type="curve" smooth="yes"/>
      <point x="112" y="338"/>
      <point x="81" y="385"/>
      <point x="59" y="418" type="curve" smooth="yes"/>
      <point x="56" y="423"/>
      <point x="60" y="430"/>
      <point x="66" y="430" type="curve" smooth="yes"/>
      <point x="143" y="428"/>
      <point x="178" y="420"/>
      <point x="207" y="408" type="curve"/>
      <point x="197" y="396" type="line"/>
      <point x="119" y="507" type="line"/>
      <point x="126" y="504" type="line"/>
      <point x="-227" y="504" type="line"/>
      <point x="-220" y="517" type="line"/>
      <point x="-142" y="406" type="line"/>
      <point x="-154" y="407" type="line"/>
      <point x="-140" y="419"/>
      <point x="-119" y="428"/>
      <point x="-40" y="430" type="curve" smooth="yes"/>
      <point x="-38" y="430"/>
      <point x="-35" y="429"/>
      <point x="-34" y="427" type="curve" smooth="yes"/>
      <point x="-9" y="394"/>
      <point x="24" y="348"/>
      <point x="71" y="283" type="curve" smooth="yes"/>
      <point x="200" y="100"/>
      <point x="222" y="61"/>
      <point x="228" y="33" type="curve"/>
    </contour>
  </outline>
</glyph>
<glyph name="U" format="2">
  <advance width="484"/>
  <unicode hex="0055"/>
  <outline>
    <contour>
      <point x="345" y="11" type="curve" smooth="yes"/>
      <point x="232" y="11"/>
      <point x="105" y="76"/>
      <point x="29" y="183" type="curve" smooth="yes"/>
      <point x="-34" y="273" type="line" smooth="yes"/>
      <point x="-153" y="441"/>
      <point x="-183" y="478"/>
      <point x="-217" y="506" type="curve" smooth="yes"/>
      <point x="-223" y="511"/>
      <point x="-220" y="520"/>
      <point x="-212" y="520" type="curve" smooth="yes"/>
      <point x="-72" y="520" type="line" smooth="yes"/>
      <point x="-68" y="520"/>
      <point x="-65" y="517"/>
      <point x="-64" y="513" type="curve" smooth="yes"/>
      <point x="-59" y="486"/>
      <point x="-37" y="448"/>
      <point x="81" y="283" type="curve" smooth="yes"/>
      <point x="134" y="208" type="line" smooth="yes"/>
      <point x="171" y="154"/>
      <point x="228" y="119"/>
      <point x="281" y="119" type="curve" smooth="yes"/>
      <point x="329" y="119"/>
      <point x="332" y="149"/>
      <point x="296" y="198" type="curve" smooth="yes"/>
      <point x="244" y="273" type="line" smooth="yes"/>
      <point x="125" y="441"/>
      <point x="95" y="478"/>
      <point x="61" y="506" type="curve" smooth="yes"/>
      <point x="55" y="511"/>
      <point x="58" y="520"/>
      <point x="66" y="520" type="curve" smooth="yes"/>
      <point x="206" y="520" type="line" smooth="yes"/>
      <point x="210" y="520"/>
      <point x="213" y="517"/>
      <point x="214" y="513" type="curve" smooth="yes"/>
      <point x="219" y="486"/>
      <point x="241" y="448"/>
      <point x="359" y="283" type="curve" smooth="yes"/>
      <point x="422" y="193" type="line" smooth="yes"/>
      <point x="501" y="82"/>
      <point x="462" y="11"/>
    </contour>
    <contour>
      <point x="345" y="27" type="curve" smooth="yes"/>
      <point x="450" y="27"/>
      <point x="479" y="84"/>
      <point x="408" y="183" type="curve" smooth="yes"/>
      <point x="345" y="273" type="line" smooth="yes"/>
      <point x="223" y="445"/>
      <point x="203" y="482"/>
      <point x="198" y="511" type="curve"/>
      <point x="206" y="504" type="line"/>
      <point x="66" y="504" type="line"/>
      <point x="71" y="518" type="line"/>
      <point x="105" y="490"/>
      <point x="137" y="453"/>
      <point x="258" y="283" type="curve" smooth="yes"/>
      <point x="310" y="208" type="line" smooth="yes"/>
      <point x="354" y="145"/>
      <point x="341" y="103"/>
      <point x="281" y="103" type="curve" smooth="yes"/>
      <point x="224" y="103"/>
      <point x="161" y="140"/>
      <point x="120" y="198" type="curve" smooth="yes"/>
      <point x="67" y="273" type="line" smooth="yes"/>
      <point x="-55" y="445"/>
      <point x="-75" y="482"/>
      <point x="-80" y="511" type="curve"/>
      <point x="-72" y="504" type="line"/>
      <point x="-212" y="504" type="line"/>
      <point x="-207" y="518" type="line"/>
      <point x="-173" y="490"/>
      <point x="-141" y="453"/>
      <point x="-20" y="283" type="curve" smooth="yes"/>
      <point x="43" y="193" type="line" smooth="yes"/>
      <point x="115" y="90"/>
      <point x="236" y="27"/>
    </contour>
  </outline>
</glyph>
<glyph name="W" format="2">
  <advance width="646"/>
  <unicode hex="0057"/>
  <outline>
    <contour>
      <point x="496" y="23" type="line" smooth="yes"/>
      <point x="494" y="23"/>
      <point x="491" y="24"/>
      <point x="490" y="26" type="curve" smooth="yes"/>
      <point x="467" y="55"/>
      <point x="380" y="145"/>
      <point x="217" y="301" type="curve"/>
      <point x="230" y="310" type="line"/>
      <point x="295" y="146"/>
      <point x="323" y="64"/>
      <point x="344" y="36" type="curve" smooth="yes"/>
      <point x="348" y="31"/>
      <point x="345" y="23"/>
      <point x="338" y="23" type="curve" smooth="yes"/>
      <point x="259" y="23" type="line" smooth="yes"/>
      <point x="257" y="23"/>
      <point x="254" y="24"/>
      <point x="253" y="26" type="curve" smooth="yes"/>
      <point x="230" y="53"/>
      <point x="194" y="91"/>
      <point x="20" y="259" type="curve" smooth="yes"/>
      <point x="-165" y="438"/>
      <point x="-208" y="477"/>
      <point x="-247" y="506" type="curve" smooth="yes"/>
      <point x="-253" y="510"/>
      <point x="-250" y="520"/>
      <point x="-242" y="520" type="curve" smooth="yes"/>
      <point x="-87" y="520" type="line" smooth="yes"/>
      <point x="-83" y="520"/>
      <point x="-80" y="517"/>
      <point x="-79" y="514" type="curve" smooth="yes"/>
      <point x="-71" y="479"/>
      <point x="-42" y="447"/>
      <point x="169" y="239" type="curve"/>
      <point x="156" y="230" type="line"/>
      <point x="73" y="440"/>
      <point x="52" y="472"/>
      <point x="27" y="507" type="curve" smooth="yes"/>
      <point x="23" y="513"/>
      <point x="26" y="520"/>
      <point x="33" y="520" type="curve" smooth="yes"/>
      <point x="135" y="520" type="line" smooth="yes"/>
      <point x="138" y="520"/>
      <point x="140" y="519"/>
      <point x="142" y="516" type="curve" smooth="yes"/>
      <point x="164" y="481"/>
      <point x="188" y="449"/>
      <point x="401" y="240" type="curve"/>
      <point x="388" y="231" type="line"/>
      <point x="306" y="438"/>
      <point x="286" y="471"/>
      <point x="246" y="506" type="curve" smooth="yes"/>
      <point x="240" y="511"/>
      <point x="244" y="520"/>
      <point x="251" y="520" type="curve" smooth="yes"/>
      <point x="398" y="520" type="line" smooth="yes"/>
      <point x="402" y="520"/>
      <point x="406" y="517"/>
      <point x="406" y="512" type="curve" smooth="yes"/>
      <point x="407" y="484"/>
      <point x="419" y="444"/>
      <point x="486" y="268" type="curve" smooth="yes"/>
      <point x="551" y="101"/>
      <point x="565" y="62"/>
      <point x="584" y="36" type="curve" smooth="yes"/>
      <point x="587" y="30"/>
      <point x="583" y="23"/>
      <point x="577" y="23" type="curve" smooth="yes"/>
    </contour>
    <contour>
      <point x="496" y="39" type="line"/>
      <point x="577" y="39" type="line"/>
      <point x="570" y="26" type="line"/>
      <point x="551" y="54"/>
      <point x="537" y="91"/>
      <point x="472" y="262" type="curve" smooth="yes"/>
      <point x="403" y="444"/>
      <point x="391" y="482"/>
      <point x="390" y="512" type="curve"/>
      <point x="398" y="504" type="line"/>
      <point x="251" y="504" type="line"/>
      <point x="256" y="518" type="line"/>
      <point x="298" y="483"/>
      <point x="318" y="449"/>
      <point x="402" y="237" type="curve" smooth="yes"/>
      <point x="406" y="229"/>
      <point x="396" y="222"/>
      <point x="389" y="228" type="curve" smooth="yes"/>
      <point x="176" y="439"/>
      <point x="150" y="473"/>
      <point x="128" y="508" type="curve"/>
      <point x="135" y="504" type="line"/>
      <point x="33" y="504" type="line"/>
      <point x="39" y="517" type="line"/>
      <point x="66" y="482"/>
      <point x="87" y="448"/>
      <point x="170" y="236" type="curve" smooth="yes"/>
      <point x="174" y="228"/>
      <point x="164" y="221"/>
      <point x="157" y="227" type="curve" smooth="yes"/>
      <point x="-61" y="443"/>
      <point x="-87" y="475"/>
      <point x="-95" y="510" type="curve"/>
      <point x="-87" y="504" type="line"/>
      <point x="-242" y="504" type="line"/>
      <point x="-237" y="518" type="line"/>
      <point x="-198" y="489"/>
      <point x="-155" y="450"/>
      <point x="32" y="271" type="curve" smooth="yes"/>
      <point x="206" y="101"/>
      <point x="242" y="63"/>
      <point x="265" y="36" type="curve"/>
      <point x="259" y="39" type="line"/>
      <point x="338" y="39" type="line"/>
      <point x="332" y="26" type="line"/>
      <point x="309" y="56"/>
      <point x="281" y="136"/>
      <point x="216" y="304" type="curve" smooth="yes"/>
      <point x="212" y="312"/>
      <point x="222" y="319"/>
      <point x="229" y="313" type="curve" smooth="yes"/>
      <point x="392" y="155"/>
      <point x="479" y="65"/>
      <point x="502" y="36" type="curve"/>
    </contour>
  </outline>
</glyph>
<glyph name="Z" format="2">
  <advance width="416"/>
  <unicode hex="005A"/>
  <outline>
    <contour>
      <point x="150" y="520" type="line" smooth="yes"/>
      <point x="154" y="520"/>
      <point x="157" y="517"/>
      <point x="158" y="513" type="curve" smooth="yes"/>
      <point x="224" y="120" type="line"/>
      <point x="216" y="127" type="line"/>
      <point x="343" y="124"/>
      <point x="376" y="133"/>
      <point x="387" y="152" type="curve" smooth="yes"/>
      <point x="390" y="157"/>
      <point x="398" y="157"/>
      <point x="401" y="152" type="curve" smooth="yes"/>
      <point x="470" y="35" type="line" smooth="yes"/>
      <point x="473" y="30"/>
      <point x="469" y="23"/>
      <point x="463" y="23" type="curve" smooth="yes"/>
      <point x="116" y="23" type="line" smooth="yes"/>
      <point x="112" y="23"/>
      <point x="109" y="26"/>
      <point x="108" y="30" type="curve" smooth="yes"/>
      <point x="43" y="422" type="line"/>
      <point x="51" y="415" type="line"/>
      <point x="-84" y="418"/>
      <point x="-107" y="407"/>
      <point x="-122" y="395" type="curve" smooth="yes"/>
      <point x="-125" y="392"/>
      <point x="-131" y="393"/>
      <point x="-134" y="396" type="curve" smooth="yes"/>
      <point x="-212" y="507" type="line" smooth="yes"/>
      <point x="-215" y="513"/>
      <point x="-211" y="520"/>
      <point x="-205" y="520" type="curve" smooth="yes"/>
    </contour>
    <contour>
      <point x="150" y="504" type="line"/>
      <point x="-205" y="504" type="line"/>
      <point x="-198" y="517" type="line"/>
      <point x="-120" y="406" type="line"/>
      <point x="-132" y="407" type="line"/>
      <point x="-117" y="421"/>
      <point x="-96" y="434"/>
      <point x="51" y="431" type="curve" smooth="yes"/>
      <point x="55" y="431"/>
      <point x="58" y="428"/>
      <point x="59" y="424" type="curve" smooth="yes"/>
      <point x="124" y="32" type="line"/>
      <point x="116" y="39" type="line"/>
      <point x="463" y="39" type="line"/>
      <point x="456" y="27" type="line"/>
      <point x="387" y="144" type="line"/>
      <point x="401" y="144" type="line"/>
      <point x="388" y="122"/>
      <point x="364" y="108"/>
      <point x="216" y="111" type="curve" smooth="yes"/>
      <point x="212" y="111"/>
      <point x="209" y="114"/>
      <point x="208" y="118" type="curve" smooth="yes"/>
      <point x="142" y="511" type="line"/>
    </contour>
  </outline>
</glyph>
<glyph name="bracketleft" format="2">
  <advance width="323"/>
  <unicode hex="005B"/>
  <outline>
    <contour>
      <point x="214" y="-59" type="curve" smooth="yes"/>
      <point x="210" y="-59"/>
      <point x="206" y="-57"/>
      <point x="205" y="-53" type="curve" smooth="yes"/>
      <point x="197" y="-16"/>
      <point x="161" y="36"/>
      <point x="-3" y="266" type="curve" smooth="yes"/>
      <point x="-167" y="499"/>
      <point x="-204" y="551"/>
      <point x="-247" y="587" type="curve" smooth="yes"/>
      <point x="-253" y="592"/>
      <point x="-249" y="602"/>
      <point x="-241" y="601" type="curve" smooth="yes"/>
      <point x="-161" y="595"/>
      <point x="-75" y="600"/>
      <point x="-2" y="615" type="curve" smooth="yes"/>
      <point x="2" y="616"/>
      <point x="6" y="614"/>
      <point x="7" y="610" type="curve" smooth="yes"/>
      <point x="33" y="552"/>
      <point x="9" y="507"/>
      <point x="-51" y="492" type="curve"/>
      <point x="-46" y="504" type="line"/>
      <point x="-20" y="463"/>
      <point x="27" y="396"/>
      <point x="112" y="276" type="curve" smooth="yes"/>
      <point x="197" y="155"/>
      <point x="244" y="89"/>
      <point x="276" y="48" type="curve"/>
      <point x="271" y="51" type="line"/>
      <point x="348" y="37"/>
      <point x="427" y="-3"/>
      <point x="481" y="-59" type="curve" smooth="yes"/>
      <point x="486" y="-65"/>
      <point x="481" y="-74"/>
      <point x="474" y="-73" type="curve" smooth="yes"/>
      <point x="378" y="-57"/>
      <point x="286" y="-53"/>
    </contour>
    <contour>
      <point x="212" y="-43" type="line"/>
      <point x="286" y="-37"/>
      <point x="380" y="-41"/>
      <point x="476" y="-57" type="curve"/>
      <point x="469" y="-71" type="line"/>
      <point x="417" y="-17"/>
      <point x="342" y="21"/>
      <point x="269" y="35" type="curve" smooth="yes"/>
      <point x="267" y="35"/>
      <point x="265" y="37"/>
      <point x="264" y="38" type="curve" smooth="yes"/>
      <point x="232" y="79"/>
      <point x="185" y="145"/>
      <point x="98" y="266" type="curve" smooth="yes"/>
      <point x="13" y="388"/>
      <point x="-34" y="455"/>
      <point x="-60" y="496" type="curve" smooth="yes"/>
      <point x="-63" y="500"/>
      <point x="-60" y="506"/>
      <point x="-55" y="508" type="curve" smooth="yes"/>
      <point x="-5" y="521"/>
      <point x="15" y="554"/>
      <point x="-7" y="604" type="curve"/>
      <point x="2" y="599" type="line"/>
      <point x="-73" y="584"/>
      <point x="-161" y="579"/>
      <point x="-243" y="585" type="curve"/>
      <point x="-237" y="599" type="line"/>
      <point x="-194" y="563"/>
      <point x="-155" y="511"/>
      <point x="11" y="276" type="curve" smooth="yes"/>
      <point x="179" y="38"/>
      <point x="213" y="-12"/>
      <point x="221" y="-49" type="curve"/>
    </contour>
  </outline>
</glyph>
<glyph name="asciicircum" format="2">
  <advance width="396"/>
  <unicode hex="005E"/>
  <outline>
    <contour>
      <point x="98" y="218" type="line" smooth="yes"/>
      <point x="99" y="213"/>
      <point x="95" y="209"/>
      <point x="90" y="209" type="curve" smooth="yes"/>
      <point x="-13" y="209" type="line" smooth="yes"/>
      <point x="-17" y="209"/>
      <point x="-20" y="212"/>
      <point x="-21" y="216" type="curve" smooth="yes"/>
      <point x="-63" y="521" type="line" smooth="yes"/>
      <point x="-64" y="528"/>
      <point x="-56" y="533"/>
      <point x="-50" y="528" type="curve" smooth="yes"/>
      <point x="340" y="223" type="line" smooth="yes"/>
      <point x="346" y="219"/>
      <point x="343" y="209"/>
      <point x="335" y="209" type="curve" smooth="yes"/>
      <point x="232" y="209" type="line" smooth="yes"/>
      <point x="230" y="209"/>
      <point x="228" y="210"/>
      <point x="227" y="211" type="curve" smooth="yes"/>
      <point x="66" y="337" type="line"/>
      <point x="79" y="344" type="line"/>
    </contour>
    <contour>
      <point x="82" y="216" type="line"/>
      <point x="63" y="342" type="line" smooth="yes"/>
      <point x="62" y="349"/>
      <point x="70" y="354"/>
      <point x="76" y="349" type="curve" smooth="yes"/>
      <point x="237" y="223" type="line"/>
      <point x="232" y="225" type="line"/>
      <point x="335" y="225" type="line"/>
      <point x="330" y="211" type="line"/>
      <point x="-60" y="516" type="line"/>
      <point x="-47" y="523" type="line"/>
      <point x="-5" y="218" type="line"/>
      <point x="-13" y="225" type="line"/>
      <point x="90" y="225" type="line"/>
    </contour>
  </outline>
</glyph>
<glyph name="a" format="2">
  <advance width="440"/>
  <unicode hex="0061"/>
  <outline>
    <contour>
      <point x="387" y="23" type="line" smooth="yes"/>
      <point x="384" y="23"/>
      <point x="381" y="25"/>
      <point x="379" y="28" type="curve" smooth="yes"/>
      <point x="374" y="45"/>
      <point x="364" y="63"/>
      <point x="320" y="107" type="curve"/>
      <point x="326" y="105" type="line"/>
      <point x="179" y="105" type="line"/>
      <point x="186" y="116" type="line"/>
      <point x="205" y="71"/>
      <point x="220" y="53"/>
      <point x="238" y="37" type="curve" smooth="yes"/>
      <point x="244" y="32"/>
      <point x="240" y="23"/>
      <point x="233" y="23" type="curve" smooth="yes"/>
      <point x="88" y="23" type="line" smooth="yes"/>
      <point x="83" y="23"/>
      <point x="80" y="27"/>
      <point x="80" y="32" type="curve" smooth="yes"/>
      <point x="82" y="56"/>
      <point x="78" y="87"/>
      <point x="30" y="240" type="curve" smooth="yes"/>
      <point x="-15" y="385"/>
      <point x="-22" y="414"/>
      <point x="-37" y="437" type="curve" smooth="yes"/>
      <point x="-40" y="442"/>
      <point x="-36" y="449"/>
      <point x="-30" y="449" type="curve" smooth="yes"/>
      <point x="80" y="449" type="line" smooth="yes"/>
      <point x="82" y="449"/>
      <point x="84" y="448"/>
      <point x="86" y="446" type="curve" smooth="yes"/>
      <point x="107" y="423"/>
      <point x="136" y="396"/>
      <point x="298" y="248" type="curve" smooth="yes"/>
      <point x="470" y="93"/>
      <point x="510" y="63"/>
      <point x="546" y="38" type="curve" smooth="yes"/>
      <point x="553" y="33"/>
      <point x="550" y="23"/>
      <point x="542" y="23" type="curve" smooth="yes"/>
    </contour>
    <contour>
      <point x="105" y="308" type="line"/>
      <point x="118" y="316" type="line"/>
      <point x="154" y="203" type="line"/>
      <point x="146" y="209" type="line"/>
      <point x="233" y="209" type="line"/>
      <point x="228" y="195" type="line"/>
    </contour>
    <contour>
      <point x="387" y="39" type="line"/>
      <point x="542" y="39" type="line"/>
      <point x="538" y="24" type="line"/>
      <point x="500" y="49"/>
      <point x="460" y="81"/>
      <point x="288" y="236" type="curve" smooth="yes"/>
      <point x="124" y="384"/>
      <point x="95" y="413"/>
      <point x="74" y="436" type="curve"/>
      <point x="80" y="433" type="line"/>
      <point x="-30" y="433" type="line"/>
      <point x="-23" y="445" type="line"/>
      <point x="-8" y="422"/>
      <point x="-1" y="395"/>
      <point x="46" y="244" type="curve" smooth="yes"/>
      <point x="94" y="87"/>
      <point x="98" y="56"/>
      <point x="96" y="30" type="curve"/>
      <point x="88" y="39" type="line"/>
      <point x="233" y="39" type="line"/>
      <point x="228" y="25" type="line"/>
      <point x="208" y="43"/>
      <point x="191" y="63"/>
      <point x="172" y="110" type="curve" smooth="yes"/>
      <point x="169" y="115"/>
      <point x="173" y="121"/>
      <point x="179" y="121" type="curve" smooth="yes"/>
      <point x="326" y="121" type="line" smooth="yes"/>
      <point x="328" y="121"/>
      <point x="330" y="120"/>
      <point x="332" y="119" type="curve" smooth="yes"/>
      <point x="378" y="71"/>
      <point x="388" y="51"/>
      <point x="395" y="34" type="curve"/>
    </contour>
    <contour>
      <point x="115" y="320" type="curve" smooth="yes"/>
      <point x="238" y="207" type="line" smooth="yes"/>
      <point x="244" y="202"/>
      <point x="240" y="193"/>
      <point x="233" y="193" type="curve" smooth="yes"/>
      <point x="146" y="193" type="line" smooth="yes"/>
      <point x="143" y="193"/>
      <point x="139" y="195"/>
      <point x="138" y="199" type="curve" smooth="yes"/>
      <point x="102" y="312" type="line" smooth="yes"/>
      <point x="100" y="319"/>
      <point x="109" y="325"/>
    </contour>
  </outline>
</glyph>
<glyph name="b" format="2">
  <advance width="378"/>
  <unicode hex="0062"/>
  <outline>
    <contour>
      <point x="131" y="23" type="line" smooth="yes"/>
      <point x="127" y="23"/>
      <point x="124" y="26"/>
      <point x="123" y="29" type="curve" smooth="yes"/>
      <point x="118" y="54"/>
      <point x="100" y="86"/>
      <point x="-7" y="237" type="curve" smooth="yes"/>
      <point x="-108" y="381"/>
      <point x="-134" y="410"/>
      <point x="-164" y="435" type="curve" smooth="yes"/>
      <point x="-170" y="440"/>
      <point x="-166" y="449"/>
      <point x="-159" y="449" type="curve" smooth="yes"/>
      <point x="-2" y="449" type="line" smooth="yes"/>
      <point x="93" y="449"/>
      <point x="185" y="402"/>
      <point x="235" y="332" type="curve" smooth="yes"/>
      <point x="263" y="292"/>
      <point x="265" y="262"/>
      <point x="250" y="241" type="curve"/>
      <point x="247" y="253" type="line"/>
      <point x="298" y="233"/>
      <point x="342" y="200"/>
      <point x="373" y="157" type="curve" smooth="yes"/>
      <point x="427" y="79"/>
      <point x="398" y="23"/>
      <point x="305" y="23" type="curve" smooth="yes"/>
    </contour>
    <contour>
      <point x="63" y="351" type="curve" smooth="yes"/>
      <point x="17" y="351" type="line"/>
      <point x="24" y="363" type="line"/>
      <point x="37" y="342"/>
      <point x="55" y="317"/>
      <point x="78" y="285" type="curve"/>
      <point x="71" y="288" type="line"/>
      <point x="119" y="288" type="line" smooth="yes"/>
      <point x="136" y="288"/>
      <point x="137" y="298"/>
      <point x="125" y="314" type="curve" smooth="yes"/>
      <point x="110" y="336"/>
      <point x="86" y="351"/>
    </contour>
    <contour>
      <point x="180" y="195" type="curve" smooth="yes"/>
      <point x="125" y="195" type="line"/>
      <point x="131" y="208" type="line"/>
      <point x="159" y="169"/>
      <point x="180" y="140"/>
      <point x="197" y="118" type="curve"/>
      <point x="191" y="121" type="line"/>
      <point x="244" y="121" type="line" smooth="yes"/>
      <point x="265" y="121"/>
      <point x="268" y="132"/>
      <point x="253" y="153" type="curve" smooth="yes"/>
      <point x="236" y="178"/>
      <point x="208" y="195"/>
    </contour>
    <contour>
      <point x="131" y="39" type="line"/>
      <point x="305" y="39" type="line" smooth="yes"/>
      <point x="384" y="39"/>
      <point x="407" y="81"/>
      <point x="359" y="147" type="curve" smooth="yes"/>
      <point x="330" y="188"/>
      <point x="290" y="219"/>
      <point x="241" y="239" type="curve" smooth="yes"/>
      <point x="236" y="241"/>
      <point x="234" y="246"/>
      <point x="238" y="251" type="curve" smooth="yes"/>
      <point x="249" y="266"/>
      <point x="243" y="292"/>
      <point x="221" y="322" type="curve" smooth="yes"/>
      <point x="175" y="388"/>
      <point x="87" y="433"/>
      <point x="-2" y="433" type="curve" smooth="yes"/>
      <point x="-159" y="433" type="line"/>
      <point x="-154" y="447" type="line"/>
      <point x="-124" y="422"/>
      <point x="-96" y="392"/>
      <point x="7" y="247" type="curve" smooth="yes"/>
      <point x="118" y="90"/>
      <point x="134" y="58"/>
      <point x="139" y="33" type="curve"/>
    </contour>
    <contour>
      <point x="63" y="367" type="line" smooth="yes"/>
      <point x="90" y="367"/>
      <point x="120" y="350"/>
      <point x="139" y="324" type="curve" smooth="yes"/>
      <point x="159" y="295"/>
      <point x="148" y="272"/>
      <point x="119" y="272" type="curve" smooth="yes"/>
      <point x="71" y="272" type="line" smooth="yes"/>
      <point x="68" y="272"/>
      <point x="66" y="273"/>
      <point x="64" y="275" type="curve" smooth="yes"/>
      <point x="41" y="309"/>
      <point x="23" y="334"/>
      <point x="10" y="355" type="curve" smooth="yes"/>
      <point x="7" y="360"/>
      <point x="11" y="367"/>
      <point x="17" y="367" type="curve" smooth="yes"/>
    </contour>
    <contour>
      <point x="180" y="211" type="line" smooth="yes"/>
      <point x="212" y="211"/>
      <point x="246" y="192"/>
      <point x="267" y="163" type="curve" smooth="yes"/>
      <point x="290" y="128"/>
      <point x="277" y="105"/>
      <point x="244" y="105" type="curve" smooth="yes"/>
      <point x="191" y="105" type="line" smooth="yes"/>
      <point x="189" y="105"/>
      <point x="186" y="106"/>
      <point x="185" y="108" type="curve" smooth="yes"/>
      <point x="168" y="130"/>
      <point x="147" y="159"/>
      <point x="119" y="198" type="curve" smooth="yes"/>
      <point x="115" y="204"/>
      <point x="118" y="211"/>
      <point x="125" y="211" type="curve" smooth="yes"/>
    </contour>
  </outline>
</glyph>
<glyph name="c" format="2">
  <advance width="383"/>
  <unicode hex="0063"/>
  <anchor x="330.0" y="73.0" name="center"/>
  <outline>
    <contour>
      <point x="81" y="241" type="curve" smooth="yes"/>
      <point x="135" y="164"/>
      <point x="209" y="117"/>
      <point x="267" y="117" type="curve" smooth="yes"/>
      <point x="307" y="117"/>
      <point x="328" y="137"/>
      <point x="340" y="164" type="curve" smooth="yes"/>
      <point x="342" y="170"/>
      <point x="350" y="171"/>
      <point x="354" y="166" type="curve" smooth="yes"/>
      <point x="435" y="51" type="line" smooth="yes"/>
      <point x="437" y="47"/>
      <point x="436" y="42"/>
      <point x="432" y="39" type="curve" smooth="yes"/>
      <point x="408" y="25"/>
      <point x="375" y="14"/>
      <point x="329" y="14" type="curve" smooth="yes"/>
      <point x="201" y="14"/>
      <point x="56" y="102"/>
      <point x="-35" y="229" type="curve" smooth="yes"/>
      <point x="-129" y="363"/>
      <point x="-105" y="457"/>
      <point x="27" y="457" type="curve" smooth="yes"/>
      <point x="72" y="457"/>
      <point x="119" y="448"/>
      <point x="163" y="433" type="curve" smooth="yes"/>
      <point x="164" y="432"/>
      <point x="166" y="431"/>
      <point x="167" y="430" type="curve" smooth="yes"/>
      <point x="248" y="316" type="line" smooth="yes"/>
      <point x="252" y="309"/>
      <point x="245" y="300"/>
      <point x="237" y="304" type="curve" smooth="yes"/>
      <point x="187" y="330"/>
      <point x="129" y="355"/>
      <point x="87" y="355" type="curve" smooth="yes"/>
      <point x="32" y="355"/>
      <point x="30" y="312"/>
    </contour>
    <contour>
      <point x="67" y="231" type="curve" smooth="yes"/>
      <point x="6" y="318"/>
      <point x="20" y="371"/>
      <point x="87" y="371" type="curve" smooth="yes"/>
      <point x="131" y="371"/>
      <point x="191" y="346"/>
      <point x="245" y="318" type="curve"/>
      <point x="234" y="306" type="line"/>
      <point x="153" y="420" type="line"/>
      <point x="157" y="417" type="line"/>
      <point x="115" y="432"/>
      <point x="70" y="441"/>
      <point x="27" y="441" type="curve" smooth="yes"/>
      <point x="-93" y="441"/>
      <point x="-107" y="359"/>
      <point x="-21" y="239" type="curve" smooth="yes"/>
      <point x="66" y="116"/>
      <point x="205" y="30"/>
      <point x="329" y="30" type="curve" smooth="yes"/>
      <point x="371" y="30"/>
      <point x="402" y="39"/>
      <point x="424" y="53" type="curve"/>
      <point x="421" y="41" type="line"/>
      <point x="340" y="156" type="line"/>
      <point x="354" y="158" type="line"/>
      <point x="340" y="125"/>
      <point x="315" y="101"/>
      <point x="267" y="101" type="curve" smooth="yes"/>
      <point x="205" y="101"/>
      <point x="125" y="150"/>
    </contour>
  </outline>
</glyph>
<glyph name="d" format="2">
  <advance width="441"/>
  <unicode hex="0064"/>
  <outline>
    <contour>
      <point x="131" y="23" type="line" smooth="yes"/>
      <point x="127" y="23"/>
      <point x="124" y="26"/>
      <point x="123" y="29" type="curve" smooth="yes"/>
      <point x="118" y="54"/>
      <point x="100" y="86"/>
      <point x="-7" y="237" type="curve" smooth="yes"/>
      <point x="-107" y="380"/>
      <point x="-134" y="410"/>
      <point x="-164" y="435" type="curve" smooth="yes"/>
      <point x="-170" y="440"/>
      <point x="-166" y="449"/>
      <point x="-159" y="449" type="curve" smooth="yes"/>
      <point x="13" y="449" type="line" smooth="yes"/>
      <point x="139" y="449"/>
      <point x="289" y="367"/>
      <point x="379" y="242" type="curve" smooth="yes"/>
      <point x="471" y="110"/>
      <point x="433" y="23"/>
      <point x="303" y="23" type="curve" smooth="yes"/>
    </contour>
    <contour>
      <point x="69" y="345" type="curve" smooth="yes"/>
      <point x="25" y="345" type="line"/>
      <point x="32" y="357" type="line"/>
      <point x="50" y="330"/>
      <point x="74" y="295"/>
      <point x="107" y="247" type="curve" smooth="yes"/>
      <point x="155" y="181"/>
      <point x="171" y="159"/>
      <point x="196" y="124" type="curve"/>
      <point x="190" y="127" type="line"/>
      <point x="234" y="127" type="line" smooth="yes"/>
      <point x="298" y="127"/>
      <point x="304" y="167"/>
      <point x="257" y="232" type="curve" smooth="yes"/>
      <point x="210" y="300"/>
      <point x="137" y="345"/>
    </contour>
    <contour>
      <point x="131" y="39" type="line"/>
      <point x="303" y="39" type="line" smooth="yes"/>
      <point x="421" y="39"/>
      <point x="449" y="113"/>
      <point x="365" y="232" type="curve" smooth="yes"/>
      <point x="279" y="353"/>
      <point x="135" y="433"/>
      <point x="13" y="433" type="curve" smooth="yes"/>
      <point x="-159" y="433" type="line"/>
      <point x="-154" y="447" type="line"/>
      <point x="-124" y="422"/>
      <point x="-95" y="391"/>
      <point x="7" y="247" type="curve" smooth="yes"/>
      <point x="118" y="90"/>
      <point x="134" y="58"/>
      <point x="139" y="33" type="curve"/>
    </contour>
    <contour>
      <point x="69" y="361" type="line" smooth="yes"/>
      <point x="141" y="361"/>
      <point x="220" y="314"/>
      <point x="271" y="242" type="curve" smooth="yes"/>
      <point x="326" y="163"/>
      <point x="310" y="111"/>
      <point x="234" y="111" type="curve" smooth="yes"/>
      <point x="190" y="111" type="line" smooth="yes"/>
      <point x="187" y="111"/>
      <point x="185" y="112"/>
      <point x="184" y="114" type="curve" smooth="yes"/>
      <point x="166" y="138"/>
      <point x="126" y="193"/>
      <point x="95" y="237" type="curve" smooth="yes"/>
      <point x="60" y="285"/>
      <point x="36" y="322"/>
      <point x="18" y="349" type="curve" smooth="yes"/>
      <point x="15" y="354"/>
      <point x="19" y="361"/>
      <point x="25" y="361" type="curve" smooth="yes"/>
    </contour>
  </outline>
</glyph>
<glyph name="e" format="2">
  <advance width="343"/>
  <unicode hex="0065"/>
  <outline>
    <contour>
      <point x="130" y="23" type="line" smooth="yes"/>
      <point x="126" y="23"/>
      <point x="123" y="26"/>
      <point x="122" y="30" type="curve" smooth="yes"/>
      <point x="118" y="54"/>
      <point x="99" y="88"/>
      <point x="-7" y="237" type="curve" smooth="yes"/>
      <point x="-108" y="380"/>
      <point x="-134" y="410"/>
      <point x="-165" y="435" type="curve" smooth="yes"/>
      <point x="-171" y="440"/>
      <point x="-168" y="449"/>
      <point x="-160" y="449" type="curve" smooth="yes"/>
      <point x="103" y="449" type="line" smooth="yes"/>
      <point x="106" y="449"/>
      <point x="108" y="448"/>
      <point x="110" y="446" type="curve" smooth="yes"/>
      <point x="188" y="336" type="line" smooth="yes"/>
      <point x="192" y="329"/>
      <point x="186" y="321"/>
      <point x="178" y="323" type="curve" smooth="yes"/>
      <point x="151" y="333"/>
      <point x="121" y="345"/>
      <point x="25" y="345" type="curve"/>
      <point x="32" y="358" type="line"/>
      <point x="45" y="339"/>
      <point x="59" y="317"/>
      <point x="78" y="289" type="curve"/>
      <point x="71" y="293" type="line"/>
      <point x="150" y="295"/>
      <point x="167" y="298"/>
      <point x="178" y="307" type="curve" smooth="yes"/>
      <point x="181" y="310"/>
      <point x="187" y="309"/>
      <point x="190" y="306" type="curve" smooth="yes"/>
      <point x="271" y="191" type="line" smooth="yes"/>
      <point x="275" y="184"/>
      <point x="269" y="176"/>
      <point x="261" y="179" type="curve" smooth="yes"/>
      <point x="238" y="187"/>
      <point x="217" y="191"/>
      <point x="131" y="193" type="curve"/>
      <point x="138" y="206" type="line"/>
      <point x="162" y="171"/>
      <point x="182" y="144"/>
      <point x="197" y="124" type="curve"/>
      <point x="190" y="127" type="line"/>
      <point x="283" y="126"/>
      <point x="307" y="135"/>
      <point x="315" y="152" type="curve" smooth="yes"/>
      <point x="318" y="157"/>
      <point x="326" y="158"/>
      <point x="329" y="152" type="curve" smooth="yes"/>
      <point x="398" y="35" type="line" smooth="yes"/>
      <point x="401" y="30"/>
      <point x="397" y="23"/>
      <point x="391" y="23" type="curve" smooth="yes"/>
    </contour>
    <contour>
      <point x="130" y="39" type="line"/>
      <point x="391" y="39" type="line"/>
      <point x="384" y="27" type="line"/>
      <point x="315" y="144" type="line"/>
      <point x="329" y="144" type="line"/>
      <point x="319" y="125"/>
      <point x="301" y="110"/>
      <point x="190" y="111" type="curve" smooth="yes"/>
      <point x="187" y="111"/>
      <point x="185" y="112"/>
      <point x="183" y="114" type="curve" smooth="yes"/>
      <point x="169" y="135"/>
      <point x="148" y="162"/>
      <point x="124" y="196" type="curve" smooth="yes"/>
      <point x="121" y="202"/>
      <point x="125" y="209"/>
      <point x="131" y="209" type="curve" smooth="yes"/>
      <point x="221" y="207"/>
      <point x="242" y="203"/>
      <point x="267" y="193" type="curve"/>
      <point x="257" y="181" type="line"/>
      <point x="176" y="296" type="line"/>
      <point x="188" y="295" type="line"/>
      <point x="175" y="284"/>
      <point x="163" y="279"/>
      <point x="71" y="277" type="curve" smooth="yes"/>
      <point x="68" y="277"/>
      <point x="66" y="278"/>
      <point x="64" y="281" type="curve" smooth="yes"/>
      <point x="46" y="308"/>
      <point x="32" y="329"/>
      <point x="18" y="348" type="curve" smooth="yes"/>
      <point x="15" y="354"/>
      <point x="19" y="361"/>
      <point x="25" y="361" type="curve" smooth="yes"/>
      <point x="123" y="361"/>
      <point x="155" y="349"/>
      <point x="184" y="339" type="curve"/>
      <point x="174" y="326" type="line"/>
      <point x="96" y="436" type="line"/>
      <point x="103" y="433" type="line"/>
      <point x="-160" y="433" type="line"/>
      <point x="-155" y="447" type="line"/>
      <point x="-124" y="422"/>
      <point x="-96" y="392"/>
      <point x="7" y="247" type="curve" smooth="yes"/>
      <point x="118" y="89"/>
      <point x="134" y="58"/>
      <point x="138" y="32" type="curve"/>
    </contour>
  </outline>
</glyph>
<glyph name="f" format="2">
  <advance width="327"/>
  <unicode hex="0066"/>
  <outline>
    <contour>
      <point x="130" y="23" type="line" smooth="yes"/>
      <point x="126" y="23"/>
      <point x="123" y="26"/>
      <point x="122" y="29" type="curve" smooth="yes"/>
      <point x="117" y="54"/>
      <point x="100" y="86"/>
      <point x="-7" y="237" type="curve" smooth="yes"/>
      <point x="-108" y="381"/>
      <point x="-135" y="410"/>
      <point x="-165" y="435" type="curve" smooth="yes"/>
      <point x="-171" y="440"/>
      <point x="-167" y="449"/>
      <point x="-160" y="449" type="curve" smooth="yes"/>
      <point x="104" y="449" type="line" smooth="yes"/>
      <point x="107" y="449"/>
      <point x="109" y="448"/>
      <point x="111" y="446" type="curve" smooth="yes"/>
      <point x="186" y="340" type="line" smooth="yes"/>
      <point x="190" y="333"/>
      <point x="184" y="325"/>
      <point x="176" y="327" type="curve" smooth="yes"/>
      <point x="150" y="337"/>
      <point x="120" y="350"/>
      <point x="18" y="349" type="curve"/>
      <point x="25" y="362" type="line"/>
      <point x="39" y="340"/>
      <point x="57" y="312"/>
      <point x="84" y="275" type="curve"/>
      <point x="77" y="278" type="line"/>
      <point x="163" y="279"/>
      <point x="179" y="282"/>
      <point x="190" y="291" type="curve" smooth="yes"/>
      <point x="193" y="294"/>
      <point x="199" y="293"/>
      <point x="202" y="290" type="curve" smooth="yes"/>
      <point x="280" y="179" type="line" smooth="yes"/>
      <point x="284" y="172"/>
      <point x="277" y="164"/>
      <point x="270" y="167" type="curve" smooth="yes"/>
      <point x="246" y="176"/>
      <point x="227" y="180"/>
      <point x="134" y="181" type="curve"/>
      <point x="140" y="194" type="line"/>
      <point x="219" y="86"/>
      <point x="243" y="59"/>
      <point x="270" y="37" type="curve" smooth="yes"/>
      <point x="276" y="32"/>
      <point x="273" y="23"/>
      <point x="265" y="23" type="curve" smooth="yes"/>
    </contour>
    <contour>
      <point x="130" y="39" type="line"/>
      <point x="265" y="39" type="line"/>
      <point x="260" y="25" type="line"/>
      <point x="233" y="47"/>
      <point x="207" y="74"/>
      <point x="128" y="184" type="curve" smooth="yes"/>
      <point x="124" y="190"/>
      <point x="128" y="197"/>
      <point x="134" y="197" type="curve" smooth="yes"/>
      <point x="231" y="196"/>
      <point x="250" y="192"/>
      <point x="276" y="181" type="curve"/>
      <point x="266" y="169" type="line"/>
      <point x="188" y="280" type="line"/>
      <point x="200" y="279" type="line"/>
      <point x="187" y="268"/>
      <point x="177" y="263"/>
      <point x="77" y="262" type="curve" smooth="yes"/>
      <point x="74" y="262"/>
      <point x="72" y="263"/>
      <point x="70" y="265" type="curve" smooth="yes"/>
      <point x="44" y="302"/>
      <point x="26" y="331"/>
      <point x="11" y="352" type="curve" smooth="yes"/>
      <point x="8" y="358"/>
      <point x="12" y="365"/>
      <point x="18" y="365" type="curve" smooth="yes"/>
      <point x="122" y="366"/>
      <point x="154" y="353"/>
      <point x="182" y="343" type="curve"/>
      <point x="172" y="330" type="line"/>
      <point x="97" y="436" type="line"/>
      <point x="104" y="433" type="line"/>
      <point x="-160" y="433" type="line"/>
      <point x="-155" y="447" type="line"/>
      <point x="-125" y="422"/>
      <point x="-96" y="392"/>
      <point x="7" y="247" type="curve" smooth="yes"/>
      <point x="117" y="90"/>
      <point x="133" y="58"/>
      <point x="138" y="33" type="curve"/>
    </contour>
  </outline>
</glyph>
<glyph name="g" format="2">
  <advance width="418"/>
  <unicode hex="0067"/>
  <outline>
    <contour>
      <point x="459" y="64" type="curve" smooth="yes"/>
      <point x="461" y="60"/>
      <point x="460" y="54"/>
      <point x="456" y="52" type="curve" smooth="yes"/>
      <point x="419" y="30"/>
      <point x="387" y="12"/>
      <point x="334" y="12" type="curve" smooth="yes"/>
      <point x="203" y="12"/>
      <point x="53" y="104"/>
      <point x="-34" y="227" type="curve" smooth="yes"/>
      <point x="-128" y="361"/>
      <point x="-98" y="457"/>
      <point x="35" y="457" type="curve" smooth="yes"/>
      <point x="83" y="457"/>
      <point x="133" y="444"/>
      <point x="186" y="429" type="curve" smooth="yes"/>
      <point x="188" y="428"/>
      <point x="189" y="427"/>
      <point x="191" y="426" type="curve" smooth="yes"/>
      <point x="272" y="312" type="line" smooth="yes"/>
      <point x="276" y="305"/>
      <point x="269" y="296"/>
      <point x="261" y="300" type="curve" smooth="yes"/>
      <point x="198" y="334"/>
      <point x="142" y="356"/>
      <point x="97" y="356" type="curve" smooth="yes"/>
      <point x="33" y="356"/>
      <point x="28" y="313"/>
      <point x="80" y="242" type="curve" smooth="yes"/>
      <point x="134" y="164"/>
      <point x="211" y="115"/>
      <point x="280" y="115" type="curve" smooth="yes"/>
      <point x="294" y="115"/>
      <point x="306" y="118"/>
      <point x="316" y="122" type="curve"/>
      <point x="313" y="110" type="line"/>
      <point x="248" y="197"/>
      <point x="226" y="219"/>
      <point x="203" y="237" type="curve" smooth="yes"/>
      <point x="197" y="241"/>
      <point x="200" y="251"/>
      <point x="208" y="251" type="curve" smooth="yes"/>
      <point x="330" y="251" type="line" smooth="yes"/>
      <point x="333" y="251"/>
      <point x="336" y="249"/>
      <point x="337" y="246" type="curve" smooth="yes"/>
      <point x="347" y="226"/>
      <point x="363" y="197"/>
    </contour>
    <contour>
      <point x="445" y="54" type="line"/>
      <point x="349" y="189"/>
      <point x="333" y="218"/>
      <point x="323" y="240" type="curve"/>
      <point x="330" y="235" type="line"/>
      <point x="208" y="235" type="line"/>
      <point x="213" y="249" type="line"/>
      <point x="236" y="231"/>
      <point x="260" y="209"/>
      <point x="325" y="120" type="curve" smooth="yes"/>
      <point x="328" y="116"/>
      <point x="327" y="110"/>
      <point x="322" y="108" type="curve" smooth="yes"/>
      <point x="310" y="102"/>
      <point x="296" y="99"/>
      <point x="280" y="99" type="curve" smooth="yes"/>
      <point x="207" y="99"/>
      <point x="124" y="150"/>
      <point x="66" y="232" type="curve" smooth="yes"/>
      <point x="6" y="317"/>
      <point x="21" y="372"/>
      <point x="97" y="372" type="curve" smooth="yes"/>
      <point x="144" y="372"/>
      <point x="202" y="350"/>
      <point x="269" y="314" type="curve"/>
      <point x="258" y="302" type="line"/>
      <point x="177" y="416" type="line"/>
      <point x="182" y="413" type="line"/>
      <point x="131" y="428"/>
      <point x="81" y="441"/>
      <point x="35" y="441" type="curve" smooth="yes"/>
      <point x="-86" y="441"/>
      <point x="-106" y="357"/>
      <point x="-20" y="237" type="curve" smooth="yes"/>
      <point x="63" y="118"/>
      <point x="207" y="28"/>
      <point x="334" y="28" type="curve" smooth="yes"/>
      <point x="383" y="28"/>
      <point x="413" y="46"/>
      <point x="448" y="66" type="curve"/>
    </contour>
  </outline>
</glyph>
<glyph name="h" format="2">
  <advance width="451"/>
  <unicode hex="0068"/>
  <outline>
    <contour>
      <point x="130" y="23" type="line" smooth="yes"/>
      <point x="126" y="23"/>
      <point x="123" y="26"/>
      <point x="122" y="29" type="curve" smooth="yes"/>
      <point x="117" y="54"/>
      <point x="100" y="86"/>
      <point x="-7" y="237" type="curve" smooth="yes"/>
      <point x="-108" y="381"/>
      <point x="-135" y="410"/>
      <point x="-165" y="435" type="curve" smooth="yes"/>
      <point x="-171" y="440"/>
      <point x="-167" y="449"/>
      <point x="-160" y="449" type="curve" smooth="yes"/>
      <point x="-21" y="449" type="line" smooth="yes"/>
      <point x="-17" y="449"/>
      <point x="-14" y="446"/>
      <point x="-13" y="442" type="curve" smooth="yes"/>
      <point x="-9" y="421"/>
      <point x="4" y="396"/>
      <point x="73" y="296" type="curve"/>
      <point x="66" y="299" type="line"/>
      <point x="207" y="299" type="line"/>
      <point x="201" y="286" type="line"/>
      <point x="127" y="388"/>
      <point x="104" y="413"/>
      <point x="77" y="435" type="curve" smooth="yes"/>
      <point x="71" y="440"/>
      <point x="74" y="449"/>
      <point x="82" y="449" type="curve" smooth="yes"/>
      <point x="221" y="449" type="line" smooth="yes"/>
      <point x="225" y="449"/>
      <point x="228" y="446"/>
      <point x="229" y="443" type="curve" smooth="yes"/>
      <point x="234" y="418"/>
      <point x="249" y="388"/>
      <point x="349" y="247" type="curve" smooth="yes"/>
      <point x="457" y="94"/>
      <point x="486" y="62"/>
      <point x="516" y="37" type="curve" smooth="yes"/>
      <point x="522" y="32"/>
      <point x="518" y="23"/>
      <point x="511" y="23" type="curve" smooth="yes"/>
      <point x="372" y="23" type="line" smooth="yes"/>
      <point x="368" y="23"/>
      <point x="365" y="26"/>
      <point x="364" y="29" type="curve" smooth="yes"/>
      <point x="359" y="51"/>
      <point x="345" y="80"/>
      <point x="263" y="196" type="curve"/>
      <point x="270" y="193" type="line"/>
      <point x="130" y="193" type="line"/>
      <point x="136" y="206" type="line"/>
      <point x="222" y="88"/>
      <point x="247" y="59"/>
      <point x="274" y="37" type="curve" smooth="yes"/>
      <point x="280" y="32"/>
      <point x="277" y="23"/>
      <point x="269" y="23" type="curve" smooth="yes"/>
    </contour>
    <contour>
      <point x="130" y="39" type="line"/>
      <point x="269" y="39" type="line"/>
      <point x="264" y="25" type="line"/>
      <point x="237" y="47"/>
      <point x="210" y="76"/>
      <point x="124" y="196" type="curve" smooth="yes"/>
      <point x="120" y="202"/>
      <point x="123" y="209"/>
      <point x="130" y="209" type="curve" smooth="yes"/>
      <point x="270" y="209" type="line" smooth="yes"/>
      <point x="273" y="209"/>
      <point x="275" y="208"/>
      <point x="277" y="206" type="curve" smooth="yes"/>
      <point x="361" y="84"/>
      <point x="375" y="55"/>
      <point x="380" y="33" type="curve"/>
      <point x="372" y="39" type="line"/>
      <point x="511" y="39" type="line"/>
      <point x="506" y="25" type="line"/>
      <point x="476" y="50"/>
      <point x="445" y="83"/>
      <point x="335" y="237" type="curve" smooth="yes"/>
      <point x="233" y="384"/>
      <point x="218" y="414"/>
      <point x="213" y="439" type="curve"/>
      <point x="221" y="433" type="line"/>
      <point x="82" y="433" type="line"/>
      <point x="87" y="447" type="line"/>
      <point x="114" y="425"/>
      <point x="139" y="400"/>
      <point x="213" y="296" type="curve" smooth="yes"/>
      <point x="217" y="290"/>
      <point x="214" y="283"/>
      <point x="207" y="283" type="curve" smooth="yes"/>
      <point x="66" y="283" type="line" smooth="yes"/>
      <point x="63" y="283"/>
      <point x="61" y="284"/>
      <point x="59" y="286" type="curve" smooth="yes"/>
      <point x="-14" y="392"/>
      <point x="-25" y="417"/>
      <point x="-29" y="440" type="curve"/>
      <point x="-21" y="433" type="line"/>
      <point x="-160" y="433" type="line"/>
      <point x="-155" y="447" type="line"/>
      <point x="-125" y="422"/>
      <point x="-96" y="392"/>
      <point x="7" y="247" type="curve" smooth="yes"/>
      <point x="117" y="90"/>
      <point x="133" y="58"/>
      <point x="138" y="33" type="curve"/>
    </contour>
  </outline>
</glyph>
<glyph name="i" format="2">
  <advance width="213"/>
  <unicode hex="0069"/>
  <outline>
    <contour>
      <point x="134" y="23" type="line" smooth="yes"/>
      <point x="130" y="23"/>
      <point x="127" y="26"/>
      <point x="126" y="29" type="curve" smooth="yes"/>
      <point x="121" y="54"/>
      <point x="104" y="86"/>
      <point x="-3" y="237" type="curve" smooth="yes"/>
      <point x="-104" y="381"/>
      <point x="-131" y="410"/>
      <point x="-161" y="435" type="curve" smooth="yes"/>
      <point x="-167" y="440"/>
      <point x="-163" y="449"/>
      <point x="-156" y="449" type="curve" smooth="yes"/>
      <point x="-21" y="449" type="line" smooth="yes"/>
      <point x="-17" y="449"/>
      <point x="-14" y="446"/>
      <point x="-13" y="443" type="curve" smooth="yes"/>
      <point x="-8" y="418"/>
      <point x="7" y="388"/>
      <point x="107" y="247" type="curve" smooth="yes"/>
      <point x="215" y="94"/>
      <point x="244" y="62"/>
      <point x="274" y="37" type="curve" smooth="yes"/>
      <point x="280" y="32"/>
      <point x="276" y="23"/>
      <point x="269" y="23" type="curve" smooth="yes"/>
    </contour>
    <contour>
      <point x="134" y="39" type="line"/>
      <point x="269" y="39" type="line"/>
      <point x="264" y="25" type="line"/>
      <point x="234" y="50"/>
      <point x="203" y="83"/>
      <point x="93" y="237" type="curve" smooth="yes"/>
      <point x="-9" y="384"/>
      <point x="-24" y="414"/>
      <point x="-29" y="439" type="curve"/>
      <point x="-21" y="433" type="line"/>
      <point x="-156" y="433" type="line"/>
      <point x="-151" y="447" type="line"/>
      <point x="-121" y="422"/>
      <point x="-92" y="392"/>
      <point x="11" y="247" type="curve" smooth="yes"/>
      <point x="121" y="90"/>
      <point x="137" y="58"/>
      <point x="142" y="33" type="curve"/>
    </contour>
  </outline>
</glyph>
<glyph name="k" format="2">
  <advance width="423"/>
  <unicode hex="006B"/>
  <outline>
    <contour>
      <point x="130" y="23" type="line" smooth="yes"/>
      <point x="126" y="23"/>
      <point x="123" y="26"/>
      <point x="122" y="29" type="curve" smooth="yes"/>
      <point x="117" y="54"/>
      <point x="100" y="86"/>
      <point x="-7" y="237" type="curve" smooth="yes"/>
      <point x="-108" y="381"/>
      <point x="-135" y="410"/>
      <point x="-165" y="435" type="curve" smooth="yes"/>
      <point x="-171" y="440"/>
      <point x="-167" y="449"/>
      <point x="-160" y="449" type="curve" smooth="yes"/>
      <point x="-25" y="449" type="line" smooth="yes"/>
      <point x="-21" y="449"/>
      <point x="-18" y="446"/>
      <point x="-17" y="442" type="curve" smooth="yes"/>
      <point x="-13" y="420"/>
      <point x="2" y="392"/>
      <point x="81" y="280" type="curve"/>
      <point x="66" y="276" type="line"/>
      <point x="86" y="396"/>
      <point x="86" y="416"/>
      <point x="76" y="438" type="curve" smooth="yes"/>
      <point x="73" y="443"/>
      <point x="77" y="449"/>
      <point x="83" y="449" type="curve" smooth="yes"/>
      <point x="230" y="449" type="line" smooth="yes"/>
      <point x="236" y="449"/>
      <point x="240" y="442"/>
      <point x="237" y="437" type="curve" smooth="yes"/>
      <point x="220" y="412"/>
      <point x="212" y="392"/>
      <point x="189" y="249" type="curve"/>
      <point x="186" y="257" type="line"/>
      <point x="422" y="94"/>
      <point x="481" y="62"/>
      <point x="529" y="38" type="curve" smooth="yes"/>
      <point x="536" y="34"/>
      <point x="533" y="23"/>
      <point x="525" y="23" type="curve" smooth="yes"/>
      <point x="365" y="23" type="line" smooth="yes"/>
      <point x="363" y="23"/>
      <point x="361" y="24"/>
      <point x="359" y="25" type="curve" smooth="yes"/>
      <point x="337" y="48"/>
      <point x="303" y="78"/>
      <point x="113" y="206" type="curve"/>
      <point x="124" y="218" type="line"/>
      <point x="215" y="90"/>
      <point x="242" y="60"/>
      <point x="270" y="37" type="curve" smooth="yes"/>
      <point x="276" y="32"/>
      <point x="273" y="23"/>
      <point x="265" y="23" type="curve" smooth="yes"/>
    </contour>
    <contour>
      <point x="130" y="39" type="line"/>
      <point x="265" y="39" type="line"/>
      <point x="260" y="25" type="line"/>
      <point x="232" y="48"/>
      <point x="203" y="78"/>
      <point x="110" y="208" type="curve" smooth="yes"/>
      <point x="105" y="216"/>
      <point x="114" y="225"/>
      <point x="121" y="220" type="curve" smooth="yes"/>
      <point x="313" y="90"/>
      <point x="349" y="60"/>
      <point x="371" y="37" type="curve"/>
      <point x="365" y="39" type="line"/>
      <point x="525" y="39" type="line"/>
      <point x="521" y="24" type="line"/>
      <point x="473" y="48"/>
      <point x="414" y="80"/>
      <point x="176" y="243" type="curve" smooth="yes"/>
      <point x="174" y="245"/>
      <point x="173" y="248"/>
      <point x="173" y="251" type="curve" smooth="yes"/>
      <point x="198" y="400"/>
      <point x="206" y="420"/>
      <point x="223" y="445" type="curve"/>
      <point x="230" y="433" type="line"/>
      <point x="83" y="433" type="line"/>
      <point x="90" y="444" type="line"/>
      <point x="102" y="420"/>
      <point x="104" y="404"/>
      <point x="82" y="274" type="curve" smooth="yes"/>
      <point x="81" y="267"/>
      <point x="72" y="265"/>
      <point x="67" y="270" type="curve" smooth="yes"/>
      <point x="-16" y="390"/>
      <point x="-29" y="416"/>
      <point x="-33" y="440" type="curve"/>
      <point x="-25" y="433" type="line"/>
      <point x="-160" y="433" type="line"/>
      <point x="-155" y="447" type="line"/>
      <point x="-125" y="422"/>
      <point x="-96" y="392"/>
      <point x="7" y="247" type="curve" smooth="yes"/>
      <point x="117" y="90"/>
      <point x="133" y="58"/>
      <point x="138" y="33" type="curve"/>
    </contour>
  </outline>
</glyph>
<glyph name="l" format="2">
  <advance width="319"/>
  <unicode hex="006C"/>
  <outline>
    <contour>
      <point x="130" y="23" type="line" smooth="yes"/>
      <point x="126" y="23"/>
      <point x="123" y="26"/>
      <point x="122" y="30" type="curve" smooth="yes"/>
      <point x="118" y="54"/>
      <point x="99" y="88"/>
      <point x="-7" y="237" type="curve" smooth="yes"/>
      <point x="-108" y="380"/>
      <point x="-134" y="410"/>
      <point x="-165" y="435" type="curve" smooth="yes"/>
      <point x="-171" y="440"/>
      <point x="-168" y="449"/>
      <point x="-160" y="449" type="curve" smooth="yes"/>
      <point x="-25" y="449" type="line" smooth="yes"/>
      <point x="-21" y="449"/>
      <point x="-18" y="446"/>
      <point x="-17" y="443" type="curve" smooth="yes"/>
      <point x="-12" y="418"/>
      <point x="3" y="388"/>
      <point x="104" y="247" type="curve" smooth="yes"/>
      <point x="142" y="193"/>
      <point x="170" y="154"/>
      <point x="191" y="125" type="curve"/>
      <point x="185" y="128" type="line"/>
      <point x="278" y="127"/>
      <point x="305" y="135"/>
      <point x="314" y="151" type="curve" smooth="yes"/>
      <point x="317" y="156"/>
      <point x="325" y="156"/>
      <point x="328" y="151" type="curve" smooth="yes"/>
      <point x="396" y="35" type="line" smooth="yes"/>
      <point x="399" y="30"/>
      <point x="395" y="23"/>
      <point x="389" y="23" type="curve" smooth="yes"/>
    </contour>
    <contour>
      <point x="130" y="39" type="line"/>
      <point x="389" y="39" type="line"/>
      <point x="382" y="27" type="line"/>
      <point x="314" y="143" type="line"/>
      <point x="328" y="143" type="line"/>
      <point x="317" y="124"/>
      <point x="297" y="111"/>
      <point x="185" y="112" type="curve" smooth="yes"/>
      <point x="182" y="112"/>
      <point x="180" y="113"/>
      <point x="179" y="115" type="curve" smooth="yes"/>
      <point x="157" y="144"/>
      <point x="129" y="183"/>
      <point x="90" y="237" type="curve" smooth="yes"/>
      <point x="-13" y="384"/>
      <point x="-28" y="414"/>
      <point x="-33" y="439" type="curve"/>
      <point x="-25" y="433" type="line"/>
      <point x="-160" y="433" type="line"/>
      <point x="-155" y="447" type="line"/>
      <point x="-124" y="422"/>
      <point x="-96" y="392"/>
      <point x="7" y="247" type="curve" smooth="yes"/>
      <point x="118" y="89"/>
      <point x="134" y="58"/>
      <point x="138" y="32" type="curve"/>
    </contour>
  </outline>
</glyph>
<glyph name="m" format="2">
  <advance width="556"/>
  <unicode hex="006D"/>
  <outline>
    <contour>
      <point x="130" y="23" type="line" smooth="yes"/>
      <point x="126" y="23"/>
      <point x="123" y="26"/>
      <point x="122" y="30" type="curve" smooth="yes"/>
      <point x="118" y="54"/>
      <point x="99" y="88"/>
      <point x="-7" y="237" type="curve" smooth="yes"/>
      <point x="-107" y="380"/>
      <point x="-134" y="410"/>
      <point x="-165" y="435" type="curve" smooth="yes"/>
      <point x="-171" y="440"/>
      <point x="-168" y="449"/>
      <point x="-160" y="449" type="curve" smooth="yes"/>
      <point x="14" y="449" type="line" smooth="yes"/>
      <point x="17" y="449"/>
      <point x="19" y="448"/>
      <point x="21" y="445" type="curve" smooth="yes"/>
      <point x="41" y="416"/>
      <point x="67" y="389"/>
      <point x="228" y="235" type="curve" smooth="yes"/>
      <point x="265" y="199" type="line"/>
      <point x="251" y="190" type="line"/>
      <point x="239" y="226" type="line" smooth="yes"/>
      <point x="187" y="380"/>
      <point x="173" y="407"/>
      <point x="152" y="436" type="curve" smooth="yes"/>
      <point x="148" y="442"/>
      <point x="151" y="449"/>
      <point x="158" y="449" type="curve" smooth="yes"/>
      <point x="326" y="449" type="line" smooth="yes"/>
      <point x="330" y="449"/>
      <point x="333" y="446"/>
      <point x="334" y="442" type="curve" smooth="yes"/>
      <point x="338" y="418"/>
      <point x="354" y="387"/>
      <point x="454" y="247" type="curve" smooth="yes"/>
      <point x="562" y="94"/>
      <point x="590" y="62"/>
      <point x="621" y="37" type="curve" smooth="yes"/>
      <point x="627" y="32"/>
      <point x="624" y="23"/>
      <point x="616" y="23" type="curve" smooth="yes"/>
      <point x="487" y="23" type="line" smooth="yes"/>
      <point x="483" y="23"/>
      <point x="480" y="26"/>
      <point x="479" y="29" type="curve" smooth="yes"/>
      <point x="474" y="54"/>
      <point x="456" y="86"/>
      <point x="349" y="237" type="curve" smooth="yes"/>
      <point x="325" y="271"/>
      <point x="306" y="298"/>
      <point x="290" y="321" type="curve"/>
      <point x="305" y="328" type="line"/>
      <point x="312" y="303"/>
      <point x="323" y="271"/>
      <point x="336" y="232" type="curve" smooth="yes"/>
      <point x="383" y="88"/>
      <point x="395" y="57"/>
      <point x="405" y="34" type="curve" smooth="yes"/>
      <point x="408" y="29"/>
      <point x="404" y="23"/>
      <point x="398" y="23" type="curve" smooth="yes"/>
      <point x="338" y="23" type="line" smooth="yes"/>
      <point x="336" y="23"/>
      <point x="334" y="24"/>
      <point x="332" y="26" type="curve" smooth="yes"/>
      <point x="311" y="49"/>
      <point x="281" y="78"/>
      <point x="125" y="223" type="curve" smooth="yes"/>
      <point x="86" y="261"/>
      <point x="54" y="291"/>
      <point x="26" y="316" type="curve"/>
      <point x="38" y="327" type="line"/>
      <point x="53" y="304"/>
      <point x="72" y="278"/>
      <point x="94" y="247" type="curve" smooth="yes"/>
      <point x="202" y="94"/>
      <point x="230" y="62"/>
      <point x="261" y="37" type="curve" smooth="yes"/>
      <point x="267" y="32"/>
      <point x="264" y="23"/>
      <point x="256" y="23" type="curve" smooth="yes"/>
    </contour>
    <contour>
      <point x="130" y="39" type="line"/>
      <point x="256" y="39" type="line"/>
      <point x="251" y="25" type="line"/>
      <point x="220" y="50"/>
      <point x="190" y="82"/>
      <point x="80" y="237" type="curve" smooth="yes"/>
      <point x="58" y="269"/>
      <point x="39" y="295"/>
      <point x="24" y="317" type="curve" smooth="yes"/>
      <point x="19" y="325"/>
      <point x="29" y="334"/>
      <point x="36" y="328" type="curve" smooth="yes"/>
      <point x="64" y="303"/>
      <point x="96" y="273"/>
      <point x="137" y="235" type="curve" smooth="yes"/>
      <point x="293" y="90"/>
      <point x="323" y="59"/>
      <point x="344" y="36" type="curve"/>
      <point x="338" y="39" type="line"/>
      <point x="398" y="39" type="line"/>
      <point x="391" y="28" type="line"/>
      <point x="381" y="51"/>
      <point x="369" y="82"/>
      <point x="320" y="226" type="curve" smooth="yes"/>
      <point x="307" y="267"/>
      <point x="296" y="299"/>
      <point x="289" y="324" type="curve" smooth="yes"/>
      <point x="287" y="333"/>
      <point x="298" y="338"/>
      <point x="304" y="331" type="curve" smooth="yes"/>
      <point x="320" y="308"/>
      <point x="339" y="281"/>
      <point x="363" y="247" type="curve" smooth="yes"/>
      <point x="474" y="90"/>
      <point x="490" y="58"/>
      <point x="495" y="33" type="curve"/>
      <point x="487" y="39" type="line"/>
      <point x="616" y="39" type="line"/>
      <point x="611" y="25" type="line"/>
      <point x="580" y="50"/>
      <point x="550" y="82"/>
      <point x="440" y="237" type="curve" smooth="yes"/>
      <point x="336" y="385"/>
      <point x="322" y="414"/>
      <point x="318" y="440" type="curve"/>
      <point x="326" y="433" type="line"/>
      <point x="158" y="433" type="line"/>
      <point x="164" y="446" type="line"/>
      <point x="187" y="415"/>
      <point x="201" y="388"/>
      <point x="255" y="232" type="curve" smooth="yes"/>
      <point x="267" y="196" type="line" smooth="yes"/>
      <point x="269" y="188"/>
      <point x="259" y="181"/>
      <point x="253" y="187" type="curve" smooth="yes"/>
      <point x="216" y="223" type="line" smooth="yes"/>
      <point x="55" y="379"/>
      <point x="27" y="406"/>
      <point x="7" y="437" type="curve"/>
      <point x="14" y="433" type="line"/>
      <point x="-160" y="433" type="line"/>
      <point x="-155" y="447" type="line"/>
      <point x="-124" y="422"/>
      <point x="-95" y="392"/>
      <point x="7" y="247" type="curve" smooth="yes"/>
      <point x="118" y="89"/>
      <point x="134" y="58"/>
      <point x="138" y="32" type="curve"/>
    </contour>
  </outline>
</glyph>
<glyph name="n" format="2">
  <advance width="449"/>
  <unicode hex="006E"/>
  <outline>
    <contour>
      <point x="508" y="37" type="curve" smooth="yes"/>
      <point x="513" y="32"/>
      <point x="509" y="23"/>
      <point x="502" y="23" type="curve" smooth="yes"/>
      <point x="405" y="23" type="line" smooth="yes"/>
      <point x="403" y="23"/>
      <point x="402" y="24"/>
      <point x="400" y="24" type="curve" smooth="yes"/>
      <point x="76" y="254" type="line"/>
      <point x="88" y="266" type="line"/>
      <point x="204" y="101"/>
      <point x="235" y="64"/>
      <point x="268" y="37" type="curve" smooth="yes"/>
      <point x="274" y="32"/>
      <point x="271" y="23"/>
      <point x="263" y="23" type="curve" smooth="yes"/>
      <point x="130" y="23" type="line" smooth="yes"/>
      <point x="126" y="23"/>
      <point x="123" y="26"/>
      <point x="122" y="29" type="curve" smooth="yes"/>
      <point x="116" y="57"/>
      <point x="93" y="96"/>
      <point x="-32" y="273" type="curve" smooth="yes"/>
      <point x="-115" y="390"/>
      <point x="-139" y="414"/>
      <point x="-165" y="435" type="curve" smooth="yes"/>
      <point x="-171" y="440"/>
      <point x="-168" y="449"/>
      <point x="-160" y="449" type="curve" smooth="yes"/>
      <point x="-49" y="449" type="line" smooth="yes"/>
      <point x="-47" y="449"/>
      <point x="-46" y="448"/>
      <point x="-44" y="448" type="curve" smooth="yes"/>
      <point x="267" y="227" type="line"/>
      <point x="255" y="215" type="line"/>
      <point x="214" y="273" type="line" smooth="yes"/>
      <point x="132" y="390"/>
      <point x="107" y="414"/>
      <point x="81" y="435" type="curve" smooth="yes"/>
      <point x="75" y="440"/>
      <point x="78" y="449"/>
      <point x="86" y="449" type="curve" smooth="yes"/>
      <point x="219" y="449" type="line" smooth="yes"/>
      <point x="223" y="449"/>
      <point x="226" y="446"/>
      <point x="227" y="442" type="curve" smooth="yes"/>
      <point x="231" y="422"/>
      <point x="240" y="398"/>
      <point x="322" y="283" type="curve" smooth="yes"/>
      <point x="448" y="103"/>
      <point x="474" y="71"/>
    </contour>
    <contour>
      <point x="496" y="25" type="line"/>
      <point x="462" y="61"/>
      <point x="436" y="93"/>
      <point x="308" y="273" type="curve" smooth="yes"/>
      <point x="224" y="394"/>
      <point x="215" y="418"/>
      <point x="211" y="440" type="curve"/>
      <point x="219" y="433" type="line"/>
      <point x="86" y="433" type="line"/>
      <point x="91" y="447" type="line"/>
      <point x="117" y="426"/>
      <point x="144" y="402"/>
      <point x="228" y="283" type="curve" smooth="yes"/>
      <point x="269" y="225" type="line" smooth="yes"/>
      <point x="274" y="217"/>
      <point x="265" y="208"/>
      <point x="257" y="213" type="curve" smooth="yes"/>
      <point x="-54" y="434" type="line"/>
      <point x="-49" y="433" type="line"/>
      <point x="-160" y="433" type="line"/>
      <point x="-155" y="447" type="line"/>
      <point x="-129" y="426"/>
      <point x="-103" y="402"/>
      <point x="-18" y="283" type="curve" smooth="yes"/>
      <point x="111" y="100"/>
      <point x="132" y="61"/>
      <point x="138" y="33" type="curve"/>
      <point x="130" y="39" type="line"/>
      <point x="263" y="39" type="line"/>
      <point x="258" y="25" type="line"/>
      <point x="225" y="52"/>
      <point x="192" y="89"/>
      <point x="74" y="256" type="curve" smooth="yes"/>
      <point x="69" y="264"/>
      <point x="78" y="273"/>
      <point x="86" y="268" type="curve" smooth="yes"/>
      <point x="410" y="38" type="line"/>
      <point x="405" y="39" type="line"/>
      <point x="502" y="39" type="line"/>
    </contour>
  </outline>
</glyph>
<glyph name="o" format="2">
  <advance width="452"/>
  <unicode hex="006F"/>
  <outline>
    <contour>
      <point x="264" y="104" type="curve" smooth="yes"/>
      <point x="202" y="104"/>
      <point x="125" y="152"/>
      <point x="69" y="232" type="curve" smooth="yes"/>
      <point x="9" y="317"/>
      <point x="23" y="368"/>
      <point x="89" y="368" type="curve" smooth="yes"/>
      <point x="150" y="368"/>
      <point x="226" y="320"/>
      <point x="282" y="242" type="curve" smooth="yes"/>
      <point x="342" y="156"/>
      <point x="329" y="104"/>
    </contour>
    <contour>
      <point x="327" y="14" type="curve" smooth="yes"/>
      <point x="203" y="14"/>
      <point x="52" y="104"/>
      <point x="-39" y="232" type="curve" smooth="yes"/>
      <point x="-131" y="363"/>
      <point x="-103" y="457"/>
      <point x="25" y="457" type="curve" smooth="yes"/>
      <point x="147" y="457"/>
      <point x="300" y="368"/>
      <point x="390" y="242" type="curve" smooth="yes"/>
      <point x="482" y="109"/>
      <point x="453" y="14"/>
    </contour>
    <contour>
      <point x="264" y="120" type="curve" smooth="yes"/>
      <point x="317" y="120"/>
      <point x="318" y="162"/>
      <point x="268" y="232" type="curve" smooth="yes"/>
      <point x="216" y="306"/>
      <point x="146" y="352"/>
      <point x="89" y="352" type="curve" smooth="yes"/>
      <point x="35" y="352"/>
      <point x="33" y="311"/>
      <point x="83" y="242" type="curve" smooth="yes"/>
      <point x="135" y="166"/>
      <point x="206" y="120"/>
    </contour>
    <contour>
      <point x="327" y="30" type="curve" smooth="yes"/>
      <point x="441" y="30"/>
      <point x="460" y="113"/>
      <point x="376" y="232" type="curve" smooth="yes"/>
      <point x="290" y="354"/>
      <point x="143" y="441"/>
      <point x="25" y="441" type="curve" smooth="yes"/>
      <point x="-91" y="441"/>
      <point x="-109" y="359"/>
      <point x="-25" y="242" type="curve" smooth="yes"/>
      <point x="62" y="118"/>
      <point x="207" y="30"/>
    </contour>
  </outline>
</glyph>
<glyph name="p" format="2">
  <advance width="386"/>
  <unicode hex="0070"/>
  <outline>
    <contour>
      <point x="130" y="23" type="line" smooth="yes"/>
      <point x="126" y="23"/>
      <point x="123" y="26"/>
      <point x="122" y="30" type="curve" smooth="yes"/>
      <point x="118" y="51"/>
      <point x="106" y="77"/>
      <point x="18" y="202" type="curve" smooth="yes"/>
      <point x="-101" y="371"/>
      <point x="-131" y="407"/>
      <point x="-165" y="435" type="curve" smooth="yes"/>
      <point x="-171" y="440"/>
      <point x="-168" y="449"/>
      <point x="-160" y="449" type="curve" smooth="yes"/>
      <point x="14" y="449" type="line" smooth="yes"/>
      <point x="118" y="449"/>
      <point x="222" y="391"/>
      <point x="286" y="302" type="curve" smooth="yes"/>
      <point x="350" y="209"/>
      <point x="326" y="143"/>
      <point x="219" y="143" type="curve" smooth="yes"/>
      <point x="162" y="143" type="line"/>
      <point x="168" y="156" type="line"/>
      <point x="227" y="76"/>
      <point x="248" y="55"/>
      <point x="270" y="37" type="curve" smooth="yes"/>
      <point x="276" y="32"/>
      <point x="273" y="23"/>
      <point x="265" y="23" type="curve" smooth="yes"/>
    </contour>
    <contour>
      <point x="173" y="290" type="curve" smooth="yes"/>
      <point x="149" y="325"/>
      <point x="112" y="349"/>
      <point x="74" y="349" type="curve" smooth="yes"/>
      <point x="19" y="349" type="line"/>
      <point x="26" y="361" type="line"/>
      <point x="44" y="332"/>
      <point x="70" y="294"/>
      <point x="109" y="240" type="curve"/>
      <point x="102" y="243" type="line"/>
      <point x="160" y="243" type="line" smooth="yes"/>
      <point x="193" y="243"/>
      <point x="195" y="260"/>
    </contour>
    <contour>
      <point x="130" y="39" type="line"/>
      <point x="265" y="39" type="line"/>
      <point x="260" y="25" type="line"/>
      <point x="238" y="43"/>
      <point x="215" y="64"/>
      <point x="156" y="146" type="curve" smooth="yes"/>
      <point x="152" y="152"/>
      <point x="155" y="159"/>
      <point x="162" y="159" type="curve" smooth="yes"/>
      <point x="219" y="159" type="line" smooth="yes"/>
      <point x="313" y="159"/>
      <point x="329" y="211"/>
      <point x="272" y="292" type="curve" smooth="yes"/>
      <point x="212" y="377"/>
      <point x="112" y="433"/>
      <point x="14" y="433" type="curve" smooth="yes"/>
      <point x="-160" y="433" type="line"/>
      <point x="-155" y="447" type="line"/>
      <point x="-121" y="419"/>
      <point x="-89" y="382"/>
      <point x="32" y="212" type="curve" smooth="yes"/>
      <point x="123" y="81"/>
      <point x="134" y="55"/>
      <point x="138" y="32" type="curve"/>
    </contour>
    <contour>
      <point x="187" y="300" type="curve" smooth="yes"/>
      <point x="217" y="257"/>
      <point x="206" y="227"/>
      <point x="160" y="227" type="curve" smooth="yes"/>
      <point x="102" y="227" type="line" smooth="yes"/>
      <point x="99" y="227"/>
      <point x="97" y="228"/>
      <point x="95" y="230" type="curve" smooth="yes"/>
      <point x="56" y="286"/>
      <point x="30" y="324"/>
      <point x="12" y="353" type="curve" smooth="yes"/>
      <point x="9" y="358"/>
      <point x="13" y="365"/>
      <point x="19" y="365" type="curve" smooth="yes"/>
      <point x="74" y="365" type="line" smooth="yes"/>
      <point x="116" y="365"/>
      <point x="159" y="339"/>
    </contour>
  </outline>
</glyph>
<glyph name="r" format="2">
  <advance width="406"/>
  <unicode hex="0072"/>
  <outline>
    <contour>
      <point x="130" y="23" type="line" smooth="yes"/>
      <point x="126" y="23"/>
      <point x="123" y="26"/>
      <point x="122" y="30" type="curve" smooth="yes"/>
      <point x="118" y="54"/>
      <point x="99" y="88"/>
      <point x="-7" y="237" type="curve" smooth="yes"/>
      <point x="-107" y="380"/>
      <point x="-134" y="410"/>
      <point x="-165" y="435" type="curve" smooth="yes"/>
      <point x="-171" y="440"/>
      <point x="-168" y="449"/>
      <point x="-160" y="449" type="curve" smooth="yes"/>
      <point x="0" y="449" type="line" smooth="yes"/>
      <point x="104" y="449"/>
      <point x="207" y="394"/>
      <point x="265" y="313" type="curve" smooth="yes"/>
      <point x="303" y="258"/>
      <point x="304" y="215"/>
      <point x="278" y="190" type="curve"/>
      <point x="277" y="202" type="line"/>
      <point x="440" y="84"/>
      <point x="478" y="62"/>
      <point x="523" y="38" type="curve" smooth="yes"/>
      <point x="530" y="34"/>
      <point x="527" y="23"/>
      <point x="519" y="23" type="curve" smooth="yes"/>
      <point x="363" y="23" type="line" smooth="yes"/>
      <point x="361" y="23"/>
      <point x="358" y="24"/>
      <point x="357" y="26" type="curve" smooth="yes"/>
      <point x="341" y="46"/>
      <point x="318" y="69"/>
      <point x="188" y="168" type="curve"/>
      <point x="193" y="166" type="line"/>
      <point x="146" y="166" type="line"/>
      <point x="152" y="179" type="line"/>
      <point x="222" y="83"/>
      <point x="245" y="57"/>
      <point x="270" y="37" type="curve" smooth="yes"/>
      <point x="276" y="33"/>
      <point x="273" y="23"/>
      <point x="265" y="23" type="curve" smooth="yes"/>
    </contour>
    <contour>
      <point x="61" y="349" type="curve" smooth="yes"/>
      <point x="18" y="349" type="line"/>
      <point x="25" y="361" type="line"/>
      <point x="41" y="336"/>
      <point x="63" y="304"/>
      <point x="94" y="260" type="curve"/>
      <point x="88" y="263" type="line"/>
      <point x="140" y="263" type="line" smooth="yes"/>
      <point x="166" y="263"/>
      <point x="170" y="276"/>
      <point x="152" y="301" type="curve" smooth="yes"/>
      <point x="132" y="330"/>
      <point x="97" y="349"/>
    </contour>
    <contour>
      <point x="130" y="39" type="line"/>
      <point x="265" y="39" type="line"/>
      <point x="260" y="25" type="line"/>
      <point x="235" y="45"/>
      <point x="210" y="71"/>
      <point x="140" y="169" type="curve" smooth="yes"/>
      <point x="136" y="175"/>
      <point x="139" y="182"/>
      <point x="146" y="182" type="curve" smooth="yes"/>
      <point x="193" y="182" type="line" smooth="yes"/>
      <point x="195" y="182"/>
      <point x="196" y="181"/>
      <point x="198" y="180" type="curve" smooth="yes"/>
      <point x="330" y="81"/>
      <point x="353" y="56"/>
      <point x="369" y="36" type="curve"/>
      <point x="363" y="39" type="line"/>
      <point x="519" y="39" type="line"/>
      <point x="515" y="24" type="line"/>
      <point x="470" y="48"/>
      <point x="432" y="70"/>
      <point x="267" y="190" type="curve" smooth="yes"/>
      <point x="263" y="192"/>
      <point x="263" y="198"/>
      <point x="266" y="202" type="curve" smooth="yes"/>
      <point x="288" y="222"/>
      <point x="283" y="258"/>
      <point x="251" y="303" type="curve" smooth="yes"/>
      <point x="197" y="380"/>
      <point x="98" y="433"/>
      <point x="0" y="433" type="curve" smooth="yes"/>
      <point x="-160" y="433" type="line"/>
      <point x="-155" y="447" type="line"/>
      <point x="-124" y="422"/>
      <point x="-95" y="392"/>
      <point x="7" y="247" type="curve" smooth="yes"/>
      <point x="118" y="89"/>
      <point x="134" y="58"/>
      <point x="138" y="32" type="curve"/>
    </contour>
    <contour>
      <point x="61" y="365" type="line" smooth="yes"/>
      <point x="103" y="365"/>
      <point x="142" y="344"/>
      <point x="166" y="311" type="curve" smooth="yes"/>
      <point x="192" y="274"/>
      <point x="178" y="247"/>
      <point x="140" y="247" type="curve" smooth="yes"/>
      <point x="88" y="247" type="line" smooth="yes"/>
      <point x="85" y="247"/>
      <point x="83" y="248"/>
      <point x="82" y="250" type="curve" smooth="yes"/>
      <point x="49" y="294"/>
      <point x="27" y="328"/>
      <point x="11" y="353" type="curve" smooth="yes"/>
      <point x="8" y="358"/>
      <point x="12" y="365"/>
      <point x="18" y="365" type="curve" smooth="yes"/>
    </contour>
  </outline>
</glyph>
<glyph name="s" format="2">
  <advance width="351"/>
  <unicode hex="0073"/>
  <outline>
    <contour>
      <point x="203" y="325" type="curve"/>
      <point x="192" y="313" type="line"/>
      <point x="113" y="425" type="line"/>
      <point x="118" y="422" type="line"/>
      <point x="74" y="432"/>
      <point x="34" y="440"/>
      <point x="1" y="440" type="curve" smooth="yes"/>
      <point x="-92" y="440"/>
      <point x="-121" y="398"/>
      <point x="-71" y="329" type="curve" smooth="yes"/>
      <point x="-19" y="254"/>
      <point x="62" y="227"/>
      <point x="130" y="206" type="curve" smooth="yes"/>
      <point x="187" y="186"/>
      <point x="229" y="176"/>
      <point x="248" y="149" type="curve" smooth="yes"/>
      <point x="266" y="123"/>
      <point x="255" y="98"/>
      <point x="207" y="98" type="curve" smooth="yes"/>
      <point x="165" y="98"/>
      <point x="103" y="116"/>
      <point x="41" y="148" type="curve"/>
      <point x="52" y="160" type="line"/>
      <point x="132" y="46" type="line"/>
      <point x="127" y="49" type="line"/>
      <point x="176" y="38"/>
      <point x="222" y="30"/>
      <point x="259" y="30" type="curve" smooth="yes"/>
      <point x="351" y="30"/>
      <point x="386" y="69"/>
      <point x="331" y="145" type="curve" smooth="yes"/>
      <point x="282" y="217"/>
      <point x="200" y="246"/>
      <point x="135" y="267" type="curve" smooth="yes"/>
      <point x="78" y="286"/>
      <point x="35" y="297"/>
      <point x="15" y="324" type="curve"/>
      <point x="-2" y="349"/>
      <point x="7" y="373"/>
      <point x="50" y="373" type="curve" smooth="yes"/>
      <point x="89" y="373"/>
      <point x="145" y="355"/>
    </contour>
    <contour>
      <point x="195" y="311" type="curve" smooth="yes"/>
      <point x="141" y="339"/>
      <point x="87" y="357"/>
      <point x="50" y="357" type="curve" smooth="yes"/>
      <point x="23" y="357"/>
      <point x="18" y="349"/>
      <point x="29" y="332" type="curve"/>
      <point x="45" y="311"/>
      <point x="91" y="298"/>
      <point x="139" y="283" type="curve" smooth="yes"/>
      <point x="208" y="260"/>
      <point x="292" y="229"/>
      <point x="345" y="155" type="curve" smooth="yes"/>
      <point x="406" y="67"/>
      <point x="365" y="14"/>
      <point x="259" y="14" type="curve" smooth="yes"/>
      <point x="220" y="14"/>
      <point x="174" y="22"/>
      <point x="123" y="33" type="curve" smooth="yes"/>
      <point x="121" y="34"/>
      <point x="120" y="35"/>
      <point x="118" y="36" type="curve" smooth="yes"/>
      <point x="38" y="150" type="line" smooth="yes"/>
      <point x="34" y="157"/>
      <point x="41" y="166"/>
      <point x="49" y="162" type="curve" smooth="yes"/>
      <point x="107" y="132"/>
      <point x="167" y="114"/>
      <point x="207" y="114" type="curve" smooth="yes"/>
      <point x="238" y="114"/>
      <point x="246" y="123"/>
      <point x="234" y="139" type="curve" smooth="yes"/>
      <point x="219" y="162"/>
      <point x="173" y="174"/>
      <point x="124" y="190" type="curve" smooth="yes"/>
      <point x="54" y="213"/>
      <point x="-29" y="242"/>
      <point x="-85" y="319" type="curve" smooth="yes"/>
      <point x="-141" y="400"/>
      <point x="-106" y="456"/>
      <point x="1" y="456" type="curve" smooth="yes"/>
      <point x="36" y="456"/>
      <point x="76" y="448"/>
      <point x="122" y="438" type="curve" smooth="yes"/>
      <point x="124" y="437"/>
      <point x="125" y="436"/>
      <point x="127" y="435" type="curve" smooth="yes"/>
      <point x="206" y="323" type="line" smooth="yes"/>
      <point x="210" y="316"/>
      <point x="203" y="307"/>
    </contour>
  </outline>
</glyph>
<glyph name="v" format="2">
  <advance width="428"/>
  <unicode hex="0076"/>
  <outline>
    <contour>
      <point x="154" y="235" type="curve"/>
      <point x="154" y="235" type="line"/>
      <point x="226" y="168" type="line"/>
      <point x="213" y="159" type="line"/>
      <point x="190" y="226" type="line" smooth="yes"/>
      <point x="139" y="377"/>
      <point x="117" y="407"/>
      <point x="87" y="435" type="curve" smooth="yes"/>
      <point x="81" y="440"/>
      <point x="85" y="449"/>
      <point x="92" y="449" type="curve" smooth="yes"/>
      <point x="233" y="449" type="line" smooth="yes"/>
      <point x="238" y="449"/>
      <point x="241" y="445"/>
      <point x="241" y="440" type="curve" smooth="yes"/>
      <point x="239" y="416"/>
      <point x="247" y="383"/>
      <point x="297" y="231" type="curve" smooth="yes"/>
      <point x="343" y="87"/>
      <point x="354" y="58"/>
      <point x="369" y="35" type="curve" smooth="yes"/>
      <point x="372" y="30"/>
      <point x="368" y="23"/>
      <point x="362" y="23" type="curve" smooth="yes"/>
      <point x="256" y="23" type="line" smooth="yes"/>
      <point x="254" y="23"/>
      <point x="252" y="24"/>
      <point x="250" y="26" type="curve" smooth="yes"/>
      <point x="229" y="49"/>
      <point x="202" y="77"/>
      <point x="43" y="223" type="curve" smooth="yes"/>
      <point x="-125" y="378"/>
      <point x="-163" y="409"/>
      <point x="-199" y="434" type="curve" smooth="yes"/>
      <point x="-206" y="439"/>
      <point x="-203" y="449"/>
      <point x="-195" y="449" type="curve" smooth="yes"/>
      <point x="-44" y="449" type="line" smooth="yes"/>
      <point x="-41" y="449"/>
      <point x="-38" y="447"/>
      <point x="-36" y="444" type="curve" smooth="yes"/>
      <point x="-27" y="415"/>
      <point x="-7" y="385"/>
    </contour>
    <contour>
      <point x="144" y="223" type="line" smooth="yes"/>
      <point x="-23" y="379"/>
      <point x="-41" y="409"/>
      <point x="-52" y="438" type="curve"/>
      <point x="-44" y="433" type="line"/>
      <point x="-195" y="433" type="line"/>
      <point x="-191" y="448" type="line"/>
      <point x="-153" y="423"/>
      <point x="-115" y="390"/>
      <point x="53" y="235" type="curve" smooth="yes"/>
      <point x="214" y="89"/>
      <point x="241" y="59"/>
      <point x="262" y="36" type="curve"/>
      <point x="256" y="39" type="line"/>
      <point x="362" y="39" type="line"/>
      <point x="355" y="27" type="line"/>
      <point x="340" y="50"/>
      <point x="329" y="79"/>
      <point x="281" y="227" type="curve" smooth="yes"/>
      <point x="229" y="385"/>
      <point x="223" y="416"/>
      <point x="225" y="442" type="curve"/>
      <point x="233" y="433" type="line"/>
      <point x="92" y="433" type="line"/>
      <point x="97" y="447" type="line"/>
      <point x="129" y="417"/>
      <point x="153" y="387"/>
      <point x="206" y="232" type="curve" smooth="yes"/>
      <point x="229" y="165" type="line" smooth="yes"/>
      <point x="231" y="157"/>
      <point x="222" y="150"/>
      <point x="216" y="156" type="curve" smooth="yes"/>
      <point x="144" y="223" type="line"/>
    </contour>
  </outline>
</glyph>
<glyph name="w" format="2">
  <advance width="577"/>
  <unicode hex="0077"/>
  <outline>
    <contour>
      <point x="325" y="36" type="curve" smooth="yes"/>
      <point x="329" y="30"/>
      <point x="326" y="23"/>
      <point x="319" y="23" type="curve" smooth="yes"/>
      <point x="242" y="23" type="line" smooth="yes"/>
      <point x="240" y="23"/>
      <point x="237" y="24"/>
      <point x="236" y="26" type="curve" smooth="yes"/>
      <point x="217" y="49"/>
      <point x="187" y="81"/>
      <point x="37" y="224" type="curve" smooth="yes"/>
      <point x="-120" y="377"/>
      <point x="-156" y="411"/>
      <point x="-189" y="435" type="curve" smooth="yes"/>
      <point x="-195" y="439"/>
      <point x="-192" y="449"/>
      <point x="-184" y="449" type="curve" smooth="yes"/>
      <point x="-43" y="449" type="line" smooth="yes"/>
      <point x="-39" y="449"/>
      <point x="-36" y="446"/>
      <point x="-35" y="443" type="curve" smooth="yes"/>
      <point x="-28" y="414"/>
      <point x="-2" y="383"/>
      <point x="161" y="225" type="curve"/>
      <point x="148" y="216" type="line"/>
      <point x="83" y="379"/>
      <point x="68" y="407"/>
      <point x="48" y="437" type="curve" smooth="yes"/>
      <point x="45" y="442"/>
      <point x="49" y="449"/>
      <point x="55" y="449" type="curve" smooth="yes"/>
      <point x="139" y="449" type="line" smooth="yes"/>
      <point x="142" y="449"/>
      <point x="144" y="448"/>
      <point x="145" y="446" type="curve" smooth="yes"/>
      <point x="167" y="416"/>
      <point x="192" y="387"/>
      <point x="358" y="228" type="curve"/>
      <point x="345" y="219" type="line"/>
      <point x="276" y="378"/>
      <point x="266" y="405"/>
      <point x="231" y="435" type="curve" smooth="yes"/>
      <point x="225" y="440"/>
      <point x="229" y="449"/>
      <point x="236" y="449" type="curve" smooth="yes"/>
      <point x="371" y="449" type="line" smooth="yes"/>
      <point x="375" y="449"/>
      <point x="379" y="446"/>
      <point x="379" y="441" type="curve" smooth="yes"/>
      <point x="380" y="418"/>
      <point x="390" y="384"/>
      <point x="448" y="233" type="curve" smooth="yes"/>
      <point x="502" y="92"/>
      <point x="514" y="59"/>
      <point x="531" y="36" type="curve" smooth="yes"/>
      <point x="535" y="31"/>
      <point x="532" y="23"/>
      <point x="525" y="23" type="curve" smooth="yes"/>
      <point x="449" y="23" type="line" smooth="yes"/>
      <point x="447" y="23"/>
      <point x="444" y="24"/>
      <point x="443" y="26" type="curve" smooth="yes"/>
      <point x="423" y="51"/>
      <point x="366" y="109"/>
      <point x="220" y="248" type="curve"/>
      <point x="233" y="257" type="line"/>
      <point x="285" y="120"/>
      <point x="308" y="60"/>
    </contour>
    <contour>
      <point x="313" y="26" type="line"/>
      <point x="294" y="52"/>
      <point x="271" y="110"/>
      <point x="219" y="251" type="curve" smooth="yes"/>
      <point x="216" y="259"/>
      <point x="225" y="266"/>
      <point x="232" y="260" type="curve" smooth="yes"/>
      <point x="378" y="119"/>
      <point x="435" y="61"/>
      <point x="455" y="36" type="curve"/>
      <point x="449" y="39" type="line"/>
      <point x="525" y="39" type="line"/>
      <point x="519" y="26" type="line"/>
      <point x="500" y="49"/>
      <point x="490" y="81"/>
      <point x="434" y="227" type="curve" smooth="yes"/>
      <point x="374" y="384"/>
      <point x="364" y="416"/>
      <point x="363" y="441" type="curve"/>
      <point x="371" y="433" type="line"/>
      <point x="236" y="433" type="line"/>
      <point x="241" y="447" type="line"/>
      <point x="278" y="417"/>
      <point x="288" y="391"/>
      <point x="359" y="225" type="curve" smooth="yes"/>
      <point x="363" y="217"/>
      <point x="353" y="210"/>
      <point x="346" y="216" type="curve" smooth="yes"/>
      <point x="180" y="377"/>
      <point x="155" y="406"/>
      <point x="133" y="436" type="curve"/>
      <point x="139" y="433" type="line"/>
      <point x="55" y="433" type="line"/>
      <point x="62" y="445" type="line"/>
      <point x="82" y="415"/>
      <point x="97" y="387"/>
      <point x="162" y="222" type="curve" smooth="yes"/>
      <point x="166" y="214"/>
      <point x="156" y="207"/>
      <point x="149" y="213" type="curve" smooth="yes"/>
      <point x="-25" y="384"/>
      <point x="-44" y="408"/>
      <point x="-51" y="439" type="curve"/>
      <point x="-43" y="433" type="line"/>
      <point x="-184" y="433" type="line"/>
      <point x="-179" y="447" type="line"/>
      <point x="-146" y="423"/>
      <point x="-110" y="389"/>
      <point x="49" y="236" type="curve" smooth="yes"/>
      <point x="199" y="91"/>
      <point x="229" y="59"/>
      <point x="248" y="36" type="curve"/>
      <point x="242" y="39" type="line"/>
      <point x="319" y="39" type="line"/>
    </contour>
  </outline>
</glyph>
<glyph name="x" format="2">
  <advance width="421"/>
  <unicode hex="0078"/>
  <outline>
    <contour>
      <point x="362" y="23" type="line" smooth="yes"/>
      <point x="359" y="23"/>
      <point x="357" y="24"/>
      <point x="355" y="27" type="curve" smooth="yes"/>
      <point x="342" y="48"/>
      <point x="315" y="71"/>
      <point x="202" y="156" type="curve"/>
      <point x="215" y="162" type="line"/>
      <point x="218" y="80"/>
      <point x="225" y="57"/>
      <point x="242" y="36" type="curve" smooth="yes"/>
      <point x="246" y="31"/>
      <point x="243" y="23"/>
      <point x="236" y="23" type="curve" smooth="yes"/>
      <point x="95" y="23" type="line" smooth="yes"/>
      <point x="89" y="23"/>
      <point x="85" y="29"/>
      <point x="88" y="34" type="curve" smooth="yes"/>
      <point x="97" y="57"/>
      <point x="100" y="91"/>
      <point x="98" y="236" type="curve"/>
      <point x="101" y="230" type="line"/>
      <point x="-99" y="377"/>
      <point x="-149" y="410"/>
      <point x="-193" y="434" type="curve" smooth="yes"/>
      <point x="-200" y="438"/>
      <point x="-197" y="449"/>
      <point x="-189" y="449" type="curve" smooth="yes"/>
      <point x="-35" y="449" type="line" smooth="yes"/>
      <point x="-32" y="449"/>
      <point x="-30" y="448"/>
      <point x="-28" y="445" type="curve" smooth="yes"/>
      <point x="-15" y="425"/>
      <point x="10" y="403"/>
      <point x="109" y="327" type="curve"/>
      <point x="96" y="321" type="line"/>
      <point x="94" y="395"/>
      <point x="87" y="415"/>
      <point x="71" y="436" type="curve" smooth="yes"/>
      <point x="67" y="441"/>
      <point x="70" y="449"/>
      <point x="77" y="449" type="curve" smooth="yes"/>
      <point x="217" y="449" type="line" smooth="yes"/>
      <point x="223" y="449"/>
      <point x="227" y="443"/>
      <point x="224" y="438" type="curve" smooth="yes"/>
      <point x="216" y="416"/>
      <point x="211" y="384"/>
      <point x="215" y="245" type="curve"/>
      <point x="212" y="251" type="line"/>
      <point x="420" y="98"/>
      <point x="476" y="62"/>
      <point x="520" y="38" type="curve" smooth="yes"/>
      <point x="527" y="34"/>
      <point x="524" y="23"/>
      <point x="516" y="23" type="curve" smooth="yes"/>
    </contour>
    <contour>
      <point x="362" y="39" type="line"/>
      <point x="516" y="39" type="line"/>
      <point x="512" y="24" type="line"/>
      <point x="468" y="48"/>
      <point x="412" y="84"/>
      <point x="202" y="239" type="curve" smooth="yes"/>
      <point x="200" y="240"/>
      <point x="199" y="242"/>
      <point x="199" y="245" type="curve" smooth="yes"/>
      <point x="195" y="388"/>
      <point x="200" y="420"/>
      <point x="210" y="444" type="curve"/>
      <point x="217" y="433" type="line"/>
      <point x="77" y="433" type="line"/>
      <point x="83" y="446" type="line"/>
      <point x="101" y="423"/>
      <point x="110" y="401"/>
      <point x="112" y="321" type="curve" smooth="yes"/>
      <point x="112" y="314"/>
      <point x="104" y="311"/>
      <point x="99" y="315" type="curve" smooth="yes"/>
      <point x="-4" y="393"/>
      <point x="-27" y="415"/>
      <point x="-42" y="437" type="curve"/>
      <point x="-35" y="433" type="line"/>
      <point x="-189" y="433" type="line"/>
      <point x="-185" y="448" type="line"/>
      <point x="-141" y="424"/>
      <point x="-91" y="391"/>
      <point x="111" y="242" type="curve" smooth="yes"/>
      <point x="113" y="241"/>
      <point x="114" y="239"/>
      <point x="114" y="236" type="curve" smooth="yes"/>
      <point x="116" y="83"/>
      <point x="113" y="53"/>
      <point x="102" y="28" type="curve"/>
      <point x="95" y="39" type="line"/>
      <point x="236" y="39" type="line"/>
      <point x="230" y="26" type="line"/>
      <point x="211" y="49"/>
      <point x="202" y="72"/>
      <point x="199" y="162" type="curve" smooth="yes"/>
      <point x="199" y="168"/>
      <point x="206" y="172"/>
      <point x="212" y="168" type="curve" smooth="yes"/>
      <point x="329" y="81"/>
      <point x="354" y="58"/>
      <point x="369" y="35" type="curve"/>
    </contour>
  </outline>
</glyph>
<glyph name="y" format="2">
  <advance width="399"/>
  <unicode hex="0079"/>
  <outline>
    <contour>
      <point x="207" y="449" type="line" smooth="yes"/>
      <point x="212" y="449"/>
      <point x="216" y="444"/>
      <point x="215" y="439" type="curve" smooth="yes"/>
      <point x="210" y="414"/>
      <point x="214" y="377"/>
      <point x="242" y="196" type="curve"/>
      <point x="241" y="200" type="line"/>
      <point x="321" y="86"/>
      <point x="346" y="58"/>
      <point x="371" y="37" type="curve" smooth="yes"/>
      <point x="377" y="32"/>
      <point x="373" y="23"/>
      <point x="366" y="23" type="curve" smooth="yes"/>
      <point x="232" y="23" type="line" smooth="yes"/>
      <point x="228" y="23"/>
      <point x="225" y="26"/>
      <point x="224" y="30" type="curve" smooth="yes"/>
      <point x="220" y="50"/>
      <point x="202" y="81"/>
      <point x="125" y="190" type="curve"/>
      <point x="127" y="189" type="line"/>
      <point x="-106" y="372"/>
      <point x="-160" y="408"/>
      <point x="-202" y="434" type="curve" smooth="yes"/>
      <point x="-209" y="438"/>
      <point x="-206" y="449"/>
      <point x="-198" y="449" type="curve" smooth="yes"/>
      <point x="-56" y="449" type="line" smooth="yes"/>
      <point x="-53" y="449"/>
      <point x="-50" y="447"/>
      <point x="-49" y="444" type="curve" smooth="yes"/>
      <point x="-37" y="419"/>
      <point x="-16" y="397"/>
      <point x="131" y="283" type="curve"/>
      <point x="118" y="276" type="line"/>
      <point x="104" y="388"/>
      <point x="93" y="410"/>
      <point x="70" y="436" type="curve" smooth="yes"/>
      <point x="65" y="441"/>
      <point x="69" y="449"/>
      <point x="76" y="449" type="curve" smooth="yes"/>
    </contour>
    <contour>
      <point x="207" y="433" type="line"/>
      <point x="76" y="433" type="line"/>
      <point x="82" y="446" type="line"/>
      <point x="107" y="420"/>
      <point x="120" y="396"/>
      <point x="134" y="278" type="curve" smooth="yes"/>
      <point x="135" y="271"/>
      <point x="127" y="266"/>
      <point x="121" y="271" type="curve" smooth="yes"/>
      <point x="-32" y="389"/>
      <point x="-51" y="411"/>
      <point x="-63" y="438" type="curve"/>
      <point x="-56" y="433" type="line"/>
      <point x="-198" y="433" type="line"/>
      <point x="-194" y="448" type="line"/>
      <point x="-152" y="422"/>
      <point x="-96" y="386"/>
      <point x="137" y="201" type="curve" smooth="yes"/>
      <point x="138" y="201"/>
      <point x="138" y="200"/>
      <point x="139" y="200" type="curve" smooth="yes"/>
      <point x="221" y="82"/>
      <point x="236" y="54"/>
      <point x="240" y="32" type="curve"/>
      <point x="232" y="39" type="line"/>
      <point x="366" y="39" type="line"/>
      <point x="361" y="25" type="line"/>
      <point x="336" y="46"/>
      <point x="309" y="75"/>
      <point x="227" y="190" type="curve" smooth="yes"/>
      <point x="227" y="191"/>
      <point x="226" y="193"/>
      <point x="226" y="194" type="curve" smooth="yes"/>
      <point x="198" y="381"/>
      <point x="194" y="416"/>
      <point x="199" y="443" type="curve"/>
    </contour>
  </outline>
</glyph>
<glyph name="braceleft" format="2">
  <advance width="325"/>
  <unicode hex="007B"/>
  <outline>
    <contour>
      <point x="-12" y="224" type="line" smooth="yes"/>
      <point x="-15" y="224"/>
      <point x="-17" y="225"/>
      <point x="-19" y="227" type="curve" smooth="yes"/>
      <point x="-77" y="308" type="line" smooth="yes"/>
      <point x="-80" y="314"/>
      <point x="-77" y="321"/>
      <point x="-70" y="321" type="curve" smooth="yes"/>
      <point x="-24" y="321" type="line" smooth="yes"/>
      <point x="-15" y="321"/>
      <point x="-10" y="321"/>
      <point x="-18" y="332" type="curve" smooth="yes"/>
      <point x="-37" y="360"/>
      <point x="-130" y="435"/>
      <point x="-173" y="494" type="curve" smooth="yes"/>
      <point x="-248" y="600"/>
      <point x="-176" y="645"/>
      <point x="-6" y="613" type="curve" smooth="yes"/>
      <point x="-3" y="612"/>
      <point x="-2" y="611"/>
      <point x="0" y="610" type="curve" smooth="yes"/>
      <point x="73" y="507" type="line" smooth="yes"/>
      <point x="77" y="500"/>
      <point x="70" y="492"/>
      <point x="63" y="495" type="curve" smooth="yes"/>
      <point x="-39" y="537"/>
      <point x="-71" y="531"/>
      <point x="-47" y="498" type="curve" smooth="yes"/>
      <point x="-19" y="457"/>
      <point x="57" y="399"/>
      <point x="94" y="347" type="curve" smooth="yes"/>
      <point x="122" y="306"/>
      <point x="126" y="275"/>
      <point x="84" y="264" type="curve"/>
      <point x="83" y="280" type="line"/>
      <point x="134" y="270"/>
      <point x="166" y="243"/>
      <point x="193" y="208" type="curve" smooth="yes"/>
      <point x="229" y="154"/>
      <point x="236" y="96"/>
      <point x="265" y="57" type="curve" smooth="yes"/>
      <point x="290" y="20"/>
      <point x="341" y="3"/>
      <point x="385" y="49" type="curve" smooth="yes"/>
      <point x="389" y="52"/>
      <point x="395" y="52"/>
      <point x="398" y="48" type="curve" smooth="yes"/>
      <point x="471" y="-55" type="line" smooth="yes"/>
      <point x="474" y="-60"/>
      <point x="471" y="-66"/>
      <point x="466" y="-68" type="curve" smooth="yes"/>
      <point x="345" y="-100"/>
      <point x="221" y="-62"/>
      <point x="148" y="41" type="curve" smooth="yes"/>
      <point x="105" y="102"/>
      <point x="94" y="175"/>
      <point x="75" y="203" type="curve" smooth="yes"/>
      <point x="63" y="218"/>
      <point x="47" y="224"/>
      <point x="34" y="224" type="curve" smooth="yes"/>
    </contour>
    <contour>
      <point x="-12" y="240" type="line"/>
      <point x="34" y="240" type="line" smooth="yes"/>
      <point x="51" y="240"/>
      <point x="73" y="232"/>
      <point x="87" y="213" type="curve" smooth="yes"/>
      <point x="108" y="183"/>
      <point x="121" y="108"/>
      <point x="162" y="51" type="curve" smooth="yes"/>
      <point x="231" y="-48"/>
      <point x="347" y="-82"/>
      <point x="462" y="-52" type="curve"/>
      <point x="457" y="-65" type="line"/>
      <point x="384" y="38" type="line"/>
      <point x="397" y="37" type="line"/>
      <point x="345" y="-17"/>
      <point x="282" y="4"/>
      <point x="251" y="47" type="curve" smooth="yes"/>
      <point x="222" y="88"/>
      <point x="215" y="148"/>
      <point x="179" y="198" type="curve" smooth="yes"/>
      <point x="156" y="231"/>
      <point x="126" y="256"/>
      <point x="81" y="264" type="curve" smooth="yes"/>
      <point x="72" y="266"/>
      <point x="72" y="278"/>
      <point x="80" y="280" type="curve" smooth="yes"/>
      <point x="110" y="287"/>
      <point x="101" y="308"/>
      <point x="80" y="337" type="curve" smooth="yes"/>
      <point x="45" y="389"/>
      <point x="-31" y="447"/>
      <point x="-61" y="488" type="curve" smooth="yes"/>
      <point x="-92" y="532"/>
      <point x="-65" y="566"/>
      <point x="69" y="509" type="curve"/>
      <point x="59" y="497" type="line"/>
      <point x="-14" y="600" type="line"/>
      <point x="-8" y="597" type="line"/>
      <point x="-160" y="625"/>
      <point x="-226" y="598"/>
      <point x="-159" y="504" type="curve" smooth="yes"/>
      <point x="-118" y="445"/>
      <point x="-25" y="370"/>
      <point x="-4" y="342" type="curve" smooth="yes"/>
      <point x="13" y="317"/>
      <point x="-4" y="305"/>
      <point x="-24" y="305" type="curve" smooth="yes"/>
      <point x="-70" y="305" type="line"/>
      <point x="-63" y="318" type="line"/>
      <point x="-5" y="237" type="line"/>
    </contour>
  </outline>
</glyph>
<glyph name="bar" format="2">
  <advance width="273"/>
  <unicode hex="007C"/>
  <outline>
    <contour>
      <point x="220" y="-30" type="line" smooth="yes"/>
      <point x="217" y="-30"/>
      <point x="215" y="-29"/>
      <point x="213" y="-27" type="curve" smooth="yes"/>
      <point x="-200" y="556" type="line" smooth="yes"/>
      <point x="-203" y="562"/>
      <point x="-199" y="569"/>
      <point x="-193" y="569" type="curve" smooth="yes"/>
      <point x="-94" y="569" type="line" smooth="yes"/>
      <point x="-91" y="569"/>
      <point x="-89" y="568"/>
      <point x="-87" y="566" type="curve" smooth="yes"/>
      <point x="325" y="-17" type="line" smooth="yes"/>
      <point x="328" y="-23"/>
      <point x="324" y="-30"/>
      <point x="318" y="-30" type="curve" smooth="yes"/>
    </contour>
    <contour>
      <point x="220" y="-14" type="line"/>
      <point x="318" y="-14" type="line"/>
      <point x="311" y="-27" type="line"/>
      <point x="-101" y="556" type="line"/>
      <point x="-94" y="553" type="line"/>
      <point x="-193" y="553" type="line"/>
      <point x="-186" y="566" type="line"/>
      <point x="227" y="-17" type="line"/>
    </contour>
  </outline>
</glyph>
<glyph name="asciitilde" format="2">
  <advance width="451"/>
  <unicode hex="007E"/>
  <outline>
    <contour>
      <point x="308" y="155" type="curve" smooth="yes"/>
      <point x="379" y="155"/>
      <point x="377" y="219"/>
      <point x="286" y="331" type="curve"/>
      <point x="292" y="328" type="line"/>
      <point x="217" y="328" type="line"/>
      <point x="224" y="340" type="line"/>
      <point x="271" y="267"/>
      <point x="268" y="244"/>
      <point x="236" y="244" type="curve" smooth="yes"/>
      <point x="216" y="244"/>
      <point x="192" y="260"/>
      <point x="160" y="280" type="curve" smooth="yes"/>
      <point x="122" y="305"/>
      <point x="78" y="333"/>
      <point x="31" y="333" type="curve" smooth="yes"/>
      <point x="-40" y="333"/>
      <point x="-38" y="269"/>
      <point x="54" y="157" type="curve"/>
      <point x="48" y="160" type="line"/>
      <point x="122" y="160" type="line"/>
      <point x="115" y="148" type="line"/>
      <point x="69" y="221"/>
      <point x="72" y="244"/>
      <point x="103" y="244" type="curve" smooth="yes"/>
      <point x="125" y="244"/>
      <point x="150" y="226"/>
      <point x="184" y="205" type="curve" smooth="yes"/>
      <point x="220" y="181"/>
      <point x="263" y="155"/>
    </contour>
    <contour>
      <point x="308" y="139" type="curve" smooth="yes"/>
      <point x="259" y="139"/>
      <point x="214" y="165"/>
      <point x="176" y="191" type="curve" smooth="yes"/>
      <point x="149" y="208"/>
      <point x="121" y="228"/>
      <point x="103" y="228" type="curve" smooth="yes"/>
      <point x="86" y="228"/>
      <point x="103" y="196"/>
      <point x="129" y="156" type="curve" smooth="yes"/>
      <point x="132" y="151"/>
      <point x="128" y="144"/>
      <point x="122" y="144" type="curve" smooth="yes"/>
      <point x="48" y="144" type="line" smooth="yes"/>
      <point x="46" y="144"/>
      <point x="43" y="145"/>
      <point x="42" y="147" type="curve" smooth="yes"/>
      <point x="-65" y="277"/>
      <point x="-52" y="349"/>
      <point x="31" y="349" type="curve" smooth="yes"/>
      <point x="82" y="349"/>
      <point x="128" y="321"/>
      <point x="168" y="294" type="curve" smooth="yes"/>
      <point x="194" y="278"/>
      <point x="220" y="260"/>
      <point x="236" y="260" type="curve" smooth="yes"/>
      <point x="254" y="260"/>
      <point x="237" y="291"/>
      <point x="210" y="332" type="curve" smooth="yes"/>
      <point x="207" y="337"/>
      <point x="211" y="344"/>
      <point x="217" y="344" type="curve" smooth="yes"/>
      <point x="292" y="344" type="line" smooth="yes"/>
      <point x="294" y="344"/>
      <point x="297" y="343"/>
      <point x="298" y="341" type="curve" smooth="yes"/>
      <point x="404" y="211"/>
      <point x="391" y="139"/>
    </contour>
  </outline>
</glyph>
